<svg width="221" height="48" viewBox="0 0 221 48" fill="none" xmlns="http://www.w3.org/2000/svg">
<path fill-rule="evenodd" clip-rule="evenodd" d="M33.6892 28.3618C29.1578 29.8528 16.2872 36.2558 13.9667 37.8164C13.9451 38.6075 31.091 45.9654 44.3705 31.2172C65.6406 7.59363 4.1293 10.0179 33.6908 28.3633L33.6892 28.3618Z" fill="#4BD0AE"/>
<path fill-rule="evenodd" clip-rule="evenodd" d="M40.0798 11.3452C31.574 14.2531 25.4688 6.52592 13.3711 17.5566C18.1895 18.4698 23.4739 18.3802 30.0727 24.1373C25.3222 24.553 8.33827 28.0156 5.7231 29.0045C5.52098 29.7693 24.9535 39.428 42.2645 29.7415C62.9992 18.1422 40.1138 12.1363 53.0693 1.2153C51.2178 3.28114 48.4252 3.11272 45.9921 3.2796C40.0089 3.68906 45.6851 9.42922 40.0767 11.3467L40.0798 11.3452Z" fill="#FCD34C"/>
<path fill-rule="evenodd" clip-rule="evenodd" d="M45.5324 6.69125C45.3611 9.41068 44.4184 11.0933 41.4823 11.1242C40.6569 11.132 39.7095 10.9527 38.8517 10.3285C36.7256 8.78027 29.2087 5.32999 20.7276 13.0634C23.4245 13.7803 27.6628 13.2364 33.2017 18.7124C29.5528 20.3904 13.3711 22.943 13.5347 23.1083C13.6828 23.2582 29.8244 34.4047 43.1455 24.9717C44.4971 24.0137 45.9289 22.9368 47.0937 21.4303C53.4442 13.2179 44.1607 9.58992 53.5075 2.13002C52.0356 3.7725 49.8185 3.89765 47.8852 3.76941C45.4058 3.60408 45.6712 4.51262 45.5339 6.6928L45.5324 6.69125Z" fill="#F67256"/>
<path fill-rule="evenodd" clip-rule="evenodd" d="M5.38675 36.1816C5.46081 36.4181 5.58887 36.6359 5.7663 36.8136C6.07025 37.1211 6.47139 37.2771 6.87254 37.2802H6.87409C7.27523 37.2818 7.67792 37.1319 7.98496 36.8275C8.69468 36.126 8.77491 35.3643 8.4941 34.7122C8.28273 34.224 7.86153 33.8083 7.35083 33.5379C6.84477 33.2691 6.24305 33.1393 5.66601 33.2212C4.78658 33.3448 3.97503 33.9443 3.64485 35.2607C3.51216 35.7954 3.52451 36.364 3.68034 36.9063C3.83154 37.4317 4.11543 37.9307 4.52737 38.3495C5.02572 38.8547 5.5719 39.1653 6.12579 39.3136C6.72597 39.4728 7.33232 39.4388 7.9001 39.2534C8.46016 39.071 8.98319 38.7404 9.42137 38.3062C9.97681 37.7561 10.4073 37.0315 10.6233 36.2172C10.8454 35.3813 10.8609 34.5206 10.6726 33.7233C10.4875 32.9415 10.1079 32.2199 9.53554 31.639C8.56353 30.6547 7.21197 30.2375 5.8095 30.3565C4.42863 30.4739 2.99993 31.1167 1.85049 32.2555C1.04511 33.0543 0.522072 33.9366 0.244355 34.8528C-0.110506 36.0225 -0.0657627 37.2385 0.293727 38.3881C0.650131 39.5284 1.31511 40.6038 2.20381 41.5046C3.17736 42.492 4.42246 43.2707 5.82647 43.6987C6.19059 43.81 6.59483 43.8841 7.02529 43.9181C7.44649 43.9521 7.89701 43.949 8.36296 43.9058C9.95983 43.7574 11.7419 43.1425 13.2477 41.9944C14.5129 41.0303 15.5805 39.6922 16.1792 37.9416C16.6065 36.6931 16.7855 35.3813 16.9629 34.0973C17.1836 32.4857 17.3996 30.9189 18.0892 29.6426C18.4688 28.9412 19.089 28.0882 19.8419 27.2261L19.8527 27.2152C20.652 27.24 21.4897 27.2369 22.3692 27.2013C24.2978 27.1256 26.4007 26.968 28.4666 26.6837C30.19 26.4458 31.8856 26.1182 33.427 25.6747C33.7155 25.5913 34.0117 25.5001 34.3095 25.4013C36.2504 24.7554 38.5231 23.7093 40.1508 22.2384C41.8233 20.7257 42.82 18.7726 42.1226 16.3452C42.0964 16.2572 42.0717 16.1737 42.0454 16.0949C41.7338 15.1539 41.1166 14.3937 40.1801 13.8715C39.313 13.3879 38.1728 13.1113 36.7472 13.0866H36.7256C35.7675 13.1314 34.7662 13.2751 33.754 13.5068C32.7435 13.7386 31.7236 14.0615 30.7223 14.4648C28.86 15.2173 27.1289 15.5928 25.4981 15.4336C23.8796 15.276 22.3445 14.5884 20.8572 13.2133C20.1629 12.572 19.5766 11.8412 19.1029 11.0145C18.7465 10.3934 18.4549 9.71662 18.2312 8.98423C18.7388 9.21291 19.3683 9.36588 20.1089 9.45086C21.2043 9.57602 22.5528 9.55593 24.1172 9.41223C24.7174 9.35661 25.5645 9.15419 26.5272 8.92397C28.6641 8.41253 31.3888 7.76203 32.9548 8.36L33.0875 8.41099C34.1752 8.82663 35.2337 9.22991 36.2165 10.0473C36.6207 10.3934 37.0188 10.721 37.4122 11.0284C37.7979 11.3297 38.1682 11.6001 38.52 11.8319H38.5215C39.404 12.4144 40.5118 12.7265 41.4622 12.6555C41.8433 12.6277 42.1997 12.5396 42.5129 12.3851C42.8354 12.2244 43.1116 11.9926 43.3152 11.6836L43.3229 11.6712C43.5852 11.2648 43.7195 10.7349 43.6701 10.0643C43.6284 9.50958 43.4001 8.9626 43.1363 8.33373C43.002 8.01234 42.857 7.66623 42.7259 7.29077C42.5515 6.79014 42.4574 6.26016 42.442 5.73173C42.4265 5.19866 42.4898 4.66713 42.6333 4.16496C42.7968 3.59481 43.1579 3.06174 43.6346 2.60747C44.1561 2.10994 44.8149 1.7082 45.5015 1.4548C45.8687 1.31883 46.259 1.25084 46.6571 1.23385C47.1014 1.21531 47.5535 1.26321 47.9917 1.35746C48.6258 1.49343 49.0763 1.62631 49.4327 1.73293C50.8367 2.14857 50.9324 2.17638 53.9148 0.635882C54.4656 0.351578 54.1817 -0.209305 53.6201 0.0811796C50.8676 1.5027 50.7843 1.47952 49.6102 1.13187C49.2414 1.02217 48.7739 0.884648 48.1213 0.744041C47.6353 0.638972 47.1277 0.586438 46.6278 0.60807C46.168 0.628156 45.7113 0.708503 45.2793 0.867652C44.5171 1.14887 43.7843 1.5985 43.198 2.15629C42.6441 2.68473 42.2213 3.31205 42.0269 3.99345C41.8665 4.55588 41.794 5.15385 41.8125 5.75181C41.8294 6.3436 41.9359 6.93693 42.1334 7.5009C42.2692 7.89028 42.4188 8.2472 42.5577 8.57786C42.8015 9.15883 43.0128 9.66409 43.0468 10.1122C43.0853 10.6344 42.9897 11.0346 42.7984 11.3297L42.7922 11.339C42.6533 11.5507 42.462 11.7098 42.2337 11.8226C41.9945 11.9416 41.7168 12.0096 41.419 12.0312C40.6029 12.0915 39.6432 11.818 38.8687 11.3081C38.5277 11.0825 38.1713 10.8229 37.7995 10.5325C37.4353 10.2481 37.0434 9.92367 36.6269 9.56984L36.6222 9.56675C35.553 8.67675 34.4483 8.25647 33.3128 7.82229L33.1816 7.77285C31.4366 7.1069 28.6055 7.78366 26.3837 8.31519C25.4472 8.53923 24.6218 8.73701 24.0617 8.788C22.5404 8.92861 21.2352 8.94869 20.1814 8.82817C19.1723 8.71229 18.4102 8.46816 17.9334 8.07724C17.8594 8.01234 17.7575 7.98298 17.6541 8.00771C17.486 8.04788 17.3811 8.2163 17.4212 8.38626C17.6742 9.47095 18.0568 10.449 18.5614 11.3282C19.0659 12.2089 19.6923 12.9892 20.4329 13.6737C22.0267 15.1493 23.6837 15.8863 25.4395 16.0578C27.1829 16.2278 29.0097 15.8353 30.9599 15.0473C31.9334 14.6549 32.9209 14.3427 33.896 14.1187C34.8665 13.8962 35.8277 13.7587 36.7518 13.7139C38.0648 13.7386 39.1001 13.9858 39.8746 14.4185C40.6677 14.8604 41.1876 15.5016 41.4499 16.2927C41.4777 16.3746 41.5008 16.4488 41.5209 16.5183C42.138 18.6629 41.237 20.4089 39.7311 21.7717C38.179 23.1747 35.9881 24.1791 34.1135 24.8033C33.8127 24.9037 33.5257 24.9918 33.2557 25.0706C31.7452 25.5063 30.0805 25.8277 28.3848 26.061C26.3498 26.3407 24.2654 26.4968 22.346 26.5725C21.6795 26.5987 21.0361 26.6065 20.4174 26.5987C20.9976 25.9869 21.6286 25.392 22.272 24.8666C23.426 23.9257 24.6002 23.2952 25.8036 22.8873C27.0086 22.4779 28.2444 22.2925 29.5188 22.2415C29.7256 22.2337 29.9293 22.2276 30.1453 22.2198C32.6956 22.1426 36.9262 22.0143 37.6313 19.1605C37.7455 18.6954 37.6575 18.2241 37.2918 17.7729C36.9941 17.4037 36.505 17.0514 35.7845 16.73C31.8038 14.9654 21.2028 19.3428 20.9544 19.4463C18.637 20.3348 16.1282 20.8122 13.6396 20.9065C11.0645 21.0038 8.51262 20.6917 6.21373 20.0041C6.04865 19.9547 5.87276 20.0489 5.82339 20.2143C5.79562 20.3085 5.81259 20.4043 5.8635 20.48C7.2922 22.6123 9.18685 24.383 11.8514 25.5774C13.8031 26.4519 16.1668 27.0144 19.0597 27.1797C18.4194 27.9476 17.8902 28.7017 17.5431 29.3444C16.7979 30.7227 16.5741 32.3451 16.3458 34.0107C16.173 35.2654 15.9971 36.5478 15.5913 37.7361C15.0359 39.36 14.0454 40.6023 12.8712 41.4969C11.4657 42.5677 9.80092 43.1425 8.3105 43.2815C7.88312 43.3217 7.47118 43.3248 7.08237 43.2939H7.08083C6.69665 43.263 6.33871 43.1981 6.0147 43.0992C4.71406 42.7037 3.55999 41.979 2.65432 41.0627C1.83352 40.2314 1.22099 39.2441 0.895448 38.2011C0.572987 37.169 0.53133 36.0812 0.847619 35.0382C1.09602 34.2209 1.5666 33.4267 2.29483 32.7051C3.33782 31.673 4.62612 31.0904 5.86659 30.9838C7.08546 30.8803 8.2565 31.2388 9.0912 32.084C9.58183 32.5815 9.90738 33.1995 10.0663 33.8701C10.2314 34.5685 10.216 35.3226 10.0215 36.058C9.8364 36.7595 9.46457 37.3838 8.98319 37.8612C8.60982 38.2305 8.17319 38.5086 7.70878 38.66C7.25209 38.8084 6.76763 38.8362 6.28934 38.7095C5.8419 38.5905 5.39447 38.3325 4.97635 37.9091C4.63692 37.5661 4.40549 37.1597 4.2836 36.7348C4.15863 36.2975 4.14628 35.8417 4.25274 35.4153C4.50732 34.3955 5.10904 33.935 5.7555 33.8439C6.19522 33.7821 6.66117 33.884 7.05614 34.0942C7.44803 34.3012 7.76741 34.6102 7.92015 34.9641C8.10376 35.3874 8.03741 35.8927 7.54369 36.381C7.35855 36.5648 7.11786 36.6545 6.87717 36.6545C6.63648 36.6529 6.39734 36.5587 6.21373 36.3732C6.10573 36.2635 6.02859 36.1337 5.98385 35.9947C5.69533 35.0784 5.12447 35.3488 5.38675 36.1847V36.1816ZM21.8739 24.3784C21.0624 25.0397 20.2739 25.8045 19.5812 26.574C16.5433 26.4519 14.0978 25.8942 12.106 25.0026C9.86263 23.9967 8.18861 22.5613 6.88797 20.84C9.02022 21.3808 11.333 21.6188 13.6612 21.5307C16.2177 21.4334 18.7943 20.9436 21.1765 20.0304L21.1827 20.0273C21.2136 20.0149 31.7514 15.6298 35.5253 17.3017C36.1532 17.5798 36.5652 17.8718 36.8012 18.1654C37.028 18.4466 37.0866 18.7325 37.0188 19.0075C36.4278 21.3994 32.4935 21.5183 30.1221 21.591C29.8891 21.5987 29.6701 21.6049 29.4895 21.6126C28.158 21.6667 26.8651 21.8614 25.5984 22.2909C24.3302 22.722 23.0912 23.3864 21.8724 24.3799L21.8739 24.3784ZM31.196 41.2559C31.1049 41.3177 30.983 41.3563 30.8504 41.3733C30.7069 41.3918 30.5557 41.3841 30.4153 41.3532C30.2363 41.313 30.0851 41.2389 30.0172 41.1384C29.8213 40.8526 29.7055 40.5327 29.7071 40.233C29.7086 39.9842 29.795 39.7463 29.991 39.5516C30.5557 38.9938 31.1373 38.9243 31.6202 39.1406C32.0214 39.3198 32.3685 39.6876 32.6 40.1372C32.8329 40.5915 32.9425 41.1214 32.8669 41.6221C32.7558 42.3575 32.2251 43.0389 31.0648 43.3155C30.5803 43.4299 30.0635 43.4113 29.5713 43.263C29.093 43.1193 28.6363 42.8504 28.2522 42.4626C27.78 41.9836 27.4946 41.4737 27.365 40.9638C27.2277 40.4199 27.2647 39.8699 27.4391 39.3538C27.6165 38.8315 27.9359 38.3402 28.3571 37.9215C28.9002 37.3838 29.6099 36.9728 30.4014 36.7719C31.2299 36.5617 32.08 36.5556 32.8638 36.7503C33.6167 36.9372 34.3095 37.3127 34.8649 37.8751C35.8076 38.83 36.1964 40.1573 36.0622 41.5324C35.9264 42.9277 35.2568 44.3724 34.0827 45.5343C33.1986 46.4104 32.2143 46.9481 31.2037 47.2C30.0465 47.4889 28.8477 47.407 27.7199 47.03C26.5828 46.6499 25.5151 45.9716 24.6279 45.0739C23.6096 44.0417 22.8305 42.7206 22.4587 41.2296C22.2025 40.2021 22.2411 39.0448 22.5049 37.8797C22.7904 36.6205 23.3366 35.355 24.0571 34.2286C26.5534 30.3349 29.6099 30.0799 33.6275 29.7446C34.0179 29.7122 34.419 29.6782 34.9235 29.6318C35.4188 29.5855 36.0082 29.5376 36.6037 29.4881C39.2204 29.2734 41.9544 29.0478 44.4076 28.2907C47.427 27.3589 50.1239 25.8633 51.7733 23.6862C53.1896 21.8181 53.8315 19.4602 53.2498 16.543C53.0122 15.3533 52.5725 14.1759 52.1142 12.9475L51.8828 12.3264C50.9802 9.88041 50.3152 8.04634 50.4865 6.5012C50.6531 4.98697 51.6437 3.68906 54.0428 2.24436C54.191 2.15475 54.2388 1.96161 54.1493 1.81327C54.0644 1.67267 53.8885 1.62322 53.7451 1.69275C53.688 1.71902 53.5399 1.79473 53.3809 1.87508C52.5478 2.29999 51.1762 2.99839 49.7135 3.0262C49.2152 3.03547 48.6813 2.87478 48.1629 2.71718C47.8945 2.63528 47.6291 2.55648 47.3761 2.49931C46.4534 2.29226 45.7761 2.54876 45.4012 2.95667C45.2577 3.11273 45.1559 3.29196 45.1003 3.47738C45.0432 3.66743 45.0355 3.86675 45.0757 4.05835C45.1651 4.47399 45.483 4.83864 46.0523 4.98234L46.0801 4.98852C46.3748 5.05805 46.691 5.05496 46.9533 4.97925C47.1045 4.93444 47.2418 4.868 47.3514 4.77529C47.4748 4.67022 47.5643 4.53734 47.606 4.37201C47.6399 4.23449 47.6384 4.08307 47.5905 3.91774L46.9888 4.09234C47.0042 4.14642 47.0073 4.18814 46.9996 4.22059C46.9934 4.24686 46.9734 4.27312 46.9456 4.2963C46.904 4.33184 46.8469 4.35811 46.779 4.37819C46.617 4.42455 46.4164 4.42609 46.2266 4.38128L46.205 4.3751C45.8965 4.29785 45.7283 4.1217 45.6866 3.92856C45.6681 3.84358 45.6727 3.75087 45.7005 3.65971C45.7298 3.56391 45.7823 3.46965 45.8579 3.38622C46.1001 3.12354 46.5661 2.9644 47.2372 3.11427C47.4825 3.1699 47.7309 3.24407 47.9809 3.31978C48.5471 3.49129 49.1303 3.66743 49.7243 3.65507C50.3415 3.64271 50.9355 3.52682 51.4832 3.3615C50.4695 4.34111 49.9851 5.32999 49.8632 6.43322C49.6765 8.12359 50.3615 10.0195 51.295 12.5458L51.528 13.1684C51.9785 14.3737 52.4105 15.5294 52.6373 16.6666C53.1788 19.3861 52.5848 21.5771 51.2734 23.3061C49.7104 25.3688 47.1261 26.795 44.2224 27.6911C41.8402 28.4266 39.1371 28.6491 36.5513 28.8608C36.0113 28.9056 35.4759 28.9489 34.8665 29.0061C34.4869 29.0416 34.0256 29.0802 33.5751 29.1173C29.3815 29.4665 26.194 29.7323 23.531 33.8871C22.7703 35.0738 22.1948 36.4088 21.894 37.7391C21.6085 38.9984 21.5684 40.2562 21.8492 41.381C22.2488 42.9864 23.0851 44.4064 24.1805 45.5142C25.1355 46.4815 26.2881 47.2123 27.5193 47.6234C28.7598 48.0374 30.0774 48.1271 31.3564 47.8072C32.4735 47.5276 33.5566 46.9373 34.5255 45.9793C35.8061 44.7123 36.5374 43.127 36.6855 41.5896C36.8367 40.0321 36.3908 38.521 35.3108 37.4286C34.6736 36.7827 33.879 36.3516 33.0135 36.1368C32.1309 35.9174 31.1759 35.9236 30.2455 36.16C29.3399 36.3902 28.5314 36.8584 27.9127 37.4703C27.4252 37.9539 27.0533 38.5287 26.8435 39.1483C26.6306 39.7756 26.5858 40.4478 26.7556 41.1153C26.9114 41.7318 27.2477 42.3405 27.8016 42.903C28.2583 43.3665 28.8076 43.6879 29.3862 43.861C29.9848 44.0417 30.6127 44.0634 31.2037 43.9228L31.2052 43.9212C32.6632 43.5736 33.3344 42.6836 33.4825 41.7132C33.5797 41.0766 33.4439 40.4091 33.1539 39.8436C32.8623 39.275 32.4087 38.8037 31.8733 38.5642C31.162 38.2459 30.3258 38.3263 29.5451 39.0989C29.2195 39.4202 29.076 39.8143 29.0745 40.2237C29.073 40.6548 29.2319 41.1014 29.4973 41.4892C29.6593 41.7271 29.9509 41.8894 30.2749 41.962C30.4847 42.0083 30.7115 42.0207 30.9275 41.9929C31.1528 41.9635 31.3703 41.8909 31.5477 41.7688C32.2482 41.2899 31.8038 40.834 31.1929 41.2528L31.196 41.2559Z" fill="#2B2A29"/>
<path d="M59.3594 37.4325H221V38.6698H59.3594V37.4325Z" fill="url(#paint0_linear_98_17)"/>
<mask id="path-3-outside-1_98_17" maskUnits="userSpaceOnUse" x="60.0325" y="15.2958" width="159" height="26" fill="black">
<rect fill="white" x="60.0325" y="15.2958" width="159" height="26"/>
<path d="M68.2651 21.3222C69.5006 21.3222 70.4358 21.5886 71.0707 22.1213C71.7227 22.654 72.1689 23.3672 72.4091 24.2607C72.6493 25.1372 72.7694 26.1167 72.7694 27.1993V33.7981C72.7694 34.2449 72.6236 34.6229 72.3319 34.9323C72.0402 35.2244 71.6712 35.3705 71.2251 35.3705C70.7789 35.3705 70.41 35.2244 70.1183 34.9323C69.8266 34.6229 69.6808 34.2449 69.6808 33.7981V27.1993C69.6808 26.6322 69.6121 26.1253 69.4748 25.6785C69.3376 25.2145 69.0888 24.845 68.7284 24.5701C68.3681 24.2951 67.8533 24.1576 67.1841 24.1576C66.532 24.1576 65.9743 24.2951 65.511 24.5701C65.0477 24.845 64.696 25.2145 64.4557 25.6785C64.2327 26.1253 64.1211 26.6322 64.1211 27.1993V33.7981C64.1211 34.2449 63.9753 34.6229 63.6836 34.9323C63.3919 35.2244 63.0229 35.3705 62.5768 35.3705C62.1307 35.3705 61.7617 35.2244 61.47 34.9323C61.1783 34.6229 61.0325 34.2449 61.0325 33.7981V17.8681C61.0325 17.4214 61.1783 17.0519 61.47 16.7598C61.7617 16.4504 62.1307 16.2958 62.5768 16.2958C63.0229 16.2958 63.3919 16.4504 63.6836 16.7598C63.9753 17.0519 64.1211 17.4214 64.1211 17.8681V24.2607L63.7351 24.1834C63.8895 23.8913 64.104 23.582 64.3785 23.2555C64.6531 22.9118 64.9877 22.5939 65.3824 22.3017C65.777 22.0096 66.2146 21.7776 66.695 21.6058C67.1755 21.4167 67.6989 21.3222 68.2651 21.3222Z"/>
<path d="M87.3875 21.3222C87.8337 21.3222 88.2026 21.4683 88.4943 21.7604C88.786 22.0526 88.9319 22.4306 88.9319 22.8946V33.7981C88.9319 34.2449 88.786 34.6229 88.4943 34.9323C88.2026 35.2244 87.8337 35.3705 87.3875 35.3705C86.9414 35.3705 86.5725 35.2244 86.2808 34.9323C85.9891 34.6229 85.8432 34.2449 85.8432 33.7981V32.535L86.4095 32.767C86.4095 32.9904 86.2893 33.2654 86.0491 33.5919C85.8089 33.9012 85.4829 34.2105 85.071 34.5198C84.6592 34.8292 84.1702 35.0955 83.6039 35.3189C83.0548 35.5251 82.4542 35.6282 81.8022 35.6282C80.6182 35.6282 79.5457 35.3275 78.5848 34.7261C77.6239 34.1074 76.8603 33.2654 76.2941 32.1999C75.745 31.1173 75.4704 29.8801 75.4704 28.4881C75.4704 27.079 75.745 25.8417 76.2941 24.7763C76.8603 23.6937 77.6153 22.8516 78.5591 22.2502C79.5028 21.6315 80.5496 21.3222 81.6992 21.3222C82.4371 21.3222 83.1149 21.4339 83.7326 21.6573C84.3503 21.8807 84.8823 22.1643 85.3284 22.5079C85.7917 22.8516 86.1435 23.2039 86.3837 23.5648C86.6411 23.9085 86.7698 24.2006 86.7698 24.4412L85.8432 24.7763V22.8946C85.8432 22.4478 85.9891 22.0783 86.2808 21.7862C86.5725 21.4769 86.9414 21.3222 87.3875 21.3222ZM82.1883 32.7928C82.9433 32.7928 83.6039 32.6038 84.1702 32.2257C84.7364 31.8477 85.174 31.3321 85.4829 30.6791C85.8089 30.0261 85.9719 29.2958 85.9719 28.4881C85.9719 27.6633 85.8089 26.9243 85.4829 26.2713C85.174 25.6183 84.7364 25.1028 84.1702 24.7247C83.6039 24.3467 82.9433 24.1576 82.1883 24.1576C81.4504 24.1576 80.7984 24.3467 80.2321 24.7247C79.6659 25.1028 79.2197 25.6183 78.8937 26.2713C78.5848 26.9243 78.4304 27.6633 78.4304 28.4881C78.4304 29.2958 78.5848 30.0261 78.8937 30.6791C79.2197 31.3321 79.6659 31.8477 80.2321 32.2257C80.7984 32.6038 81.4504 32.7928 82.1883 32.7928Z"/>
<path d="M99.4058 21.3222C100.607 21.3222 101.679 21.6315 102.623 22.2502C103.584 22.8516 104.339 23.6851 104.888 24.7505C105.454 25.8159 105.738 27.0532 105.738 28.4623C105.738 29.8715 105.454 31.1173 104.888 32.1999C104.339 33.2654 103.593 34.1074 102.649 34.7261C101.722 35.3275 100.676 35.6282 99.5088 35.6282C98.8224 35.6282 98.1789 35.5165 97.5783 35.2931C96.9778 35.0697 96.4458 34.7862 95.9825 34.4425C95.5364 34.0988 95.1846 33.7551 94.9272 33.4114C94.687 33.0506 94.5669 32.7498 94.5669 32.5093L95.3648 32.1742V38.9534C95.3648 39.4002 95.2189 39.7697 94.9272 40.0618C94.6355 40.3711 94.2666 40.5258 93.8205 40.5258C93.3743 40.5258 93.0054 40.3797 92.7137 40.0876C92.422 39.7955 92.2761 39.4174 92.2761 38.9534V23.1524C92.2761 22.7056 92.422 22.3361 92.7137 22.044C93.0054 21.7346 93.3743 21.58 93.8205 21.58C94.2666 21.58 94.6355 21.7346 94.9272 22.044C95.2189 22.3361 95.3648 22.7056 95.3648 23.1524V24.4154L94.9272 24.1834C94.9272 23.96 95.0474 23.6937 95.2876 23.3843C95.5278 23.0578 95.8538 22.7399 96.2657 22.4306C96.6775 22.1041 97.1494 21.8377 97.6813 21.6315C98.2304 21.4253 98.8052 21.3222 99.4058 21.3222ZM99.0197 24.1576C98.2647 24.1576 97.6041 24.3467 97.0378 24.7247C96.4716 25.1028 96.0254 25.6183 95.6994 26.2713C95.3905 26.9071 95.2361 27.6375 95.2361 28.4623C95.2361 29.27 95.3905 30.0089 95.6994 30.6791C96.0254 31.3321 96.4716 31.8477 97.0378 32.2257C97.6041 32.6038 98.2647 32.7928 99.0197 32.7928C99.7747 32.7928 100.427 32.6038 100.976 32.2257C101.542 31.8477 101.98 31.3321 102.289 30.6791C102.615 30.0089 102.778 29.27 102.778 28.4623C102.778 27.6375 102.615 26.9071 102.289 26.2713C101.98 25.6183 101.542 25.1028 100.976 24.7247C100.427 24.3467 99.7747 24.1576 99.0197 24.1576Z"/>
<path d="M115.568 21.3222C116.769 21.3222 117.842 21.6315 118.785 22.2502C119.746 22.8516 120.501 23.6851 121.05 24.7505C121.617 25.8159 121.9 27.0532 121.9 28.4623C121.9 29.8715 121.617 31.1173 121.05 32.1999C120.501 33.2654 119.755 34.1074 118.811 34.7261C117.885 35.3275 116.838 35.6282 115.671 35.6282C114.985 35.6282 114.341 35.5165 113.741 35.2931C113.14 35.0697 112.608 34.7862 112.145 34.4425C111.699 34.0988 111.347 33.7551 111.089 33.4114C110.849 33.0506 110.729 32.7498 110.729 32.5093L111.527 32.1742V38.9534C111.527 39.4002 111.381 39.7697 111.089 40.0618C110.798 40.3711 110.429 40.5258 109.983 40.5258C109.537 40.5258 109.168 40.3797 108.876 40.0876C108.584 39.7955 108.438 39.4174 108.438 38.9534V23.1524C108.438 22.7056 108.584 22.3361 108.876 22.044C109.168 21.7346 109.537 21.58 109.983 21.58C110.429 21.58 110.798 21.7346 111.089 22.044C111.381 22.3361 111.527 22.7056 111.527 23.1524V24.4154L111.089 24.1834C111.089 23.96 111.21 23.6937 111.45 23.3843C111.69 23.0578 112.016 22.7399 112.428 22.4306C112.84 22.1041 113.312 21.8377 113.844 21.6315C114.393 21.4253 114.967 21.3222 115.568 21.3222ZM115.182 24.1576C114.427 24.1576 113.766 24.3467 113.2 24.7247C112.634 25.1028 112.188 25.6183 111.862 26.2713C111.553 26.9071 111.398 27.6375 111.398 28.4623C111.398 29.27 111.553 30.0089 111.862 30.6791C112.188 31.3321 112.634 31.8477 113.2 32.2257C113.766 32.6038 114.427 32.7928 115.182 32.7928C115.937 32.7928 116.589 32.6038 117.138 32.2257C117.704 31.8477 118.142 31.3321 118.451 30.6791C118.777 30.0089 118.94 29.27 118.94 28.4623C118.94 27.6375 118.777 26.9071 118.451 26.2713C118.142 25.6183 117.704 25.1028 117.138 24.7247C116.589 24.3467 115.937 24.1576 115.182 24.1576Z"/>
<path d="M134.819 21.58C135.265 21.58 135.634 21.7346 135.926 22.044C136.217 22.3361 136.363 22.7056 136.363 23.1524V34.1074C136.363 35.6884 136.063 36.9428 135.462 37.8708C134.879 38.8159 134.09 39.4947 133.094 39.9072C132.099 40.3196 130.984 40.5258 129.748 40.5258C129.199 40.5258 128.616 40.4828 127.998 40.3969C127.38 40.311 126.874 40.1821 126.48 40.0103C125.965 39.7869 125.604 39.5033 125.399 39.1596C125.21 38.8331 125.175 38.4808 125.296 38.1028C125.45 37.6044 125.699 37.2608 126.042 37.0717C126.385 36.8999 126.746 36.8827 127.123 37.0202C127.398 37.1061 127.758 37.235 128.204 37.4068C128.65 37.5959 129.165 37.6904 129.748 37.6904C130.538 37.6904 131.19 37.5787 131.705 37.3553C132.237 37.1491 132.631 36.7882 132.889 36.2727C133.163 35.7743 133.3 35.0869 133.3 34.2105V32.4835L133.841 33.1021C133.549 33.6692 133.18 34.1418 132.734 34.5198C132.305 34.8807 131.79 35.1557 131.19 35.3447C130.589 35.5337 129.903 35.6282 129.131 35.6282C128.221 35.6282 127.423 35.422 126.737 35.0096C126.068 34.58 125.544 33.9957 125.167 33.2568C124.789 32.5007 124.601 31.6415 124.601 30.6791V23.1524C124.601 22.7056 124.746 22.3361 125.038 22.044C125.33 21.7346 125.699 21.58 126.145 21.58C126.591 21.58 126.96 21.7346 127.252 22.044C127.543 22.3361 127.689 22.7056 127.689 23.1524V29.7512C127.689 30.8682 127.93 31.6586 128.41 32.1226C128.908 32.5694 129.594 32.7928 130.469 32.7928C131.07 32.7928 131.576 32.6811 131.988 32.4577C132.4 32.2171 132.717 31.8734 132.94 31.4266C133.163 30.9627 133.275 30.4042 133.275 29.7512V23.1524C133.275 22.7056 133.42 22.3361 133.712 22.044C134.004 21.7346 134.373 21.58 134.819 21.58Z"/>
<path d="M150.988 21.3222C151.966 21.3222 152.815 21.4253 153.536 21.6315C154.274 21.8377 154.84 22.1299 155.235 22.5079C155.647 22.8688 155.853 23.307 155.853 23.8225C155.853 24.1662 155.75 24.4927 155.544 24.8021C155.338 25.0942 155.037 25.2403 154.643 25.2403C154.368 25.2403 154.137 25.2059 153.948 25.1372C153.776 25.0512 153.622 24.9481 153.485 24.8278C153.347 24.7075 153.184 24.5958 152.995 24.4927C152.824 24.3896 152.558 24.3123 152.198 24.2607C151.854 24.192 151.597 24.1576 151.425 24.1576C150.55 24.1576 149.804 24.3467 149.186 24.7247C148.586 25.1028 148.122 25.6183 147.796 26.2713C147.47 26.9071 147.307 27.6461 147.307 28.4881C147.307 29.313 147.47 30.0519 147.796 30.7049C148.139 31.3407 148.603 31.8477 149.186 32.2257C149.787 32.6038 150.473 32.7928 151.245 32.7928C151.674 32.7928 152.043 32.767 152.352 32.7155C152.661 32.6639 152.918 32.5866 153.124 32.4835C153.364 32.346 153.579 32.1999 153.768 32.0453C153.956 31.8906 154.24 31.8133 154.617 31.8133C155.063 31.8133 155.406 31.9594 155.647 32.2515C155.887 32.5265 156.007 32.8701 156.007 33.2826C156.007 33.7122 155.767 34.1074 155.286 34.4683C154.806 34.812 154.171 35.0955 153.382 35.3189C152.609 35.5251 151.769 35.6282 150.859 35.6282C149.504 35.6282 148.328 35.3189 147.333 34.7003C146.338 34.0645 145.566 33.2052 145.016 32.1226C144.484 31.04 144.219 29.8285 144.219 28.4881C144.219 27.079 144.502 25.8417 145.068 24.7763C145.651 23.6937 146.449 22.8516 147.462 22.2502C148.491 21.6315 149.667 21.3222 150.988 21.3222Z"/>
<path d="M171.593 28.4881C171.593 29.8972 171.275 31.1431 170.64 32.2257C170.023 33.2912 169.182 34.1246 168.118 34.7261C167.071 35.3275 165.896 35.6282 164.592 35.6282C163.288 35.6282 162.104 35.3275 161.04 34.7261C159.993 34.1246 159.152 33.2912 158.517 32.2257C157.9 31.1431 157.591 29.8972 157.591 28.4881C157.591 27.079 157.9 25.8417 158.517 24.7763C159.152 23.6937 159.993 22.8516 161.04 22.2502C162.104 21.6315 163.288 21.3222 164.592 21.3222C165.896 21.3222 167.071 21.6315 168.118 22.2502C169.182 22.8516 170.023 23.6937 170.64 24.7763C171.275 25.8417 171.593 27.079 171.593 28.4881ZM168.504 28.4881C168.504 27.6117 168.324 26.8556 167.963 26.2198C167.62 25.5668 167.148 25.0598 166.548 24.699C165.964 24.3381 165.312 24.1576 164.592 24.1576C163.871 24.1576 163.21 24.3381 162.61 24.699C162.026 25.0598 161.554 25.5668 161.194 26.2198C160.851 26.8556 160.679 27.6117 160.679 28.4881C160.679 29.3473 160.851 30.1034 161.194 30.7565C161.554 31.3923 162.026 31.8906 162.61 32.2515C163.21 32.6124 163.871 32.7928 164.592 32.7928C165.312 32.7928 165.964 32.6124 166.548 32.2515C167.148 31.8906 167.62 31.3923 167.963 30.7565C168.324 30.1034 168.504 29.3473 168.504 28.4881Z"/>
<path d="M177.642 33.7981C177.642 34.2449 177.488 34.6229 177.179 34.9323C176.887 35.2244 176.518 35.3705 176.072 35.3705C175.643 35.3705 175.283 35.2244 174.991 34.9323C174.699 34.6229 174.553 34.2449 174.553 33.7981V17.8681C174.553 17.4214 174.699 17.0519 174.991 16.7598C175.3 16.4504 175.677 16.2958 176.123 16.2958C176.569 16.2958 176.93 16.4504 177.204 16.7598C177.496 17.0519 177.642 17.4214 177.642 17.8681V33.7981Z"/>
<path d="M194.34 28.4881C194.34 29.8972 194.023 31.1431 193.388 32.2257C192.77 33.2912 191.93 34.1246 190.866 34.7261C189.819 35.3275 188.644 35.6282 187.339 35.6282C186.035 35.6282 184.851 35.3275 183.788 34.7261C182.741 34.1246 181.9 33.2912 181.265 32.2257C180.647 31.1431 180.338 29.8972 180.338 28.4881C180.338 27.079 180.647 25.8417 181.265 24.7763C181.9 23.6937 182.741 22.8516 183.788 22.2502C184.851 21.6315 186.035 21.3222 187.339 21.3222C188.644 21.3222 189.819 21.6315 190.866 22.2502C191.93 22.8516 192.77 23.6937 193.388 24.7763C194.023 25.8417 194.34 27.079 194.34 28.4881ZM191.252 28.4881C191.252 27.6117 191.072 26.8556 190.711 26.2198C190.368 25.5668 189.896 25.0598 189.296 24.699C188.712 24.3381 188.06 24.1576 187.339 24.1576C186.619 24.1576 185.958 24.3381 185.358 24.699C184.774 25.0598 184.302 25.5668 183.942 26.2198C183.599 26.8556 183.427 27.6117 183.427 28.4881C183.427 29.3473 183.599 30.1034 183.942 30.7565C184.302 31.3923 184.774 31.8906 185.358 32.2515C185.958 32.6124 186.619 32.7928 187.339 32.7928C188.06 32.7928 188.712 32.6124 189.296 32.2515C189.896 31.8906 190.368 31.3923 190.711 30.7565C191.072 30.1034 191.252 29.3473 191.252 28.4881Z"/>
<path d="M198.588 35.3705C198.142 35.3705 197.773 35.2244 197.481 34.9323C197.19 34.6229 197.044 34.2449 197.044 33.7981V23.1524C197.044 22.7056 197.19 22.3361 197.481 22.044C197.773 21.7346 198.142 21.58 198.588 21.58C199.034 21.58 199.403 21.7346 199.695 22.044C199.986 22.3361 200.132 22.7056 200.132 23.1524V25.5754L199.952 23.8483C200.141 23.4359 200.381 23.075 200.673 22.7657C200.982 22.4392 201.325 22.1728 201.702 21.9666C202.08 21.7432 202.483 21.58 202.912 21.4769C203.341 21.3738 203.77 21.3222 204.199 21.3222C204.714 21.3222 205.143 21.4683 205.486 21.7604C205.846 22.0526 206.027 22.3962 206.027 22.7915C206.027 23.3586 205.881 23.771 205.589 24.0288C205.297 24.2693 204.98 24.3896 204.637 24.3896C204.311 24.3896 204.01 24.3295 203.736 24.2092C203.478 24.0889 203.178 24.0288 202.835 24.0288C202.526 24.0288 202.209 24.1061 201.883 24.2607C201.574 24.3982 201.282 24.6216 201.007 24.9309C200.75 25.2403 200.536 25.6269 200.364 26.0909C200.21 26.5377 200.132 27.0704 200.132 27.689V33.7981C200.132 34.2449 199.986 34.6229 199.695 34.9323C199.403 35.2244 199.034 35.3705 198.588 35.3705Z"/>
<path d="M207.406 33.231C207.234 32.9904 207.157 32.6811 207.174 32.3031C207.192 31.925 207.415 31.5985 207.844 31.3235C208.118 31.1517 208.41 31.083 208.719 31.1173C209.028 31.1345 209.328 31.2892 209.62 31.5813C210.117 32.0797 210.641 32.4663 211.19 32.7413C211.739 33.0162 212.425 33.1537 213.249 33.1537C213.506 33.1365 213.789 33.1021 214.098 33.0506C214.407 32.9818 214.673 32.8444 214.896 32.6381C215.136 32.4148 215.256 32.0797 215.256 31.6329C215.256 31.2548 215.128 30.9541 214.87 30.7307C214.613 30.5073 214.27 30.3183 213.841 30.1636C213.429 30.0089 212.966 29.8629 212.451 29.7254C211.919 29.5707 211.37 29.3989 210.804 29.2099C210.254 29.0208 209.748 28.7802 209.285 28.4881C208.822 28.1788 208.444 27.775 208.152 27.2766C207.861 26.7783 207.715 26.151 207.715 25.3949C207.715 24.5357 207.955 23.8054 208.436 23.2039C208.916 22.6025 209.534 22.1385 210.289 21.812C211.061 21.4855 211.867 21.3222 212.708 21.3222C213.24 21.3222 213.798 21.391 214.381 21.5284C214.965 21.6487 215.522 21.8549 216.054 22.1471C216.586 22.422 217.032 22.7915 217.393 23.2555C217.581 23.5132 217.693 23.8225 217.727 24.1834C217.762 24.5443 217.599 24.8708 217.238 25.1629C216.981 25.3691 216.681 25.4637 216.337 25.4465C215.994 25.4121 215.711 25.2918 215.488 25.0856C215.196 24.7075 214.802 24.4068 214.304 24.1834C213.824 23.96 213.266 23.8483 212.631 23.8483C212.374 23.8483 212.09 23.8827 211.782 23.9514C211.49 24.003 211.233 24.1319 211.009 24.3381C210.786 24.5271 210.675 24.8364 210.675 25.266C210.675 25.6613 210.804 25.9792 211.061 26.2198C211.318 26.4432 211.661 26.6322 212.09 26.7869C212.537 26.9243 213.009 27.0618 213.506 27.1993C214.021 27.3368 214.544 27.5 215.076 27.689C215.608 27.8781 216.097 28.1272 216.543 28.4366C216.989 28.7459 217.35 29.1497 217.624 29.6481C217.899 30.1292 218.036 30.7479 218.036 31.504C218.036 32.3804 217.779 33.1279 217.264 33.7465C216.749 34.3652 216.106 34.8378 215.334 35.1643C214.561 35.4736 213.772 35.6282 212.966 35.6282C211.953 35.6282 210.941 35.4564 209.928 35.1127C208.916 34.7518 208.075 34.1246 207.406 33.231Z"/>
</mask>
<path d="M68.2651 21.3222C69.5006 21.3222 70.4358 21.5886 71.0707 22.1213C71.7227 22.654 72.1689 23.3672 72.4091 24.2607C72.6493 25.1372 72.7694 26.1167 72.7694 27.1993V33.7981C72.7694 34.2449 72.6236 34.6229 72.3319 34.9323C72.0402 35.2244 71.6712 35.3705 71.2251 35.3705C70.7789 35.3705 70.41 35.2244 70.1183 34.9323C69.8266 34.6229 69.6808 34.2449 69.6808 33.7981V27.1993C69.6808 26.6322 69.6121 26.1253 69.4748 25.6785C69.3376 25.2145 69.0888 24.845 68.7284 24.5701C68.3681 24.2951 67.8533 24.1576 67.1841 24.1576C66.532 24.1576 65.9743 24.2951 65.511 24.5701C65.0477 24.845 64.696 25.2145 64.4557 25.6785C64.2327 26.1253 64.1211 26.6322 64.1211 27.1993V33.7981C64.1211 34.2449 63.9753 34.6229 63.6836 34.9323C63.3919 35.2244 63.0229 35.3705 62.5768 35.3705C62.1307 35.3705 61.7617 35.2244 61.47 34.9323C61.1783 34.6229 61.0325 34.2449 61.0325 33.7981V17.8681C61.0325 17.4214 61.1783 17.0519 61.47 16.7598C61.7617 16.4504 62.1307 16.2958 62.5768 16.2958C63.0229 16.2958 63.3919 16.4504 63.6836 16.7598C63.9753 17.0519 64.1211 17.4214 64.1211 17.8681V24.2607L63.7351 24.1834C63.8895 23.8913 64.104 23.582 64.3785 23.2555C64.6531 22.9118 64.9877 22.5939 65.3824 22.3017C65.777 22.0096 66.2146 21.7776 66.695 21.6058C67.1755 21.4167 67.6989 21.3222 68.2651 21.3222Z" fill="url(#paint1_linear_98_17)"/>
<path d="M87.3875 21.3222C87.8337 21.3222 88.2026 21.4683 88.4943 21.7604C88.786 22.0526 88.9319 22.4306 88.9319 22.8946V33.7981C88.9319 34.2449 88.786 34.6229 88.4943 34.9323C88.2026 35.2244 87.8337 35.3705 87.3875 35.3705C86.9414 35.3705 86.5725 35.2244 86.2808 34.9323C85.9891 34.6229 85.8432 34.2449 85.8432 33.7981V32.535L86.4095 32.767C86.4095 32.9904 86.2893 33.2654 86.0491 33.5919C85.8089 33.9012 85.4829 34.2105 85.071 34.5198C84.6592 34.8292 84.1702 35.0955 83.6039 35.3189C83.0548 35.5251 82.4542 35.6282 81.8022 35.6282C80.6182 35.6282 79.5457 35.3275 78.5848 34.7261C77.6239 34.1074 76.8603 33.2654 76.2941 32.1999C75.745 31.1173 75.4704 29.8801 75.4704 28.4881C75.4704 27.079 75.745 25.8417 76.2941 24.7763C76.8603 23.6937 77.6153 22.8516 78.5591 22.2502C79.5028 21.6315 80.5496 21.3222 81.6992 21.3222C82.4371 21.3222 83.1149 21.4339 83.7326 21.6573C84.3503 21.8807 84.8823 22.1643 85.3284 22.5079C85.7917 22.8516 86.1435 23.2039 86.3837 23.5648C86.6411 23.9085 86.7698 24.2006 86.7698 24.4412L85.8432 24.7763V22.8946C85.8432 22.4478 85.9891 22.0783 86.2808 21.7862C86.5725 21.4769 86.9414 21.3222 87.3875 21.3222ZM82.1883 32.7928C82.9433 32.7928 83.6039 32.6038 84.1702 32.2257C84.7364 31.8477 85.174 31.3321 85.4829 30.6791C85.8089 30.0261 85.9719 29.2958 85.9719 28.4881C85.9719 27.6633 85.8089 26.9243 85.4829 26.2713C85.174 25.6183 84.7364 25.1028 84.1702 24.7247C83.6039 24.3467 82.9433 24.1576 82.1883 24.1576C81.4504 24.1576 80.7984 24.3467 80.2321 24.7247C79.6659 25.1028 79.2197 25.6183 78.8937 26.2713C78.5848 26.9243 78.4304 27.6633 78.4304 28.4881C78.4304 29.2958 78.5848 30.0261 78.8937 30.6791C79.2197 31.3321 79.6659 31.8477 80.2321 32.2257C80.7984 32.6038 81.4504 32.7928 82.1883 32.7928Z" fill="url(#paint2_linear_98_17)"/>
<path d="M99.4058 21.3222C100.607 21.3222 101.679 21.6315 102.623 22.2502C103.584 22.8516 104.339 23.6851 104.888 24.7505C105.454 25.8159 105.738 27.0532 105.738 28.4623C105.738 29.8715 105.454 31.1173 104.888 32.1999C104.339 33.2654 103.593 34.1074 102.649 34.7261C101.722 35.3275 100.676 35.6282 99.5088 35.6282C98.8224 35.6282 98.1789 35.5165 97.5783 35.2931C96.9778 35.0697 96.4458 34.7862 95.9825 34.4425C95.5364 34.0988 95.1846 33.7551 94.9272 33.4114C94.687 33.0506 94.5669 32.7498 94.5669 32.5093L95.3648 32.1742V38.9534C95.3648 39.4002 95.2189 39.7697 94.9272 40.0618C94.6355 40.3711 94.2666 40.5258 93.8205 40.5258C93.3743 40.5258 93.0054 40.3797 92.7137 40.0876C92.422 39.7955 92.2761 39.4174 92.2761 38.9534V23.1524C92.2761 22.7056 92.422 22.3361 92.7137 22.044C93.0054 21.7346 93.3743 21.58 93.8205 21.58C94.2666 21.58 94.6355 21.7346 94.9272 22.044C95.2189 22.3361 95.3648 22.7056 95.3648 23.1524V24.4154L94.9272 24.1834C94.9272 23.96 95.0474 23.6937 95.2876 23.3843C95.5278 23.0578 95.8538 22.7399 96.2657 22.4306C96.6775 22.1041 97.1494 21.8377 97.6813 21.6315C98.2304 21.4253 98.8052 21.3222 99.4058 21.3222ZM99.0197 24.1576C98.2647 24.1576 97.6041 24.3467 97.0378 24.7247C96.4716 25.1028 96.0254 25.6183 95.6994 26.2713C95.3905 26.9071 95.2361 27.6375 95.2361 28.4623C95.2361 29.27 95.3905 30.0089 95.6994 30.6791C96.0254 31.3321 96.4716 31.8477 97.0378 32.2257C97.6041 32.6038 98.2647 32.7928 99.0197 32.7928C99.7747 32.7928 100.427 32.6038 100.976 32.2257C101.542 31.8477 101.98 31.3321 102.289 30.6791C102.615 30.0089 102.778 29.27 102.778 28.4623C102.778 27.6375 102.615 26.9071 102.289 26.2713C101.98 25.6183 101.542 25.1028 100.976 24.7247C100.427 24.3467 99.7747 24.1576 99.0197 24.1576Z" fill="url(#paint3_linear_98_17)"/>
<path d="M115.568 21.3222C116.769 21.3222 117.842 21.6315 118.785 22.2502C119.746 22.8516 120.501 23.6851 121.05 24.7505C121.617 25.8159 121.9 27.0532 121.9 28.4623C121.9 29.8715 121.617 31.1173 121.05 32.1999C120.501 33.2654 119.755 34.1074 118.811 34.7261C117.885 35.3275 116.838 35.6282 115.671 35.6282C114.985 35.6282 114.341 35.5165 113.741 35.2931C113.14 35.0697 112.608 34.7862 112.145 34.4425C111.699 34.0988 111.347 33.7551 111.089 33.4114C110.849 33.0506 110.729 32.7498 110.729 32.5093L111.527 32.1742V38.9534C111.527 39.4002 111.381 39.7697 111.089 40.0618C110.798 40.3711 110.429 40.5258 109.983 40.5258C109.537 40.5258 109.168 40.3797 108.876 40.0876C108.584 39.7955 108.438 39.4174 108.438 38.9534V23.1524C108.438 22.7056 108.584 22.3361 108.876 22.044C109.168 21.7346 109.537 21.58 109.983 21.58C110.429 21.58 110.798 21.7346 111.089 22.044C111.381 22.3361 111.527 22.7056 111.527 23.1524V24.4154L111.089 24.1834C111.089 23.96 111.21 23.6937 111.45 23.3843C111.69 23.0578 112.016 22.7399 112.428 22.4306C112.84 22.1041 113.312 21.8377 113.844 21.6315C114.393 21.4253 114.967 21.3222 115.568 21.3222ZM115.182 24.1576C114.427 24.1576 113.766 24.3467 113.2 24.7247C112.634 25.1028 112.188 25.6183 111.862 26.2713C111.553 26.9071 111.398 27.6375 111.398 28.4623C111.398 29.27 111.553 30.0089 111.862 30.6791C112.188 31.3321 112.634 31.8477 113.2 32.2257C113.766 32.6038 114.427 32.7928 115.182 32.7928C115.937 32.7928 116.589 32.6038 117.138 32.2257C117.704 31.8477 118.142 31.3321 118.451 30.6791C118.777 30.0089 118.94 29.27 118.94 28.4623C118.94 27.6375 118.777 26.9071 118.451 26.2713C118.142 25.6183 117.704 25.1028 117.138 24.7247C116.589 24.3467 115.937 24.1576 115.182 24.1576Z" fill="url(#paint4_linear_98_17)"/>
<path d="M134.819 21.58C135.265 21.58 135.634 21.7346 135.926 22.044C136.217 22.3361 136.363 22.7056 136.363 23.1524V34.1074C136.363 35.6884 136.063 36.9428 135.462 37.8708C134.879 38.8159 134.09 39.4947 133.094 39.9072C132.099 40.3196 130.984 40.5258 129.748 40.5258C129.199 40.5258 128.616 40.4828 127.998 40.3969C127.38 40.311 126.874 40.1821 126.48 40.0103C125.965 39.7869 125.604 39.5033 125.399 39.1596C125.21 38.8331 125.175 38.4808 125.296 38.1028C125.45 37.6044 125.699 37.2608 126.042 37.0717C126.385 36.8999 126.746 36.8827 127.123 37.0202C127.398 37.1061 127.758 37.235 128.204 37.4068C128.65 37.5959 129.165 37.6904 129.748 37.6904C130.538 37.6904 131.19 37.5787 131.705 37.3553C132.237 37.1491 132.631 36.7882 132.889 36.2727C133.163 35.7743 133.3 35.0869 133.3 34.2105V32.4835L133.841 33.1021C133.549 33.6692 133.18 34.1418 132.734 34.5198C132.305 34.8807 131.79 35.1557 131.19 35.3447C130.589 35.5337 129.903 35.6282 129.131 35.6282C128.221 35.6282 127.423 35.422 126.737 35.0096C126.068 34.58 125.544 33.9957 125.167 33.2568C124.789 32.5007 124.601 31.6415 124.601 30.6791V23.1524C124.601 22.7056 124.746 22.3361 125.038 22.044C125.33 21.7346 125.699 21.58 126.145 21.58C126.591 21.58 126.96 21.7346 127.252 22.044C127.543 22.3361 127.689 22.7056 127.689 23.1524V29.7512C127.689 30.8682 127.93 31.6586 128.41 32.1226C128.908 32.5694 129.594 32.7928 130.469 32.7928C131.07 32.7928 131.576 32.6811 131.988 32.4577C132.4 32.2171 132.717 31.8734 132.94 31.4266C133.163 30.9627 133.275 30.4042 133.275 29.7512V23.1524C133.275 22.7056 133.42 22.3361 133.712 22.044C134.004 21.7346 134.373 21.58 134.819 21.58Z" fill="url(#paint5_linear_98_17)"/>
<path d="M150.988 21.3222C151.966 21.3222 152.815 21.4253 153.536 21.6315C154.274 21.8377 154.84 22.1299 155.235 22.5079C155.647 22.8688 155.853 23.307 155.853 23.8225C155.853 24.1662 155.75 24.4927 155.544 24.8021C155.338 25.0942 155.037 25.2403 154.643 25.2403C154.368 25.2403 154.137 25.2059 153.948 25.1372C153.776 25.0512 153.622 24.9481 153.485 24.8278C153.347 24.7075 153.184 24.5958 152.995 24.4927C152.824 24.3896 152.558 24.3123 152.198 24.2607C151.854 24.192 151.597 24.1576 151.425 24.1576C150.55 24.1576 149.804 24.3467 149.186 24.7247C148.586 25.1028 148.122 25.6183 147.796 26.2713C147.47 26.9071 147.307 27.6461 147.307 28.4881C147.307 29.313 147.47 30.0519 147.796 30.7049C148.139 31.3407 148.603 31.8477 149.186 32.2257C149.787 32.6038 150.473 32.7928 151.245 32.7928C151.674 32.7928 152.043 32.767 152.352 32.7155C152.661 32.6639 152.918 32.5866 153.124 32.4835C153.364 32.346 153.579 32.1999 153.768 32.0453C153.956 31.8906 154.24 31.8133 154.617 31.8133C155.063 31.8133 155.406 31.9594 155.647 32.2515C155.887 32.5265 156.007 32.8701 156.007 33.2826C156.007 33.7122 155.767 34.1074 155.286 34.4683C154.806 34.812 154.171 35.0955 153.382 35.3189C152.609 35.5251 151.769 35.6282 150.859 35.6282C149.504 35.6282 148.328 35.3189 147.333 34.7003C146.338 34.0645 145.566 33.2052 145.016 32.1226C144.484 31.04 144.219 29.8285 144.219 28.4881C144.219 27.079 144.502 25.8417 145.068 24.7763C145.651 23.6937 146.449 22.8516 147.462 22.2502C148.491 21.6315 149.667 21.3222 150.988 21.3222Z" fill="url(#paint6_linear_98_17)"/>
<path d="M171.593 28.4881C171.593 29.8972 171.275 31.1431 170.64 32.2257C170.023 33.2912 169.182 34.1246 168.118 34.7261C167.071 35.3275 165.896 35.6282 164.592 35.6282C163.288 35.6282 162.104 35.3275 161.04 34.7261C159.993 34.1246 159.152 33.2912 158.517 32.2257C157.9 31.1431 157.591 29.8972 157.591 28.4881C157.591 27.079 157.9 25.8417 158.517 24.7763C159.152 23.6937 159.993 22.8516 161.04 22.2502C162.104 21.6315 163.288 21.3222 164.592 21.3222C165.896 21.3222 167.071 21.6315 168.118 22.2502C169.182 22.8516 170.023 23.6937 170.64 24.7763C171.275 25.8417 171.593 27.079 171.593 28.4881ZM168.504 28.4881C168.504 27.6117 168.324 26.8556 167.963 26.2198C167.62 25.5668 167.148 25.0598 166.548 24.699C165.964 24.3381 165.312 24.1576 164.592 24.1576C163.871 24.1576 163.21 24.3381 162.61 24.699C162.026 25.0598 161.554 25.5668 161.194 26.2198C160.851 26.8556 160.679 27.6117 160.679 28.4881C160.679 29.3473 160.851 30.1034 161.194 30.7565C161.554 31.3923 162.026 31.8906 162.61 32.2515C163.21 32.6124 163.871 32.7928 164.592 32.7928C165.312 32.7928 165.964 32.6124 166.548 32.2515C167.148 31.8906 167.62 31.3923 167.963 30.7565C168.324 30.1034 168.504 29.3473 168.504 28.4881Z" fill="url(#paint7_linear_98_17)"/>
<path d="M177.642 33.7981C177.642 34.2449 177.488 34.6229 177.179 34.9323C176.887 35.2244 176.518 35.3705 176.072 35.3705C175.643 35.3705 175.283 35.2244 174.991 34.9323C174.699 34.6229 174.553 34.2449 174.553 33.7981V17.8681C174.553 17.4214 174.699 17.0519 174.991 16.7598C175.3 16.4504 175.677 16.2958 176.123 16.2958C176.569 16.2958 176.93 16.4504 177.204 16.7598C177.496 17.0519 177.642 17.4214 177.642 17.8681V33.7981Z" fill="url(#paint8_linear_98_17)"/>
<path d="M194.34 28.4881C194.34 29.8972 194.023 31.1431 193.388 32.2257C192.77 33.2912 191.93 34.1246 190.866 34.7261C189.819 35.3275 188.644 35.6282 187.339 35.6282C186.035 35.6282 184.851 35.3275 183.788 34.7261C182.741 34.1246 181.9 33.2912 181.265 32.2257C180.647 31.1431 180.338 29.8972 180.338 28.4881C180.338 27.079 180.647 25.8417 181.265 24.7763C181.9 23.6937 182.741 22.8516 183.788 22.2502C184.851 21.6315 186.035 21.3222 187.339 21.3222C188.644 21.3222 189.819 21.6315 190.866 22.2502C191.93 22.8516 192.77 23.6937 193.388 24.7763C194.023 25.8417 194.34 27.079 194.34 28.4881ZM191.252 28.4881C191.252 27.6117 191.072 26.8556 190.711 26.2198C190.368 25.5668 189.896 25.0598 189.296 24.699C188.712 24.3381 188.06 24.1576 187.339 24.1576C186.619 24.1576 185.958 24.3381 185.358 24.699C184.774 25.0598 184.302 25.5668 183.942 26.2198C183.599 26.8556 183.427 27.6117 183.427 28.4881C183.427 29.3473 183.599 30.1034 183.942 30.7565C184.302 31.3923 184.774 31.8906 185.358 32.2515C185.958 32.6124 186.619 32.7928 187.339 32.7928C188.06 32.7928 188.712 32.6124 189.296 32.2515C189.896 31.8906 190.368 31.3923 190.711 30.7565C191.072 30.1034 191.252 29.3473 191.252 28.4881Z" fill="url(#paint9_linear_98_17)"/>
<path d="M198.588 35.3705C198.142 35.3705 197.773 35.2244 197.481 34.9323C197.19 34.6229 197.044 34.2449 197.044 33.7981V23.1524C197.044 22.7056 197.19 22.3361 197.481 22.044C197.773 21.7346 198.142 21.58 198.588 21.58C199.034 21.58 199.403 21.7346 199.695 22.044C199.986 22.3361 200.132 22.7056 200.132 23.1524V25.5754L199.952 23.8483C200.141 23.4359 200.381 23.075 200.673 22.7657C200.982 22.4392 201.325 22.1728 201.702 21.9666C202.08 21.7432 202.483 21.58 202.912 21.4769C203.341 21.3738 203.77 21.3222 204.199 21.3222C204.714 21.3222 205.143 21.4683 205.486 21.7604C205.846 22.0526 206.027 22.3962 206.027 22.7915C206.027 23.3586 205.881 23.771 205.589 24.0288C205.297 24.2693 204.98 24.3896 204.637 24.3896C204.311 24.3896 204.01 24.3295 203.736 24.2092C203.478 24.0889 203.178 24.0288 202.835 24.0288C202.526 24.0288 202.209 24.1061 201.883 24.2607C201.574 24.3982 201.282 24.6216 201.007 24.9309C200.75 25.2403 200.536 25.6269 200.364 26.0909C200.21 26.5377 200.132 27.0704 200.132 27.689V33.7981C200.132 34.2449 199.986 34.6229 199.695 34.9323C199.403 35.2244 199.034 35.3705 198.588 35.3705Z" fill="url(#paint10_linear_98_17)"/>
<path d="M207.406 33.231C207.234 32.9904 207.157 32.6811 207.174 32.3031C207.192 31.925 207.415 31.5985 207.844 31.3235C208.118 31.1517 208.41 31.083 208.719 31.1173C209.028 31.1345 209.328 31.2892 209.62 31.5813C210.117 32.0797 210.641 32.4663 211.19 32.7413C211.739 33.0162 212.425 33.1537 213.249 33.1537C213.506 33.1365 213.789 33.1021 214.098 33.0506C214.407 32.9818 214.673 32.8444 214.896 32.6381C215.136 32.4148 215.256 32.0797 215.256 31.6329C215.256 31.2548 215.128 30.9541 214.87 30.7307C214.613 30.5073 214.27 30.3183 213.841 30.1636C213.429 30.0089 212.966 29.8629 212.451 29.7254C211.919 29.5707 211.37 29.3989 210.804 29.2099C210.254 29.0208 209.748 28.7802 209.285 28.4881C208.822 28.1788 208.444 27.775 208.152 27.2766C207.861 26.7783 207.715 26.151 207.715 25.3949C207.715 24.5357 207.955 23.8054 208.436 23.2039C208.916 22.6025 209.534 22.1385 210.289 21.812C211.061 21.4855 211.867 21.3222 212.708 21.3222C213.24 21.3222 213.798 21.391 214.381 21.5284C214.965 21.6487 215.522 21.8549 216.054 22.1471C216.586 22.422 217.032 22.7915 217.393 23.2555C217.581 23.5132 217.693 23.8225 217.727 24.1834C217.762 24.5443 217.599 24.8708 217.238 25.1629C216.981 25.3691 216.681 25.4637 216.337 25.4465C215.994 25.4121 215.711 25.2918 215.488 25.0856C215.196 24.7075 214.802 24.4068 214.304 24.1834C213.824 23.96 213.266 23.8483 212.631 23.8483C212.374 23.8483 212.09 23.8827 211.782 23.9514C211.49 24.003 211.233 24.1319 211.009 24.3381C210.786 24.5271 210.675 24.8364 210.675 25.266C210.675 25.6613 210.804 25.9792 211.061 26.2198C211.318 26.4432 211.661 26.6322 212.09 26.7869C212.537 26.9243 213.009 27.0618 213.506 27.1993C214.021 27.3368 214.544 27.5 215.076 27.689C215.608 27.8781 216.097 28.1272 216.543 28.4366C216.989 28.7459 217.35 29.1497 217.624 29.6481C217.899 30.1292 218.036 30.7479 218.036 31.504C218.036 32.3804 217.779 33.1279 217.264 33.7465C216.749 34.3652 216.106 34.8378 215.334 35.1643C214.561 35.4736 213.772 35.6282 212.966 35.6282C211.953 35.6282 210.941 35.4564 209.928 35.1127C208.916 34.7518 208.075 34.1246 207.406 33.231Z" fill="url(#paint11_linear_98_17)"/>
<path d="M68.2651 21.3222C69.5006 21.3222 70.4358 21.5886 71.0707 22.1213C71.7227 22.654 72.1689 23.3672 72.4091 24.2607C72.6493 25.1372 72.7694 26.1167 72.7694 27.1993V33.7981C72.7694 34.2449 72.6236 34.6229 72.3319 34.9323C72.0402 35.2244 71.6712 35.3705 71.2251 35.3705C70.7789 35.3705 70.41 35.2244 70.1183 34.9323C69.8266 34.6229 69.6808 34.2449 69.6808 33.7981V27.1993C69.6808 26.6322 69.6121 26.1253 69.4748 25.6785C69.3376 25.2145 69.0888 24.845 68.7284 24.5701C68.3681 24.2951 67.8533 24.1576 67.1841 24.1576C66.532 24.1576 65.9743 24.2951 65.511 24.5701C65.0477 24.845 64.696 25.2145 64.4557 25.6785C64.2327 26.1253 64.1211 26.6322 64.1211 27.1993V33.7981C64.1211 34.2449 63.9753 34.6229 63.6836 34.9323C63.3919 35.2244 63.0229 35.3705 62.5768 35.3705C62.1307 35.3705 61.7617 35.2244 61.47 34.9323C61.1783 34.6229 61.0325 34.2449 61.0325 33.7981V17.8681C61.0325 17.4214 61.1783 17.0519 61.47 16.7598C61.7617 16.4504 62.1307 16.2958 62.5768 16.2958C63.0229 16.2958 63.3919 16.4504 63.6836 16.7598C63.9753 17.0519 64.1211 17.4214 64.1211 17.8681V24.2607L63.7351 24.1834C63.8895 23.8913 64.104 23.582 64.3785 23.2555C64.6531 22.9118 64.9877 22.5939 65.3824 22.3017C65.777 22.0096 66.2146 21.7776 66.695 21.6058C67.1755 21.4167 67.6989 21.3222 68.2651 21.3222Z" stroke="black" mask="url(#path-3-outside-1_98_17)"/>
<path d="M87.3875 21.3222C87.8337 21.3222 88.2026 21.4683 88.4943 21.7604C88.786 22.0526 88.9319 22.4306 88.9319 22.8946V33.7981C88.9319 34.2449 88.786 34.6229 88.4943 34.9323C88.2026 35.2244 87.8337 35.3705 87.3875 35.3705C86.9414 35.3705 86.5725 35.2244 86.2808 34.9323C85.9891 34.6229 85.8432 34.2449 85.8432 33.7981V32.535L86.4095 32.767C86.4095 32.9904 86.2893 33.2654 86.0491 33.5919C85.8089 33.9012 85.4829 34.2105 85.071 34.5198C84.6592 34.8292 84.1702 35.0955 83.6039 35.3189C83.0548 35.5251 82.4542 35.6282 81.8022 35.6282C80.6182 35.6282 79.5457 35.3275 78.5848 34.7261C77.6239 34.1074 76.8603 33.2654 76.2941 32.1999C75.745 31.1173 75.4704 29.8801 75.4704 28.4881C75.4704 27.079 75.745 25.8417 76.2941 24.7763C76.8603 23.6937 77.6153 22.8516 78.5591 22.2502C79.5028 21.6315 80.5496 21.3222 81.6992 21.3222C82.4371 21.3222 83.1149 21.4339 83.7326 21.6573C84.3503 21.8807 84.8823 22.1643 85.3284 22.5079C85.7917 22.8516 86.1435 23.2039 86.3837 23.5648C86.6411 23.9085 86.7698 24.2006 86.7698 24.4412L85.8432 24.7763V22.8946C85.8432 22.4478 85.9891 22.0783 86.2808 21.7862C86.5725 21.4769 86.9414 21.3222 87.3875 21.3222ZM82.1883 32.7928C82.9433 32.7928 83.6039 32.6038 84.1702 32.2257C84.7364 31.8477 85.174 31.3321 85.4829 30.6791C85.8089 30.0261 85.9719 29.2958 85.9719 28.4881C85.9719 27.6633 85.8089 26.9243 85.4829 26.2713C85.174 25.6183 84.7364 25.1028 84.1702 24.7247C83.6039 24.3467 82.9433 24.1576 82.1883 24.1576C81.4504 24.1576 80.7984 24.3467 80.2321 24.7247C79.6659 25.1028 79.2197 25.6183 78.8937 26.2713C78.5848 26.9243 78.4304 27.6633 78.4304 28.4881C78.4304 29.2958 78.5848 30.0261 78.8937 30.6791C79.2197 31.3321 79.6659 31.8477 80.2321 32.2257C80.7984 32.6038 81.4504 32.7928 82.1883 32.7928Z" stroke="black" mask="url(#path-3-outside-1_98_17)"/>
<path d="M99.4058 21.3222C100.607 21.3222 101.679 21.6315 102.623 22.2502C103.584 22.8516 104.339 23.6851 104.888 24.7505C105.454 25.8159 105.738 27.0532 105.738 28.4623C105.738 29.8715 105.454 31.1173 104.888 32.1999C104.339 33.2654 103.593 34.1074 102.649 34.7261C101.722 35.3275 100.676 35.6282 99.5088 35.6282C98.8224 35.6282 98.1789 35.5165 97.5783 35.2931C96.9778 35.0697 96.4458 34.7862 95.9825 34.4425C95.5364 34.0988 95.1846 33.7551 94.9272 33.4114C94.687 33.0506 94.5669 32.7498 94.5669 32.5093L95.3648 32.1742V38.9534C95.3648 39.4002 95.2189 39.7697 94.9272 40.0618C94.6355 40.3711 94.2666 40.5258 93.8205 40.5258C93.3743 40.5258 93.0054 40.3797 92.7137 40.0876C92.422 39.7955 92.2761 39.4174 92.2761 38.9534V23.1524C92.2761 22.7056 92.422 22.3361 92.7137 22.044C93.0054 21.7346 93.3743 21.58 93.8205 21.58C94.2666 21.58 94.6355 21.7346 94.9272 22.044C95.2189 22.3361 95.3648 22.7056 95.3648 23.1524V24.4154L94.9272 24.1834C94.9272 23.96 95.0474 23.6937 95.2876 23.3843C95.5278 23.0578 95.8538 22.7399 96.2657 22.4306C96.6775 22.1041 97.1494 21.8377 97.6813 21.6315C98.2304 21.4253 98.8052 21.3222 99.4058 21.3222ZM99.0197 24.1576C98.2647 24.1576 97.6041 24.3467 97.0378 24.7247C96.4716 25.1028 96.0254 25.6183 95.6994 26.2713C95.3905 26.9071 95.2361 27.6375 95.2361 28.4623C95.2361 29.27 95.3905 30.0089 95.6994 30.6791C96.0254 31.3321 96.4716 31.8477 97.0378 32.2257C97.6041 32.6038 98.2647 32.7928 99.0197 32.7928C99.7747 32.7928 100.427 32.6038 100.976 32.2257C101.542 31.8477 101.98 31.3321 102.289 30.6791C102.615 30.0089 102.778 29.27 102.778 28.4623C102.778 27.6375 102.615 26.9071 102.289 26.2713C101.98 25.6183 101.542 25.1028 100.976 24.7247C100.427 24.3467 99.7747 24.1576 99.0197 24.1576Z" stroke="black" mask="url(#path-3-outside-1_98_17)"/>
<path d="M115.568 21.3222C116.769 21.3222 117.842 21.6315 118.785 22.2502C119.746 22.8516 120.501 23.6851 121.05 24.7505C121.617 25.8159 121.9 27.0532 121.9 28.4623C121.9 29.8715 121.617 31.1173 121.05 32.1999C120.501 33.2654 119.755 34.1074 118.811 34.7261C117.885 35.3275 116.838 35.6282 115.671 35.6282C114.985 35.6282 114.341 35.5165 113.741 35.2931C113.14 35.0697 112.608 34.7862 112.145 34.4425C111.699 34.0988 111.347 33.7551 111.089 33.4114C110.849 33.0506 110.729 32.7498 110.729 32.5093L111.527 32.1742V38.9534C111.527 39.4002 111.381 39.7697 111.089 40.0618C110.798 40.3711 110.429 40.5258 109.983 40.5258C109.537 40.5258 109.168 40.3797 108.876 40.0876C108.584 39.7955 108.438 39.4174 108.438 38.9534V23.1524C108.438 22.7056 108.584 22.3361 108.876 22.044C109.168 21.7346 109.537 21.58 109.983 21.58C110.429 21.58 110.798 21.7346 111.089 22.044C111.381 22.3361 111.527 22.7056 111.527 23.1524V24.4154L111.089 24.1834C111.089 23.96 111.21 23.6937 111.45 23.3843C111.69 23.0578 112.016 22.7399 112.428 22.4306C112.84 22.1041 113.312 21.8377 113.844 21.6315C114.393 21.4253 114.967 21.3222 115.568 21.3222ZM115.182 24.1576C114.427 24.1576 113.766 24.3467 113.2 24.7247C112.634 25.1028 112.188 25.6183 111.862 26.2713C111.553 26.9071 111.398 27.6375 111.398 28.4623C111.398 29.27 111.553 30.0089 111.862 30.6791C112.188 31.3321 112.634 31.8477 113.2 32.2257C113.766 32.6038 114.427 32.7928 115.182 32.7928C115.937 32.7928 116.589 32.6038 117.138 32.2257C117.704 31.8477 118.142 31.3321 118.451 30.6791C118.777 30.0089 118.94 29.27 118.94 28.4623C118.94 27.6375 118.777 26.9071 118.451 26.2713C118.142 25.6183 117.704 25.1028 117.138 24.7247C116.589 24.3467 115.937 24.1576 115.182 24.1576Z" stroke="black" mask="url(#path-3-outside-1_98_17)"/>
<path d="M134.819 21.58C135.265 21.58 135.634 21.7346 135.926 22.044C136.217 22.3361 136.363 22.7056 136.363 23.1524V34.1074C136.363 35.6884 136.063 36.9428 135.462 37.8708C134.879 38.8159 134.09 39.4947 133.094 39.9072C132.099 40.3196 130.984 40.5258 129.748 40.5258C129.199 40.5258 128.616 40.4828 127.998 40.3969C127.38 40.311 126.874 40.1821 126.48 40.0103C125.965 39.7869 125.604 39.5033 125.399 39.1596C125.21 38.8331 125.175 38.4808 125.296 38.1028C125.45 37.6044 125.699 37.2608 126.042 37.0717C126.385 36.8999 126.746 36.8827 127.123 37.0202C127.398 37.1061 127.758 37.235 128.204 37.4068C128.65 37.5959 129.165 37.6904 129.748 37.6904C130.538 37.6904 131.19 37.5787 131.705 37.3553C132.237 37.1491 132.631 36.7882 132.889 36.2727C133.163 35.7743 133.3 35.0869 133.3 34.2105V32.4835L133.841 33.1021C133.549 33.6692 133.18 34.1418 132.734 34.5198C132.305 34.8807 131.79 35.1557 131.19 35.3447C130.589 35.5337 129.903 35.6282 129.131 35.6282C128.221 35.6282 127.423 35.422 126.737 35.0096C126.068 34.58 125.544 33.9957 125.167 33.2568C124.789 32.5007 124.601 31.6415 124.601 30.6791V23.1524C124.601 22.7056 124.746 22.3361 125.038 22.044C125.33 21.7346 125.699 21.58 126.145 21.58C126.591 21.58 126.96 21.7346 127.252 22.044C127.543 22.3361 127.689 22.7056 127.689 23.1524V29.7512C127.689 30.8682 127.93 31.6586 128.41 32.1226C128.908 32.5694 129.594 32.7928 130.469 32.7928C131.07 32.7928 131.576 32.6811 131.988 32.4577C132.4 32.2171 132.717 31.8734 132.94 31.4266C133.163 30.9627 133.275 30.4042 133.275 29.7512V23.1524C133.275 22.7056 133.42 22.3361 133.712 22.044C134.004 21.7346 134.373 21.58 134.819 21.58Z" stroke="black" mask="url(#path-3-outside-1_98_17)"/>
<path d="M150.988 21.3222C151.966 21.3222 152.815 21.4253 153.536 21.6315C154.274 21.8377 154.84 22.1299 155.235 22.5079C155.647 22.8688 155.853 23.307 155.853 23.8225C155.853 24.1662 155.75 24.4927 155.544 24.8021C155.338 25.0942 155.037 25.2403 154.643 25.2403C154.368 25.2403 154.137 25.2059 153.948 25.1372C153.776 25.0512 153.622 24.9481 153.485 24.8278C153.347 24.7075 153.184 24.5958 152.995 24.4927C152.824 24.3896 152.558 24.3123 152.198 24.2607C151.854 24.192 151.597 24.1576 151.425 24.1576C150.55 24.1576 149.804 24.3467 149.186 24.7247C148.586 25.1028 148.122 25.6183 147.796 26.2713C147.47 26.9071 147.307 27.6461 147.307 28.4881C147.307 29.313 147.47 30.0519 147.796 30.7049C148.139 31.3407 148.603 31.8477 149.186 32.2257C149.787 32.6038 150.473 32.7928 151.245 32.7928C151.674 32.7928 152.043 32.767 152.352 32.7155C152.661 32.6639 152.918 32.5866 153.124 32.4835C153.364 32.346 153.579 32.1999 153.768 32.0453C153.956 31.8906 154.24 31.8133 154.617 31.8133C155.063 31.8133 155.406 31.9594 155.647 32.2515C155.887 32.5265 156.007 32.8701 156.007 33.2826C156.007 33.7122 155.767 34.1074 155.286 34.4683C154.806 34.812 154.171 35.0955 153.382 35.3189C152.609 35.5251 151.769 35.6282 150.859 35.6282C149.504 35.6282 148.328 35.3189 147.333 34.7003C146.338 34.0645 145.566 33.2052 145.016 32.1226C144.484 31.04 144.219 29.8285 144.219 28.4881C144.219 27.079 144.502 25.8417 145.068 24.7763C145.651 23.6937 146.449 22.8516 147.462 22.2502C148.491 21.6315 149.667 21.3222 150.988 21.3222Z" stroke="black" mask="url(#path-3-outside-1_98_17)"/>
<path d="M171.593 28.4881C171.593 29.8972 171.275 31.1431 170.64 32.2257C170.023 33.2912 169.182 34.1246 168.118 34.7261C167.071 35.3275 165.896 35.6282 164.592 35.6282C163.288 35.6282 162.104 35.3275 161.04 34.7261C159.993 34.1246 159.152 33.2912 158.517 32.2257C157.9 31.1431 157.591 29.8972 157.591 28.4881C157.591 27.079 157.9 25.8417 158.517 24.7763C159.152 23.6937 159.993 22.8516 161.04 22.2502C162.104 21.6315 163.288 21.3222 164.592 21.3222C165.896 21.3222 167.071 21.6315 168.118 22.2502C169.182 22.8516 170.023 23.6937 170.64 24.7763C171.275 25.8417 171.593 27.079 171.593 28.4881ZM168.504 28.4881C168.504 27.6117 168.324 26.8556 167.963 26.2198C167.62 25.5668 167.148 25.0598 166.548 24.699C165.964 24.3381 165.312 24.1576 164.592 24.1576C163.871 24.1576 163.21 24.3381 162.61 24.699C162.026 25.0598 161.554 25.5668 161.194 26.2198C160.851 26.8556 160.679 27.6117 160.679 28.4881C160.679 29.3473 160.851 30.1034 161.194 30.7565C161.554 31.3923 162.026 31.8906 162.61 32.2515C163.21 32.6124 163.871 32.7928 164.592 32.7928C165.312 32.7928 165.964 32.6124 166.548 32.2515C167.148 31.8906 167.62 31.3923 167.963 30.7565C168.324 30.1034 168.504 29.3473 168.504 28.4881Z" stroke="black" mask="url(#path-3-outside-1_98_17)"/>
<path d="M177.642 33.7981C177.642 34.2449 177.488 34.6229 177.179 34.9323C176.887 35.2244 176.518 35.3705 176.072 35.3705C175.643 35.3705 175.283 35.2244 174.991 34.9323C174.699 34.6229 174.553 34.2449 174.553 33.7981V17.8681C174.553 17.4214 174.699 17.0519 174.991 16.7598C175.3 16.4504 175.677 16.2958 176.123 16.2958C176.569 16.2958 176.93 16.4504 177.204 16.7598C177.496 17.0519 177.642 17.4214 177.642 17.8681V33.7981Z" stroke="black" mask="url(#path-3-outside-1_98_17)"/>
<path d="M194.34 28.4881C194.34 29.8972 194.023 31.1431 193.388 32.2257C192.77 33.2912 191.93 34.1246 190.866 34.7261C189.819 35.3275 188.644 35.6282 187.339 35.6282C186.035 35.6282 184.851 35.3275 183.788 34.7261C182.741 34.1246 181.9 33.2912 181.265 32.2257C180.647 31.1431 180.338 29.8972 180.338 28.4881C180.338 27.079 180.647 25.8417 181.265 24.7763C181.9 23.6937 182.741 22.8516 183.788 22.2502C184.851 21.6315 186.035 21.3222 187.339 21.3222C188.644 21.3222 189.819 21.6315 190.866 22.2502C191.93 22.8516 192.77 23.6937 193.388 24.7763C194.023 25.8417 194.34 27.079 194.34 28.4881ZM191.252 28.4881C191.252 27.6117 191.072 26.8556 190.711 26.2198C190.368 25.5668 189.896 25.0598 189.296 24.699C188.712 24.3381 188.06 24.1576 187.339 24.1576C186.619 24.1576 185.958 24.3381 185.358 24.699C184.774 25.0598 184.302 25.5668 183.942 26.2198C183.599 26.8556 183.427 27.6117 183.427 28.4881C183.427 29.3473 183.599 30.1034 183.942 30.7565C184.302 31.3923 184.774 31.8906 185.358 32.2515C185.958 32.6124 186.619 32.7928 187.339 32.7928C188.06 32.7928 188.712 32.6124 189.296 32.2515C189.896 31.8906 190.368 31.3923 190.711 30.7565C191.072 30.1034 191.252 29.3473 191.252 28.4881Z" stroke="black" mask="url(#path-3-outside-1_98_17)"/>
<path d="M198.588 35.3705C198.142 35.3705 197.773 35.2244 197.481 34.9323C197.19 34.6229 197.044 34.2449 197.044 33.7981V23.1524C197.044 22.7056 197.19 22.3361 197.481 22.044C197.773 21.7346 198.142 21.58 198.588 21.58C199.034 21.58 199.403 21.7346 199.695 22.044C199.986 22.3361 200.132 22.7056 200.132 23.1524V25.5754L199.952 23.8483C200.141 23.4359 200.381 23.075 200.673 22.7657C200.982 22.4392 201.325 22.1728 201.702 21.9666C202.08 21.7432 202.483 21.58 202.912 21.4769C203.341 21.3738 203.77 21.3222 204.199 21.3222C204.714 21.3222 205.143 21.4683 205.486 21.7604C205.846 22.0526 206.027 22.3962 206.027 22.7915C206.027 23.3586 205.881 23.771 205.589 24.0288C205.297 24.2693 204.98 24.3896 204.637 24.3896C204.311 24.3896 204.01 24.3295 203.736 24.2092C203.478 24.0889 203.178 24.0288 202.835 24.0288C202.526 24.0288 202.209 24.1061 201.883 24.2607C201.574 24.3982 201.282 24.6216 201.007 24.9309C200.75 25.2403 200.536 25.6269 200.364 26.0909C200.21 26.5377 200.132 27.0704 200.132 27.689V33.7981C200.132 34.2449 199.986 34.6229 199.695 34.9323C199.403 35.2244 199.034 35.3705 198.588 35.3705Z" stroke="black" mask="url(#path-3-outside-1_98_17)"/>
<path d="M207.406 33.231C207.234 32.9904 207.157 32.6811 207.174 32.3031C207.192 31.925 207.415 31.5985 207.844 31.3235C208.118 31.1517 208.41 31.083 208.719 31.1173C209.028 31.1345 209.328 31.2892 209.62 31.5813C210.117 32.0797 210.641 32.4663 211.19 32.7413C211.739 33.0162 212.425 33.1537 213.249 33.1537C213.506 33.1365 213.789 33.1021 214.098 33.0506C214.407 32.9818 214.673 32.8444 214.896 32.6381C215.136 32.4148 215.256 32.0797 215.256 31.6329C215.256 31.2548 215.128 30.9541 214.87 30.7307C214.613 30.5073 214.27 30.3183 213.841 30.1636C213.429 30.0089 212.966 29.8629 212.451 29.7254C211.919 29.5707 211.37 29.3989 210.804 29.2099C210.254 29.0208 209.748 28.7802 209.285 28.4881C208.822 28.1788 208.444 27.775 208.152 27.2766C207.861 26.7783 207.715 26.151 207.715 25.3949C207.715 24.5357 207.955 23.8054 208.436 23.2039C208.916 22.6025 209.534 22.1385 210.289 21.812C211.061 21.4855 211.867 21.3222 212.708 21.3222C213.24 21.3222 213.798 21.391 214.381 21.5284C214.965 21.6487 215.522 21.8549 216.054 22.1471C216.586 22.422 217.032 22.7915 217.393 23.2555C217.581 23.5132 217.693 23.8225 217.727 24.1834C217.762 24.5443 217.599 24.8708 217.238 25.1629C216.981 25.3691 216.681 25.4637 216.337 25.4465C215.994 25.4121 215.711 25.2918 215.488 25.0856C215.196 24.7075 214.802 24.4068 214.304 24.1834C213.824 23.96 213.266 23.8483 212.631 23.8483C212.374 23.8483 212.09 23.8827 211.782 23.9514C211.49 24.003 211.233 24.1319 211.009 24.3381C210.786 24.5271 210.675 24.8364 210.675 25.266C210.675 25.6613 210.804 25.9792 211.061 26.2198C211.318 26.4432 211.661 26.6322 212.09 26.7869C212.537 26.9243 213.009 27.0618 213.506 27.1993C214.021 27.3368 214.544 27.5 215.076 27.689C215.608 27.8781 216.097 28.1272 216.543 28.4366C216.989 28.7459 217.35 29.1497 217.624 29.6481C217.899 30.1292 218.036 30.7479 218.036 31.504C218.036 32.3804 217.779 33.1279 217.264 33.7465C216.749 34.3652 216.106 34.8378 215.334 35.1643C214.561 35.4736 213.772 35.6282 212.966 35.6282C211.953 35.6282 210.941 35.4564 209.928 35.1127C208.916 34.7518 208.075 34.1246 207.406 33.231Z" stroke="black" mask="url(#path-3-outside-1_98_17)"/>
<defs>
<linearGradient id="paint0_linear_98_17" x1="59.3594" y1="38.0511" x2="221" y2="38.0511" gradientUnits="userSpaceOnUse">
<stop stop-color="#0ED3A8"/>
<stop offset="0.435" stop-color="#934BFD"/>
<stop offset="0.569872" stop-color="#FCD34C"/>
<stop offset="1" stop-color="#FE4411"/>
</linearGradient>
<linearGradient id="paint1_linear_98_17" x1="59.3594" y1="26.0909" x2="219.97" y2="26.0909" gradientUnits="userSpaceOnUse">
<stop offset="0.0432718" stop-color="#06DBA4"/>
<stop offset="0.447388" stop-color="#9747FF"/>
<stop offset="0.569217" stop-color="#FCD34C"/>
<stop offset="0.970362" stop-color="#FF360B"/>
</linearGradient>
<linearGradient id="paint2_linear_98_17" x1="59.3594" y1="26.0909" x2="219.97" y2="26.0909" gradientUnits="userSpaceOnUse">
<stop offset="0.0432718" stop-color="#06DBA4"/>
<stop offset="0.447388" stop-color="#9747FF"/>
<stop offset="0.569217" stop-color="#FCD34C"/>
<stop offset="0.970362" stop-color="#FF360B"/>
</linearGradient>
<linearGradient id="paint3_linear_98_17" x1="59.3594" y1="26.0909" x2="219.97" y2="26.0909" gradientUnits="userSpaceOnUse">
<stop offset="0.0432718" stop-color="#06DBA4"/>
<stop offset="0.447388" stop-color="#9747FF"/>
<stop offset="0.569217" stop-color="#FCD34C"/>
<stop offset="0.970362" stop-color="#FF360B"/>
</linearGradient>
<linearGradient id="paint4_linear_98_17" x1="59.3594" y1="26.0909" x2="219.97" y2="26.0909" gradientUnits="userSpaceOnUse">
<stop offset="0.0432718" stop-color="#06DBA4"/>
<stop offset="0.447388" stop-color="#9747FF"/>
<stop offset="0.569217" stop-color="#FCD34C"/>
<stop offset="0.970362" stop-color="#FF360B"/>
</linearGradient>
<linearGradient id="paint5_linear_98_17" x1="59.3594" y1="26.0909" x2="219.97" y2="26.0909" gradientUnits="userSpaceOnUse">
<stop offset="0.0432718" stop-color="#06DBA4"/>
<stop offset="0.447388" stop-color="#9747FF"/>
<stop offset="0.569217" stop-color="#FCD34C"/>
<stop offset="0.970362" stop-color="#FF360B"/>
</linearGradient>
<linearGradient id="paint6_linear_98_17" x1="59.3594" y1="26.0909" x2="219.97" y2="26.0909" gradientUnits="userSpaceOnUse">
<stop offset="0.0432718" stop-color="#06DBA4"/>
<stop offset="0.447388" stop-color="#9747FF"/>
<stop offset="0.569217" stop-color="#FCD34C"/>
<stop offset="0.970362" stop-color="#FF360B"/>
</linearGradient>
<linearGradient id="paint7_linear_98_17" x1="59.3594" y1="26.0909" x2="219.97" y2="26.0909" gradientUnits="userSpaceOnUse">
<stop offset="0.0432718" stop-color="#06DBA4"/>
<stop offset="0.447388" stop-color="#9747FF"/>
<stop offset="0.569217" stop-color="#FCD34C"/>
<stop offset="0.970362" stop-color="#FF360B"/>
</linearGradient>
<linearGradient id="paint8_linear_98_17" x1="59.3594" y1="26.0909" x2="219.97" y2="26.0909" gradientUnits="userSpaceOnUse">
<stop offset="0.0432718" stop-color="#06DBA4"/>
<stop offset="0.447388" stop-color="#9747FF"/>
<stop offset="0.569217" stop-color="#FCD34C"/>
<stop offset="0.970362" stop-color="#FF360B"/>
</linearGradient>
<linearGradient id="paint9_linear_98_17" x1="59.3594" y1="26.0909" x2="219.97" y2="26.0909" gradientUnits="userSpaceOnUse">
<stop offset="0.0432718" stop-color="#06DBA4"/>
<stop offset="0.447388" stop-color="#9747FF"/>
<stop offset="0.569217" stop-color="#FCD34C"/>
<stop offset="0.970362" stop-color="#FF360B"/>
</linearGradient>
<linearGradient id="paint10_linear_98_17" x1="59.3594" y1="26.0909" x2="219.97" y2="26.0909" gradientUnits="userSpaceOnUse">
<stop offset="0.0432718" stop-color="#06DBA4"/>
<stop offset="0.447388" stop-color="#9747FF"/>
<stop offset="0.569217" stop-color="#FCD34C"/>
<stop offset="0.970362" stop-color="#FF360B"/>
</linearGradient>
<linearGradient id="paint11_linear_98_17" x1="59.3594" y1="26.0909" x2="219.97" y2="26.0909" gradientUnits="userSpaceOnUse">
<stop offset="0.0432718" stop-color="#06DBA4"/>
<stop offset="0.447388" stop-color="#9747FF"/>
<stop offset="0.569217" stop-color="#FCD34C"/>
<stop offset="0.970362" stop-color="#FF360B"/>
</linearGradient>
</defs>
</svg>
