<svg width="24" height="24" viewBox="0 0 24 24" fill="none" xmlns="http://www.w3.org/2000/svg">
<path d="M6.4 3.31034C6.4 1.65517 7.6 0 9.6 0H14.4C16.4 0 17.6 1.65517 17.6 3.31034V7.44828H22.4C22.8243 7.44828 23.2313 7.62266 23.5314 7.93306C23.8314 8.24347 24 8.66447 24 9.10345V11.5862C24.0001 12.0109 23.8424 12.4194 23.5594 12.7272C23.2765 13.035 22.8901 13.2185 22.48 13.2397L20.076 21.6298C19.88 22.3143 19.4754 22.9148 18.9225 23.342C18.3696 23.7691 17.6981 23.9999 17.008 24H6.9728C6.28844 24 5.62212 23.773 5.07166 23.3523C4.5212 22.9317 4.1156 22.3396 3.9144 21.6629L1.4056 13.2298C1.0177 13.1807 0.660594 12.9864 0.401652 12.6836C0.14271 12.3808 -0.000159528 11.9905 1.33676e-07 11.5862V9.10345C1.33676e-07 8.66447 0.168571 8.24347 0.468629 7.93306C0.768688 7.62266 1.17565 7.44828 1.6 7.44828H6.4V3.31034ZM8 7.44828H16V3.31034C16 1.24138 14.8 0.827586 13.6 0.827586H10.4C9.2 0.827586 8 1.24138 8 3.31034V7.44828ZM16 9.10345H1.6V11.5862H22.4V9.10345H17.6V9.93104C17.6 10.1505 17.5157 10.361 17.3657 10.5162C17.2157 10.6714 17.0122 10.7586 16.8 10.7586C16.5878 10.7586 16.3843 10.6714 16.2343 10.5162C16.0843 10.361 16 10.1505 16 9.93104V9.10345ZM19.4512 13.2414L20.1792 13.9945L20.7696 13.3837L20.8096 13.2414H19.4512ZM16.7848 13.9945L17.5128 13.2414H16.0568L16.7848 13.9945ZM12.664 13.2414L13.392 13.9945L14.12 13.2414H12.664ZM9.9976 13.9945L10.7256 13.2414H9.2696L9.9976 13.9945ZM6.6032 13.9945L7.3312 13.2414H5.8752L6.6032 13.9945ZM3.0832 13.2414L3.2832 13.9167L3.936 13.2414H3.0832ZM3.8536 15.8326L4.0824 16.6014L4.34 16.3349L3.8536 15.8326ZM20.2408 15.2284L20.1792 15.1647L19.048 16.3349L19.724 17.0342L20.2408 15.2284ZM19.34 18.3732L19.4648 17.9371L18.4816 16.92L17.3504 18.091L18.4816 19.2612L19.34 18.3732ZM18.6896 20.6458L18.4816 20.4314L17.3504 21.6017L17.8368 22.1048C18.1696 21.8971 18.4256 21.5652 18.5424 21.1597L18.6896 20.6458ZM16.9376 22.3448L16.7856 22.1876L16.6328 22.3448H16.9376ZM15.5008 22.3448L16.2192 21.6017L15.088 20.4314L13.9568 21.6017L14.6744 22.3448H15.5008ZM13.2384 22.3448H13.5432L13.3912 22.1876L13.2384 22.3448ZM12.1072 22.3448L12.8248 21.6017L11.6936 20.4314L10.5624 21.6017L11.2808 22.3448H12.1072ZM9.844 22.3448H10.1488L9.9968 22.1876L9.844 22.3448ZM8.7128 22.3448L9.4312 21.6017L8.2992 20.4314L7.168 21.6017L7.8864 22.3448H8.7128ZM6.7376 22.3266L6.6024 22.1868L6.516 22.2761C6.58853 22.2982 6.6624 22.315 6.7376 22.3266ZM5.8144 21.8317L6.0368 21.6017L5.3624 20.904L5.4432 21.1771C5.5184 21.4279 5.6472 21.6505 5.8144 21.8317ZM4.8592 19.2141L4.9056 19.2612L6.0368 18.091L4.9056 16.92L4.3488 17.496L4.8592 19.2141ZM4.9056 13.4094L3.7744 14.5796L4.9056 15.7498L6.0368 14.5796L4.9056 13.4094ZM6.6024 15.1647L5.472 16.3349L6.6032 17.5059L7.7344 16.3349L6.6024 15.1647ZM8.2992 16.92L7.168 18.091L8.2992 19.2612L9.4312 18.091L8.2992 16.92ZM8.8656 16.3349L9.9968 17.5059L11.128 16.3349L9.9968 15.1647L8.8656 16.3349ZM9.9968 18.6761L8.8656 19.8463L9.9968 21.0166L11.128 19.8463L9.9968 18.6761ZM11.6936 19.2612L12.8248 18.091L11.6936 16.92L10.5624 18.091L11.6936 19.2612ZM8.2992 15.7498L9.4312 14.5796L8.2992 13.4094L7.168 14.5796L8.2992 15.7498ZM15.6536 19.8463L16.7848 21.0166L17.916 19.8463L16.7848 18.6761L15.6536 19.8463ZM17.916 16.3349L16.7848 15.1647L15.6536 16.3349L16.7848 17.5059L17.916 16.3349ZM13.3904 21.0166L14.5224 19.8463L13.3904 18.6761L12.2592 19.8463L13.3904 21.0166ZM13.9568 14.5796L15.088 15.7498L16.2192 14.5796L15.088 13.4094L13.9568 14.5796ZM12.8248 14.5796L11.6936 13.4094L10.5624 14.5796L11.6936 15.7498L12.8248 14.5796ZM18.4824 15.7498L19.6136 14.5796L18.4816 13.4094L17.3504 14.5796L18.4824 15.7498ZM12.2592 16.3349L13.3904 17.5059L14.5224 16.3349L13.3904 15.1647L12.2592 16.3349ZM6.6032 21.0166L7.7336 19.8463L6.6024 18.6761L5.472 19.8455L6.6032 21.0166ZM13.9568 18.091L15.088 19.2612L16.2192 18.091L15.088 16.92L13.9568 18.091Z" fill="#01664D"/>
</svg>
