<?xml version="1.0" encoding="UTF-8"?>
<!DOCTYPE svg PUBLIC "-//W3C//DTD SVG 1.1//EN" "http://www.w3.org/Graphics/SVG/1.1/DTD/svg11.dtd">
<!-- Creator: CorelDRAW 2020 (64-Bit) -->
<svg xmlns="http://www.w3.org/2000/svg" xml:space="preserve" width="21.5704mm" height="19.0732mm" version="1.1" style="shape-rendering:geometricPrecision; text-rendering:geometricPrecision; image-rendering:optimizeQuality; fill-rule:evenodd; clip-rule:evenodd"
viewBox="0 0 351.36 310.68"
 xmlns:xlink="http://www.w3.org/1999/xlink"
 xmlns:xodm="http://www.corel.com/coreldraw/odm/2003">
 <defs>
  <style type="text/css">
   <![CDATA[
    .fil3 {fill:#2B2A29}
    .fil0 {fill:#4BD0AE}
    .fil2 {fill:#F67256}
    .fil1 {fill:#FCD34C}
   ]]>
  </style>
 </defs>
 <g id="Layer_x0020_1">
  <metadata id="CorelCorpID_0Corel-Layer"/>
  <g id="_2348232965456">
   <path class="fil0" d="M218.34 183.58c-29.37,9.65 -112.79,51.09 -127.83,61.19 -0.14,5.12 110.99,52.74 197.06,-42.71 137.86,-152.89 -260.82,-137.2 -69.22,-18.47z"/>
   <path class="fil1" d="M259.76 73.45c-55.13,18.82 -94.7,-31.19 -173.11,40.2 31.23,5.91 65.48,5.33 108.25,42.59 -30.79,2.69 -140.87,25.1 -157.82,31.5 -1.31,4.95 124.64,67.46 236.84,4.77 134.39,-75.07 -13.94,-113.94 70.03,-184.62 -12,13.37 -30.1,12.28 -45.87,13.36 -38.78,2.65 -1.99,39.8 -38.34,52.21z"/>
   <path class="fil2" d="M295.1 43.33c-1.11,17.6 -7.22,28.49 -26.25,28.69 -5.35,0.05 -11.49,-1.11 -17.05,-5.15 -13.78,-10.02 -62.5,-32.35 -117.47,17.7 17.48,4.64 44.95,1.12 80.85,36.56 -23.65,10.86 -128.53,27.38 -127.47,28.45 0.96,0.97 105.58,73.11 191.92,12.06 8.76,-6.2 18.04,-13.17 25.59,-22.92 41.16,-53.15 -19.01,-76.63 41.57,-124.91 -9.54,10.63 -23.91,11.44 -36.44,10.61 -16.07,-1.07 -14.35,4.81 -15.24,18.92z"/>
   <path class="fil3" d="M34.9 234.19c0.48,1.53 1.31,2.94 2.46,4.09 1.97,1.99 4.57,3 7.17,3.02l0.01 0c2.6,0.01 5.21,-0.96 7.2,-2.93 4.6,-4.54 5.12,-9.47 3.3,-13.69 -1.37,-3.16 -4.1,-5.85 -7.41,-7.6 -3.28,-1.74 -7.18,-2.58 -10.92,-2.05 -5.7,0.8 -10.96,4.68 -13.1,13.2 -0.86,3.46 -0.78,7.14 0.23,10.65 0.98,3.4 2.82,6.63 5.49,9.34 3.23,3.27 6.77,5.28 10.36,6.24 3.89,1.03 7.82,0.81 11.5,-0.39 3.63,-1.18 7.02,-3.32 9.86,-6.13 3.6,-3.56 6.39,-8.25 7.79,-13.52 1.44,-5.41 1.54,-10.98 0.32,-16.14 -1.2,-5.06 -3.66,-9.73 -7.37,-13.49 -6.3,-6.37 -15.06,-9.07 -24.15,-8.3 -8.95,0.76 -18.21,4.92 -25.66,12.29 -5.22,5.17 -8.61,10.88 -10.41,16.81 -2.3,7.57 -2.01,15.44 0.32,22.88 2.31,7.38 6.62,14.34 12.38,20.17 6.31,6.39 14.38,11.43 23.48,14.2 2.36,0.72 4.98,1.2 7.77,1.42 2.73,0.22 5.65,0.2 8.67,-0.08 10.35,-0.96 21.9,-4.94 31.66,-12.37 8.2,-6.24 15.12,-14.9 19,-26.23 2.77,-8.08 3.93,-16.57 5.08,-24.88 1.43,-10.43 2.83,-20.57 7.3,-28.83 2.46,-4.54 6.48,-10.06 11.36,-15.64l0.07 -0.07c5.18,0.16 10.61,0.14 16.31,-0.09 12.5,-0.49 26.13,-1.51 39.52,-3.35 11.17,-1.54 22.16,-3.66 32.15,-6.53 1.87,-0.54 3.79,-1.13 5.72,-1.77 12.58,-4.18 27.31,-10.95 37.86,-20.47 10.84,-9.79 17.3,-22.43 12.78,-38.14 -0.17,-0.57 -0.33,-1.11 -0.5,-1.62 -2.02,-6.09 -6.02,-11.01 -12.09,-14.39 -5.62,-3.13 -13.01,-4.92 -22.25,-5.08l-0.14 0c-6.21,0.29 -12.7,1.22 -19.26,2.72 -6.55,1.5 -13.16,3.59 -19.65,6.2 -12.07,4.87 -23.29,7.3 -33.86,6.27 -10.49,-1.02 -20.44,-5.47 -30.08,-14.37 -4.5,-4.15 -8.3,-8.88 -11.37,-14.23 -2.31,-4.02 -4.2,-8.4 -5.65,-13.14 3.29,1.48 7.37,2.47 12.17,3.02 7.1,0.81 15.84,0.68 25.98,-0.25 3.89,-0.36 9.38,-1.67 15.62,-3.16 13.85,-3.31 31.51,-7.52 41.66,-3.65l0.86 0.33c7.05,2.69 13.91,5.3 20.28,10.59 2.62,2.24 5.2,4.36 7.75,6.35 2.5,1.95 4.9,3.7 7.18,5.2l0.01 0c5.72,3.77 12.9,5.79 19.06,5.33 2.47,-0.18 4.78,-0.75 6.81,-1.75 2.09,-1.04 3.88,-2.54 5.2,-4.54l0.05 -0.08c1.7,-2.63 2.57,-6.06 2.25,-10.4 -0.27,-3.59 -1.75,-7.13 -3.46,-11.2 -0.87,-2.08 -1.81,-4.32 -2.66,-6.75 -1.13,-3.24 -1.74,-6.67 -1.84,-10.09 -0.1,-3.45 0.31,-6.89 1.24,-10.14 1.06,-3.69 3.4,-7.14 6.49,-10.08 3.38,-3.22 7.65,-5.82 12.1,-7.46 2.38,-0.88 4.91,-1.32 7.49,-1.43 2.88,-0.12 5.81,0.19 8.65,0.8 4.11,0.88 7.03,1.74 9.34,2.43 9.1,2.69 9.72,2.87 29.05,-7.1 3.57,-1.84 1.73,-5.47 -1.91,-3.59 -17.84,9.2 -18.38,9.05 -25.99,6.8 -2.39,-0.71 -5.42,-1.6 -9.65,-2.51 -3.15,-0.68 -6.44,-1.02 -9.68,-0.88 -2.98,0.13 -5.94,0.65 -8.74,1.68 -4.94,1.82 -9.69,4.73 -13.49,8.34 -3.59,3.42 -6.33,7.48 -7.59,11.89 -1.04,3.64 -1.51,7.51 -1.39,11.38 0.11,3.83 0.8,7.67 2.08,11.32 0.88,2.52 1.85,4.83 2.75,6.97 1.58,3.76 2.95,7.03 3.17,9.93 0.25,3.38 -0.37,5.97 -1.61,7.88l-0.04 0.06c-0.9,1.37 -2.14,2.4 -3.62,3.13 -1.55,0.77 -3.35,1.21 -5.28,1.35l-0 0c-5.29,0.39 -11.51,-1.38 -16.53,-4.68 -2.21,-1.46 -4.52,-3.14 -6.93,-5.02 -2.36,-1.84 -4.9,-3.94 -7.6,-6.23l-0.03 -0.02c-6.93,-5.76 -14.09,-8.48 -21.45,-11.29l-0.85 -0.32c-11.31,-4.31 -29.66,0.07 -44.06,3.51 -6.07,1.45 -11.42,2.73 -15.05,3.06 -9.86,0.91 -18.32,1.04 -25.15,0.26 -6.54,-0.75 -11.48,-2.33 -14.57,-4.86 -0.48,-0.42 -1.14,-0.61 -1.81,-0.45 -1.09,0.26 -1.77,1.35 -1.51,2.45 1.64,7.02 4.12,13.35 7.39,19.04 3.27,5.7 7.33,10.75 12.13,15.18 10.33,9.55 21.07,14.32 32.45,15.43 11.3,1.1 23.14,-1.44 35.78,-6.54 6.31,-2.54 12.71,-4.56 19.03,-6.01 6.29,-1.44 12.52,-2.33 18.51,-2.62 8.51,0.16 15.22,1.76 20.24,4.56 5.14,2.86 8.51,7.01 10.21,12.13 0.18,0.53 0.33,1.01 0.46,1.46 4,13.88 -1.84,25.18 -11.6,34 -10.06,9.08 -24.26,15.58 -36.41,19.62 -1.95,0.65 -3.81,1.22 -5.56,1.73 -9.79,2.82 -20.58,4.9 -31.57,6.41 -13.19,1.81 -26.7,2.82 -39.14,3.31 -4.32,0.17 -8.49,0.22 -12.5,0.17 3.76,-3.96 7.85,-7.81 12.02,-11.21 7.48,-6.09 15.09,-10.17 22.89,-12.81 7.81,-2.65 15.82,-3.85 24.08,-4.18 1.34,-0.05 2.66,-0.09 4.06,-0.14 16.53,-0.5 43.95,-1.33 48.52,-19.8 0.74,-3.01 0.17,-6.06 -2.2,-8.98 -1.93,-2.39 -5.1,-4.67 -9.77,-6.75 -25.8,-11.42 -94.51,16.91 -96.12,17.58 -15.02,5.75 -31.28,8.84 -47.41,9.45 -16.69,0.63 -33.23,-1.39 -48.13,-5.84 -1.07,-0.32 -2.21,0.29 -2.53,1.36 -0.18,0.61 -0.07,1.23 0.26,1.72 9.26,13.8 21.54,25.26 38.81,32.99 12.65,5.66 27.97,9.3 46.72,10.37 -4.15,4.97 -7.58,9.85 -9.83,14.01 -4.83,8.92 -6.28,19.42 -7.76,30.2 -1.12,8.12 -2.26,16.42 -4.89,24.11 -3.6,10.51 -10.02,18.55 -17.63,24.34 -9.11,6.93 -19.9,10.65 -29.56,11.55 -2.77,0.26 -5.44,0.28 -7.96,0.08l-0.01 0c-2.49,-0.2 -4.81,-0.62 -6.91,-1.26 -8.43,-2.56 -15.91,-7.25 -21.78,-13.18 -5.32,-5.38 -9.29,-11.77 -11.4,-18.52 -2.09,-6.68 -2.36,-13.72 -0.31,-20.47 1.61,-5.29 4.66,-10.43 9.38,-15.1 6.76,-6.68 15.11,-10.45 23.15,-11.14 7.9,-0.67 15.49,1.65 20.9,7.12 3.18,3.22 5.29,7.22 6.32,11.56 1.07,4.52 0.97,9.4 -0.29,14.16 -1.2,4.54 -3.61,8.58 -6.73,11.67 -2.42,2.39 -5.25,4.19 -8.26,5.17 -2.96,0.96 -6.1,1.14 -9.2,0.32 -2.9,-0.77 -5.8,-2.44 -8.51,-5.18 -2.2,-2.22 -3.7,-4.85 -4.49,-7.6 -0.81,-2.83 -0.89,-5.78 -0.2,-8.54 1.65,-6.6 5.55,-9.58 9.74,-10.17 2.85,-0.4 5.87,0.26 8.43,1.62 2.54,1.34 4.61,3.34 5.6,5.63 1.19,2.74 0.76,6.01 -2.44,9.17 -1.2,1.19 -2.76,1.77 -4.32,1.77 -1.56,-0.01 -3.11,-0.62 -4.3,-1.82 -0.7,-0.71 -1.2,-1.55 -1.49,-2.45 -1.87,-5.93 -5.57,-4.18 -3.87,1.23zm106.86 -76.39c-5.26,4.28 -10.37,9.23 -14.86,14.21 -19.69,-0.79 -35.54,-4.4 -48.45,-10.17 -14.54,-6.51 -25.39,-15.8 -33.82,-26.94 13.82,3.5 28.81,5.04 43.9,4.47 16.57,-0.63 33.27,-3.8 48.71,-9.71l0.04 -0.02c0.2,-0.08 68.5,-28.46 92.96,-17.64 4.07,1.8 6.74,3.69 8.27,5.59 1.47,1.82 1.85,3.67 1.41,5.45 -3.83,15.48 -29.33,16.25 -44.7,16.72 -1.51,0.05 -2.93,0.09 -4.1,0.14 -8.63,0.35 -17.01,1.61 -25.22,4.39 -8.22,2.79 -16.25,7.09 -24.15,13.52zm60.42 109.23c-0.59,0.4 -1.38,0.65 -2.24,0.76 -0.93,0.12 -1.91,0.07 -2.82,-0.13 -1.16,-0.26 -2.14,-0.74 -2.58,-1.39 -1.27,-1.85 -2.02,-3.92 -2.01,-5.86l0 -0c0.01,-1.61 0.57,-3.15 1.84,-4.41 3.66,-3.61 7.43,-4.06 10.56,-2.66 2.6,1.16 4.85,3.54 6.35,6.45 1.51,2.94 2.22,6.37 1.73,9.61 -0.72,4.76 -4.16,9.17 -11.68,10.96 -3.14,0.74 -6.49,0.62 -9.68,-0.34 -3.1,-0.93 -6.06,-2.67 -8.55,-5.18 -3.06,-3.1 -4.91,-6.4 -5.75,-9.7 -0.89,-3.52 -0.65,-7.08 0.48,-10.42 1.15,-3.38 3.22,-6.56 5.95,-9.27 3.52,-3.48 8.12,-6.14 13.25,-7.44 5.37,-1.36 10.88,-1.4 15.96,-0.14 4.88,1.21 9.37,3.64 12.97,7.28 6.11,6.18 8.63,14.77 7.76,23.67 -0.88,9.03 -5.22,18.38 -12.83,25.9 -5.73,5.67 -12.11,9.15 -18.66,10.78 -7.5,1.87 -15.27,1.34 -22.58,-1.1 -7.37,-2.46 -14.29,-6.85 -20.04,-12.66 -6.6,-6.68 -11.65,-15.23 -14.06,-24.88 -1.66,-6.65 -1.41,-14.14 0.3,-21.68 1.85,-8.15 5.39,-16.34 10.06,-23.63 16.18,-25.2 35.99,-26.85 62.03,-29.02 2.53,-0.21 5.13,-0.43 8.4,-0.73 3.21,-0.3 7.03,-0.61 10.89,-0.93 16.96,-1.39 34.68,-2.85 50.58,-7.75 19.57,-6.03 37.05,-15.71 47.74,-29.8 9.18,-12.09 13.34,-27.35 9.57,-46.23 -1.54,-7.7 -4.39,-15.32 -7.36,-23.27l-1.5 -4.02c-5.85,-15.83 -10.16,-27.7 -9.05,-37.7 1.08,-9.8 7.5,-18.2 23.05,-27.55 0.96,-0.58 1.27,-1.83 0.69,-2.79 -0.55,-0.91 -1.69,-1.23 -2.62,-0.78 -0.37,0.17 -1.33,0.66 -2.36,1.18 -5.4,2.75 -14.29,7.27 -23.77,7.45 -3.23,0.06 -6.69,-0.98 -10.05,-2 -1.74,-0.53 -3.46,-1.04 -5.1,-1.41 -5.98,-1.34 -10.37,0.32 -12.8,2.96 -0.93,1.01 -1.59,2.17 -1.95,3.37 -0.37,1.23 -0.42,2.52 -0.16,3.76 0.58,2.69 2.64,5.05 6.33,5.98l0.18 0.04c1.91,0.45 3.96,0.43 5.66,-0.06 0.98,-0.29 1.87,-0.72 2.58,-1.32 0.8,-0.68 1.38,-1.54 1.65,-2.61 0.22,-0.89 0.21,-1.87 -0.1,-2.94l-3.9 1.13c0.1,0.35 0.12,0.62 0.07,0.83 -0.04,0.17 -0.17,0.34 -0.35,0.49 -0.27,0.23 -0.64,0.4 -1.08,0.53 -1.05,0.3 -2.35,0.31 -3.58,0.02l-0.14 -0.04c-2,-0.5 -3.09,-1.64 -3.36,-2.89 -0.12,-0.55 -0.09,-1.15 0.09,-1.74 0.19,-0.62 0.53,-1.23 1.02,-1.77 1.57,-1.7 4.59,-2.73 8.94,-1.76 1.59,0.36 3.2,0.84 4.82,1.33 3.67,1.11 7.45,2.25 11.3,2.17 4,-0.08 7.85,-0.83 11.4,-1.9 -6.57,6.34 -9.71,12.74 -10.5,19.88 -1.21,10.94 3.23,23.21 9.28,39.56l1.51 4.03c2.92,7.8 5.72,15.28 7.19,22.64 3.51,17.6 -0.34,31.78 -8.84,42.97 -10.13,13.35 -26.88,22.58 -45.7,28.38 -15.44,4.76 -32.96,6.2 -49.72,7.57 -3.5,0.29 -6.97,0.57 -10.92,0.94 -2.46,0.23 -5.45,0.48 -8.37,0.72 -27.18,2.26 -47.84,3.98 -65.1,30.87 -4.93,7.68 -8.66,16.32 -10.61,24.93 -1.85,8.15 -2.11,16.29 -0.29,23.57 2.59,10.39 8.01,19.58 15.11,26.75 6.19,6.26 13.66,10.99 21.64,13.65 8.04,2.68 16.58,3.26 24.87,1.19 7.24,-1.81 14.26,-5.63 20.54,-11.83 8.3,-8.2 13.04,-18.46 14,-28.41 0.98,-10.08 -1.91,-19.86 -8.91,-26.93 -4.13,-4.18 -9.28,-6.97 -14.89,-8.36 -5.72,-1.42 -11.91,-1.38 -17.94,0.15 -5.87,1.49 -11.11,4.52 -15.12,8.48 -3.16,3.13 -5.57,6.85 -6.93,10.86 -1.38,4.06 -1.67,8.41 -0.57,12.73 1.01,3.99 3.19,7.93 6.78,11.57 2.96,3 6.52,5.08 10.27,6.2 3.88,1.17 7.95,1.31 11.78,0.4l0.01 -0.01c9.45,-2.25 13.8,-8.01 14.76,-14.29 0.63,-4.12 -0.25,-8.44 -2.13,-12.1 -1.89,-3.68 -4.83,-6.73 -8.3,-8.28 -4.61,-2.06 -10.03,-1.54 -15.09,3.46 -2.11,2.08 -3.04,4.63 -3.05,7.28 -0.01,2.79 1.02,5.68 2.74,8.19 1.05,1.54 2.94,2.59 5.04,3.06 1.36,0.3 2.83,0.38 4.23,0.2 1.46,-0.19 2.87,-0.66 4.02,-1.45 4.54,-3.1 1.66,-6.05 -2.3,-3.34z"/>
  </g>
 </g>
</svg>
