<svg width="30" height="30" viewBox="0 0 30 30" fill="none" xmlns="http://www.w3.org/2000/svg">
<path d="M8 4.13793C8 2.06897 9.5 0 12 0H18C20.5 0 22 2.06897 22 4.13793V9.31034H28C28.5304 9.31034 29.0391 9.52832 29.4142 9.91633C29.7893 10.3043 30 10.8306 30 11.3793V14.4828C30.0001 15.0137 29.803 15.5243 29.4493 15.909C29.0957 16.2937 28.6126 16.5231 28.1 16.5497L25.095 27.0372C24.85 27.8928 24.3443 28.6436 23.6531 29.1775C22.962 29.7114 22.1226 29.9999 21.26 30H8.716C7.86055 29.9999 7.02766 29.7162 6.33958 29.1904C5.65151 28.6646 5.1445 27.9245 4.893 27.0786L1.757 16.5372C1.27213 16.4758 0.825742 16.233 0.502065 15.8545C0.178387 15.476 -0.00019941 14.9881 1.67095e-07 14.4828V11.3793C1.67095e-07 10.8306 0.210714 10.3043 0.585787 9.91633C0.960859 9.52832 1.46957 9.31034 2 9.31034H8V4.13793ZM10 9.31034H20V4.13793C20 1.55172 18.5 1.03448 17 1.03448H13C11.5 1.03448 10 1.55172 10 4.13793V9.31034ZM20 11.3793H2V14.4828H28V11.3793H22V12.4138C22 12.6882 21.8946 12.9513 21.7071 13.1453C21.5196 13.3393 21.2652 13.4483 21 13.4483C20.7348 13.4483 20.4804 13.3393 20.2929 13.1453C20.1054 12.9513 20 12.6882 20 12.4138V11.3793ZM24.314 16.5517L25.224 17.4931L25.962 16.7297L26.012 16.5517H24.314ZM20.981 17.4931L21.891 16.5517H20.071L20.981 17.4931ZM15.83 16.5517L16.74 17.4931L17.65 16.5517H15.83ZM12.497 17.4931L13.407 16.5517H11.587L12.497 17.4931ZM8.254 17.4931L9.164 16.5517H7.344L8.254 17.4931ZM3.854 16.5517L4.104 17.3959L4.92 16.5517H3.854ZM4.817 19.7907L5.103 20.7517L5.425 20.4186L4.817 19.7907ZM25.301 19.0355L25.224 18.9559L23.81 20.4186L24.655 21.2928L25.301 19.0355ZM24.175 22.9666L24.331 22.4214L23.102 21.15L21.688 22.6138L23.102 24.0766L24.175 22.9666ZM23.362 25.8072L23.102 25.5393L21.688 27.0021L22.296 27.631C22.712 27.3714 23.032 26.9566 23.178 26.4497L23.362 25.8072ZM21.172 27.931L20.982 27.7345L20.791 27.931H21.172ZM19.376 27.931L20.274 27.0021L18.86 25.5393L17.446 27.0021L18.343 27.931H19.376ZM16.548 27.931H16.929L16.739 27.7345L16.548 27.931ZM15.134 27.931L16.031 27.0021L14.617 25.5393L13.203 27.0021L14.101 27.931H15.134ZM12.305 27.931H12.686L12.496 27.7345L12.305 27.931ZM10.891 27.931L11.789 27.0021L10.374 25.5393L8.96 27.0021L9.858 27.931H10.891ZM8.422 27.9083L8.253 27.7334L8.145 27.8452C8.23567 27.8728 8.328 27.8938 8.422 27.9083ZM7.268 27.2897L7.546 27.0021L6.703 26.13L6.804 26.4714C6.898 26.7848 7.059 27.0631 7.268 27.2897ZM6.074 24.0176L6.132 24.0766L7.546 22.6138L6.132 21.15L5.436 21.87L6.074 24.0176ZM6.132 16.7617L4.718 18.2245L6.132 19.6872L7.546 18.2245L6.132 16.7617ZM8.253 18.9559L6.84 20.4186L8.254 21.8824L9.668 20.4186L8.253 18.9559ZM10.374 21.15L8.96 22.6138L10.374 24.0766L11.789 22.6138L10.374 21.15ZM11.082 20.4186L12.496 21.8824L13.91 20.4186L12.496 18.9559L11.082 20.4186ZM12.496 23.3452L11.082 24.8079L12.496 26.2707L13.91 24.8079L12.496 23.3452ZM14.617 24.0766L16.031 22.6138L14.617 21.15L13.203 22.6138L14.617 24.0766ZM10.374 19.6872L11.789 18.2245L10.374 16.7617L8.96 18.2245L10.374 19.6872ZM19.567 24.8079L20.981 26.2707L22.395 24.8079L20.981 23.3452L19.567 24.8079ZM22.395 20.4186L20.981 18.9559L19.567 20.4186L20.981 21.8824L22.395 20.4186ZM16.738 26.2707L18.153 24.8079L16.738 23.3452L15.324 24.8079L16.738 26.2707ZM17.446 18.2245L18.86 19.6872L20.274 18.2245L18.86 16.7617L17.446 18.2245ZM16.031 18.2245L14.617 16.7617L13.203 18.2245L14.617 19.6872L16.031 18.2245ZM23.103 19.6872L24.517 18.2245L23.102 16.7617L21.688 18.2245L23.103 19.6872ZM15.324 20.4186L16.738 21.8824L18.153 20.4186L16.738 18.9559L15.324 20.4186ZM8.254 26.2707L9.667 24.8079L8.253 23.3452L6.84 24.8069L8.254 26.2707ZM17.446 22.6138L18.86 24.0766L20.274 22.6138L18.86 21.15L17.446 22.6138Z" fill="#FF6F61"/>
</svg>
