<svg width="295" height="64" viewBox="0 0 295 64" fill="none" xmlns="http://www.w3.org/2000/svg">
<path fill-rule="evenodd" clip-rule="evenodd" d="M44.9698 37.8157C38.9211 39.8037 21.7408 48.3411 18.6433 50.4219C18.6145 51.4767 41.5016 61.2873 59.2277 41.6229C87.6198 10.1248 5.51197 13.3573 44.9718 37.8177L44.9698 37.8157Z" fill="#4BD0AE"/>
<path fill-rule="evenodd" clip-rule="evenodd" d="M53.5002 15.1269C42.1462 19.0042 33.9968 8.70123 17.8483 23.4088C24.2801 24.6264 31.3339 24.5069 40.1423 32.1831C33.8012 32.7373 11.1303 37.3542 7.63943 38.6727C7.36964 39.6925 33.309 52.5706 56.4165 39.6554C84.094 24.1896 53.5455 16.1817 70.8391 1.6204C68.3677 4.37486 64.64 4.1503 61.3922 4.3728C53.4055 4.91874 60.9824 12.5723 53.4961 15.129L53.5002 15.1269Z" fill="#FCD34C"/>
<path fill-rule="evenodd" clip-rule="evenodd" d="M60.7785 8.92167C60.5499 12.5476 59.2915 14.7911 55.3723 14.8323C54.2705 14.8426 53.006 14.6036 51.8609 13.7713C49.0229 11.707 38.9891 7.10666 27.668 17.4178C31.268 18.3738 36.9254 17.6486 44.319 24.9498C39.4483 27.1872 17.8484 30.5906 18.0667 30.811C18.2644 31.0109 39.8108 45.873 57.5924 33.2956C59.3966 32.0183 61.3078 30.5824 62.8627 28.5737C71.3396 17.6239 58.9476 12.7866 71.424 2.84003C69.4592 5.03 66.4998 5.19687 63.9192 5.02588C60.6096 4.80544 60.9638 6.01682 60.7805 8.92373L60.7785 8.92167Z" fill="#F67256"/>
<path fill-rule="evenodd" clip-rule="evenodd" d="M7.19046 48.2422C7.28932 48.5574 7.46026 48.8479 7.6971 49.0848C8.10282 49.4948 8.63829 49.7029 9.17376 49.707H9.17582C9.71128 49.709 10.2488 49.5092 10.6587 49.1033C11.606 48.168 11.7131 47.1524 11.3383 46.283C11.0561 45.6319 10.4939 45.0778 9.8122 44.7172C9.13669 44.3588 8.33348 44.1857 7.56323 44.2949C6.38932 44.4597 5.30603 45.2591 4.8653 47.0143C4.68818 47.7272 4.70466 48.4853 4.91267 49.2084C5.1145 49.9089 5.49344 50.5743 6.04333 51.1326C6.70854 51.8063 7.4376 52.2204 8.17696 52.4182C8.9781 52.6304 9.78748 52.5851 10.5454 52.3378C11.293 52.0947 11.9911 51.6538 12.576 51.0749C13.3175 50.3415 13.8921 49.3753 14.1804 48.2896C14.4769 47.175 14.4975 46.0275 14.2463 44.9645C13.9991 43.922 13.4925 42.9599 12.7284 42.1853C11.431 40.8729 9.62684 40.3167 7.75476 40.4753C5.91152 40.6319 4.00443 41.4889 2.47011 43.0073C1.39505 44.0724 0.696884 45.2488 0.326175 46.4704C-0.147508 48.03 -0.0877828 49.6514 0.392079 51.1841C0.867822 52.7045 1.75546 54.1384 2.94173 55.3395C4.24127 56.656 5.90328 57.6943 7.77742 58.265C8.26346 58.4133 8.80305 58.5122 9.37765 58.5575C9.93989 58.6028 10.5413 58.5987 11.1632 58.541C13.2948 58.3432 15.6735 57.5233 17.6836 55.9926C19.3724 54.707 20.7975 52.9229 21.5966 50.5887C22.1671 48.9241 22.406 47.175 22.6428 45.463C22.9373 43.3143 23.2257 41.2252 24.1463 39.5235C24.6529 38.5882 25.4808 37.451 26.4859 36.3014L26.5003 36.287C27.5671 36.32 28.6854 36.3158 29.8593 36.2685C32.4337 36.1675 35.2408 35.9574 37.9984 35.5783C40.2989 35.261 42.5623 34.8243 44.6197 34.233C45.0048 34.1217 45.4002 34.0002 45.7977 33.8683C48.3886 33.0072 51.4222 31.6125 53.595 29.6512C55.8274 27.6343 57.1579 25.0302 56.227 21.7937C56.192 21.6762 56.159 21.565 56.124 21.4599C55.708 20.2053 54.8842 19.1917 53.6341 18.4953C52.4767 17.8505 50.9547 17.4817 49.0517 17.4487H49.0229C47.7439 17.5085 46.4073 17.7001 45.0563 18.0091C43.7073 18.3181 42.346 18.7487 41.0094 19.2864C38.5236 20.2897 36.2128 20.7903 34.036 20.5782C31.8755 20.368 29.8263 19.4512 27.841 17.6177C26.9142 16.7627 26.1316 15.7882 25.4994 14.686C25.0236 13.8579 24.6344 12.9555 24.3357 11.979C25.0133 12.2839 25.8536 12.4878 26.8421 12.6011C28.3044 12.768 30.1044 12.7412 32.1927 12.5496C32.9938 12.4755 34.1245 12.2056 35.4096 11.8986C38.262 11.2167 41.8991 10.3494 43.9895 11.1467L44.1666 11.2146C45.6185 11.7688 47.0313 12.3065 48.3432 13.3964C48.8828 13.8579 49.4142 14.2946 49.9394 14.7046C50.4542 15.1063 50.9485 15.4669 51.4181 15.7759H51.4201C52.5982 16.5526 54.0769 16.9687 55.3455 16.874C55.8542 16.8369 56.33 16.7194 56.748 16.5134C57.1785 16.2992 57.5471 15.9901 57.819 15.5781L57.8293 15.5616C58.1794 15.0198 58.3586 14.3132 58.2927 13.419C58.237 12.6794 57.9322 11.9501 57.5801 11.1116C57.4009 10.6831 57.2073 10.2216 57.0322 9.72102C56.7995 9.05352 56.6739 8.34688 56.6533 7.6423C56.6327 6.93154 56.7171 6.22284 56.9087 5.55329C57.127 4.79308 57.6089 4.08232 58.2453 3.47663C58.9414 2.81325 59.8208 2.2776 60.7373 1.93974C61.2274 1.75844 61.7485 1.66779 62.2798 1.64513C62.873 1.62041 63.4764 1.68427 64.0613 1.80995C64.9078 1.99124 65.5091 2.16842 65.9849 2.31057C67.859 2.86476 67.9867 2.90184 71.9677 0.847843C72.7029 0.46877 72.324 -0.279074 71.5743 0.108239C67.9002 2.0036 67.789 1.9727 66.2217 1.50916C65.7295 1.36289 65.1055 1.17953 64.2343 0.992055C63.5856 0.851963 62.908 0.781917 62.2407 0.81076C61.627 0.837542 61.0174 0.944671 60.4407 1.15687C59.4233 1.53182 58.4451 2.13133 57.6625 2.87506C56.9231 3.57964 56.3588 4.41607 56.0993 5.32461C55.8851 6.07451 55.7883 6.8718 55.813 7.66909C55.8357 8.45813 55.9778 9.24924 56.2414 10.0012C56.4226 10.5204 56.6224 10.9963 56.8078 11.4371C57.1332 12.2118 57.4153 12.8855 57.4606 13.4829C57.5121 14.1792 57.3844 14.7128 57.129 15.1063L57.1208 15.1187C56.9355 15.4009 56.6801 15.6131 56.3753 15.7635C56.056 15.9222 55.6853 16.0128 55.2879 16.0416C54.1984 16.122 52.9174 15.7573 51.8835 15.0775C51.4284 14.7767 50.9526 14.4306 50.4563 14.0433C49.9702 13.6642 49.4471 13.2316 48.8911 12.7598L48.8849 12.7557C47.4577 11.569 45.9831 11.0086 44.4673 10.4297L44.2922 10.3638C41.9629 9.47586 38.1838 10.3782 35.2181 11.0869C33.968 11.3856 32.8662 11.6493 32.1186 11.7173C30.0879 11.9048 28.3456 11.9316 26.9389 11.7709C25.592 11.6164 24.5746 11.2909 23.9383 10.7697C23.8394 10.6831 23.7035 10.644 23.5655 10.6769C23.341 10.7305 23.201 10.9551 23.2545 11.1817C23.5923 12.6279 24.103 13.932 24.7765 15.1043C25.4499 16.2786 26.2861 17.319 27.2746 18.2316C29.4021 20.1991 31.614 21.1818 33.9577 21.4105C36.2849 21.6371 38.7234 21.1138 41.3266 20.0631C42.6261 19.5398 43.9442 19.1237 45.2458 18.8249C46.5412 18.5283 47.8243 18.3449 49.0579 18.2852C50.8105 18.3181 52.1924 18.6478 53.2263 19.2246C54.2849 19.8138 54.9789 20.6688 55.3291 21.7236C55.3661 21.8328 55.397 21.9317 55.4238 22.0244C56.2476 24.8839 55.0448 27.2119 53.0348 29.029C50.9629 30.8996 48.0384 32.2387 45.5362 33.0711C45.1346 33.205 44.7515 33.3224 44.3911 33.4275C42.3748 34.0084 40.1526 34.437 37.8893 34.748C35.1728 35.1209 32.3904 35.329 29.8284 35.43C28.9387 35.465 28.0799 35.4753 27.254 35.465C28.0284 34.6492 28.8707 33.856 29.7296 33.1555C31.2701 31.9009 32.8373 31.0603 34.4437 30.5164C36.0522 29.9705 37.7018 29.7233 39.403 29.6553C39.679 29.645 39.9508 29.6367 40.2391 29.6264C43.6435 29.5234 49.2906 29.3524 50.2318 25.5473C50.3842 24.9272 50.2668 24.2988 49.7787 23.6973C49.3812 23.2049 48.7284 22.7352 47.7666 22.3066C42.4531 19.9539 28.3023 25.7904 27.9707 25.9284C24.8774 27.113 21.5287 27.7496 18.2067 27.8753C14.7694 28.0051 11.363 27.5889 8.29435 26.6722C8.07399 26.6062 7.8392 26.7319 7.7733 26.9523C7.73623 27.078 7.75888 27.2057 7.82685 27.3067C9.73394 30.1497 12.263 32.5107 15.8197 34.1032C18.425 35.2693 21.5801 36.0192 25.4417 36.2396C24.587 37.2635 23.8806 38.2689 23.4172 39.1259C22.4225 40.9636 22.1238 43.1268 21.819 45.3477C21.5884 47.0205 21.3536 48.7305 20.8119 50.3147C20.0705 52.48 18.7483 54.1364 17.1811 55.3292C15.3049 56.7569 13.0827 57.5233 11.0932 57.7087C10.5227 57.7623 9.97284 57.7664 9.45385 57.7252H9.45179C8.93897 57.684 8.46117 57.5975 8.02868 57.4656C6.29253 56.9382 4.75203 55.972 3.5431 54.7503C2.44745 53.6419 1.62983 52.3255 1.19528 50.9348C0.764847 49.5586 0.709241 48.1083 1.13144 46.7177C1.46302 45.6278 2.09116 44.5689 3.06324 43.6068C4.45546 42.2306 6.17513 41.4539 7.83097 41.3118C9.45797 41.1737 11.0211 41.6517 12.1353 42.7786C12.7902 43.442 13.2248 44.2661 13.4369 45.1602C13.6573 46.0914 13.6367 47.0967 13.3772 48.0774C13.13 49.0127 12.6337 49.845 11.9911 50.4816C11.4927 50.974 10.9099 51.3448 10.29 51.5467C9.68039 51.7445 9.03371 51.7816 8.39527 51.6126C7.79801 51.454 7.20076 51.11 6.64264 50.5455C6.18955 50.0881 5.88063 49.5463 5.71793 48.9797C5.55111 48.3967 5.53463 47.789 5.67674 47.2203C6.01655 45.8606 6.81976 45.2467 7.68268 45.1251C8.26964 45.0427 8.89161 45.1787 9.41884 45.4589C9.94195 45.735 10.3683 46.147 10.5722 46.6188C10.8172 47.1833 10.7287 47.8569 10.0696 48.508C9.8225 48.7531 9.50122 48.8726 9.17993 48.8726C8.85865 48.8705 8.53943 48.7449 8.29435 48.4977C8.15019 48.3514 8.04721 48.1783 7.98749 47.9929C7.60236 46.7712 6.84035 47.1318 7.19046 48.2463V48.2422ZM29.1982 32.5045C28.1149 33.3863 27.0625 34.4061 26.1378 35.432C22.0827 35.2693 18.8184 34.5255 16.1596 33.3368C13.1651 31.9956 10.9305 30.0817 9.19435 27.7867C12.0406 28.5078 15.1277 28.825 18.2355 28.7076C21.6481 28.5778 25.0875 27.9247 28.2673 26.7072L28.2755 26.7031C28.3167 26.6866 42.3831 20.8398 47.4206 23.0689C48.2588 23.4397 48.8087 23.8291 49.1238 24.2205C49.4265 24.5955 49.5048 24.9766 49.4142 25.3433C48.6254 28.5325 43.3737 28.6911 40.2083 28.788C39.8973 28.7983 39.6048 28.8065 39.3639 28.8168C37.5865 28.8889 35.8607 29.1485 34.1698 29.7212C32.4769 30.296 30.8231 31.1819 29.1961 32.5066L29.1982 32.5045ZM41.6417 55.0078C41.5201 55.0902 41.3574 55.1417 41.1803 55.1644C40.9888 55.1891 40.787 55.1788 40.5996 55.1376C40.3607 55.084 40.1588 54.9852 40.0682 54.8512C39.8066 54.4701 39.6522 54.0437 39.6542 53.644C39.6563 53.3123 39.7716 52.995 40.0332 52.7354C40.787 51.9917 41.5634 51.899 42.208 52.1874C42.7435 52.4264 43.2069 52.9167 43.5158 53.5163C43.8268 54.1219 43.973 54.8286 43.8721 55.4961C43.7238 56.4767 43.0153 57.3853 41.4666 57.754C40.8199 57.9065 40.13 57.8818 39.473 57.684C38.8346 57.4924 38.225 57.1339 37.7121 56.6168C37.0819 55.9782 36.7009 55.2983 36.5279 54.6184C36.3446 53.8933 36.3941 53.1598 36.6268 52.4717C36.8636 51.7754 37.29 51.1203 37.8522 50.562C38.5771 49.845 39.5245 49.297 40.581 49.0292C41.687 48.749 42.8217 48.7408 43.868 49.0003C44.873 49.2496 45.7977 49.7502 46.5391 50.5001C47.7975 51.7733 48.3165 53.543 48.1373 55.3766C47.9561 57.2369 47.0622 59.1632 45.495 60.7124C44.3149 61.8806 43.0009 62.5975 41.652 62.9333C40.1073 63.3186 38.5071 63.2094 37.0016 62.7067C35.4838 62.1999 34.0586 61.2955 32.8744 60.0985C31.5151 58.7223 30.4751 56.9609 29.9788 54.9728C29.6369 53.6028 29.6884 52.0597 30.0405 50.5063C30.4215 48.8273 31.1506 47.14 32.1124 45.6381C35.4446 40.4465 39.5245 40.1066 44.8874 39.6595C45.4085 39.6162 45.9439 39.5709 46.6174 39.5091C47.2785 39.4473 48.0652 39.3834 48.8602 39.3175C52.3531 39.0311 56.0025 38.7304 59.2771 37.7209C63.3075 36.4786 66.9075 34.4843 69.1091 31.5816C70.9997 29.0908 71.8565 25.947 71.08 22.0574C70.7629 20.471 70.1759 18.9012 69.5643 17.2633L69.2553 16.4351C68.0505 13.1739 67.1629 10.7284 67.3915 8.66827C67.6139 6.6493 68.9361 4.91875 72.1386 2.99249C72.3363 2.873 72.4002 2.61547 72.2807 2.4177C72.1675 2.23022 71.9327 2.1643 71.7411 2.257C71.6649 2.29203 71.4672 2.39297 71.2551 2.5001C70.143 3.06665 68.3121 3.99785 66.3597 4.03494C65.6945 4.0473 64.9819 3.83304 64.2899 3.6229C63.9315 3.51371 63.5773 3.40864 63.2396 3.33242C62.008 3.05635 61.1039 3.39834 60.6034 3.94223C60.4119 4.15031 60.2759 4.38929 60.2018 4.63651C60.1256 4.88991 60.1153 5.15567 60.1689 5.41113C60.2883 5.96532 60.7126 6.45152 61.4725 6.64312L61.5096 6.65136C61.9029 6.74407 62.3251 6.73995 62.6753 6.639C62.8771 6.57925 63.0604 6.49067 63.2066 6.36705C63.3714 6.22696 63.4908 6.04979 63.5464 5.82935C63.5917 5.64599 63.5897 5.4441 63.5258 5.22366L62.7226 5.45646C62.7432 5.52856 62.7473 5.58419 62.737 5.62745C62.7288 5.66247 62.702 5.6975 62.665 5.7284C62.6094 5.77578 62.5332 5.81081 62.4425 5.83759C62.2263 5.8994 61.9586 5.90145 61.7052 5.84171L61.6764 5.83347C61.2645 5.73046 61.04 5.4956 60.9844 5.23808C60.9597 5.12477 60.9659 5.00116 61.003 4.87961C61.0421 4.75188 61.1121 4.62621 61.213 4.51496C61.5364 4.16473 62.1583 3.95253 63.0542 4.15237C63.3817 4.22653 63.7132 4.32542 64.0469 4.42637C64.8027 4.65505 65.5812 4.88991 66.3741 4.87343C67.1979 4.85695 67.9908 4.70243 68.7219 4.48199C67.3688 5.78815 66.7222 7.10666 66.5595 8.57762C66.3103 10.8315 67.2247 13.3593 68.4707 16.7277L68.7817 17.5579C69.383 19.1649 69.9597 20.7059 70.2624 22.2222C70.9853 25.8481 70.1924 28.7694 68.4418 31.0747C66.3556 33.8251 62.9059 35.7266 59.03 36.9215C55.8501 37.9022 52.2419 38.1988 48.7902 38.4811C48.0693 38.5408 47.3547 38.5985 46.5412 38.6747C46.0346 38.7221 45.4188 38.7736 44.8174 38.8231C39.2197 39.2887 34.9648 39.643 31.4101 45.1828C30.3948 46.765 29.6266 48.545 29.225 50.3189C28.844 51.9979 28.7904 53.6749 29.1653 55.1747C29.6987 57.3152 30.8149 59.2085 32.2771 60.6857C33.552 61.9753 35.0904 62.9498 36.7339 63.4978C38.3897 64.0499 40.1485 64.1694 41.8558 63.743C43.3469 63.3701 44.7927 62.5831 46.086 61.3058C47.7954 59.6164 48.7716 57.5027 48.9693 55.4528C49.1712 53.3762 48.576 51.3613 47.1343 49.9048C46.2838 49.0436 45.2231 48.4688 44.0677 48.1824C42.8897 47.8899 41.6149 47.8981 40.373 48.2134C39.1641 48.5203 38.0849 49.1446 37.2591 49.9604C36.6083 50.6052 36.1119 51.3716 35.8318 52.1977C35.5476 53.0342 35.4879 53.9303 35.7144 54.8203C35.9224 55.6423 36.3714 56.4541 37.1108 57.204C37.7204 57.822 38.4536 58.2505 39.2259 58.4813C40.025 58.7223 40.8632 58.7512 41.652 58.5637L41.654 58.5616C43.6002 58.0981 44.4961 56.9114 44.6938 55.6176C44.8236 54.7688 44.6423 53.8788 44.2552 53.1248C43.8659 52.3667 43.2604 51.7383 42.5458 51.419C41.5964 50.9946 40.4801 51.1017 39.438 52.1318C39.0034 52.5603 38.8119 53.0857 38.8099 53.6316C38.8078 54.2064 39.0199 54.8018 39.3742 55.3189C39.5904 55.6362 39.9796 55.8525 40.4121 55.9493C40.6922 56.0111 40.995 56.0276 41.2833 55.9905C41.584 55.9514 41.8744 55.8546 42.1112 55.6918C43.0462 55.0531 42.4531 54.4454 41.6375 55.0037L41.6417 55.0078Z" fill="#2B2A29"/>
<path d="M79.2355 49.91H295V51.5597H79.2355V49.91Z" fill="url(#paint0_linear_98_22)"/>
<mask id="path-3-outside-1_98_22" maskUnits="userSpaceOnUse" x="80.4688" y="20.7276" width="212" height="34" fill="black">
<rect fill="white" x="80.4688" y="20.7276" width="212" height="34"/>
<path d="M91.1232 28.4295C92.7723 28.4295 94.0207 28.7847 94.8681 29.495C95.7385 30.2053 96.3341 31.1561 96.6547 32.3476C96.9754 33.5161 97.1357 34.8221 97.1357 36.2656V45.0641C97.1357 45.6598 96.941 46.1639 96.5517 46.5763C96.1623 46.9658 95.6698 47.1606 95.0743 47.1606C94.4788 47.1606 93.9863 46.9658 93.5969 46.5763C93.2075 46.1639 93.0128 45.6598 93.0128 45.0641V36.2656C93.0128 35.5095 92.9212 34.8336 92.738 34.2379C92.5547 33.6192 92.2226 33.1266 91.7416 32.76C91.2606 32.3934 90.5735 32.2101 89.6802 32.2101C88.8098 32.2101 88.0654 32.3934 87.4469 32.76C86.8285 33.1266 86.359 33.6192 86.0383 34.2379C85.7405 34.8336 85.5916 35.5095 85.5916 36.2656V45.0641C85.5916 45.6598 85.3969 46.1639 85.0076 46.5763C84.6182 46.9658 84.1257 47.1606 83.5302 47.1606C82.9347 47.1606 82.4422 46.9658 82.0528 46.5763C81.6634 46.1639 81.4688 45.6598 81.4688 45.0641V23.8241C81.4688 23.2284 81.6634 22.7358 82.0528 22.3463C82.4422 21.9338 82.9347 21.7276 83.5302 21.7276C84.1257 21.7276 84.6182 21.9338 85.0076 22.3463C85.3969 22.7358 85.5916 23.2284 85.5916 23.8241V32.3476L85.0763 32.2445C85.2824 31.855 85.5687 31.4425 85.9352 31.0072C86.3017 30.549 86.7483 30.1251 87.2752 29.7356C87.802 29.346 88.386 29.0367 89.0274 28.8076C89.6687 28.5556 90.3673 28.4295 91.1232 28.4295Z"/>
<path d="M116.649 28.4295C117.244 28.4295 117.737 28.6243 118.126 29.0138C118.515 29.4033 118.71 29.9074 118.71 30.526V45.0641C118.71 45.6598 118.515 46.1639 118.126 46.5763C117.737 46.9658 117.244 47.1606 116.649 47.1606C116.053 47.1606 115.561 46.9658 115.171 46.5763C114.782 46.1639 114.587 45.6598 114.587 45.0641V43.38L115.343 43.6893C115.343 43.9872 115.183 44.3538 114.862 44.7891C114.541 45.2015 114.106 45.614 113.556 46.0264C113.007 46.4388 112.354 46.794 111.598 47.0918C110.865 47.3668 110.063 47.5042 109.193 47.5042C107.613 47.5042 106.181 47.1033 104.898 46.3013C103.616 45.4765 102.596 44.3538 101.841 42.9332C101.108 41.4897 100.741 39.84 100.741 37.9841C100.741 36.1052 101.108 34.4555 101.841 33.035C102.596 31.5915 103.604 30.4688 104.864 29.6668C106.124 28.842 107.521 28.4295 109.056 28.4295C110.041 28.4295 110.945 28.5785 111.77 28.8763C112.594 29.1742 113.304 29.5523 113.9 30.0105C114.518 30.4688 114.988 30.9385 115.309 31.4196C115.652 31.8779 115.824 32.2674 115.824 32.5882L114.587 33.035V30.526C114.587 29.9303 114.782 29.4377 115.171 29.0482C115.561 28.6358 116.053 28.4295 116.649 28.4295ZM109.708 43.7237C110.716 43.7237 111.598 43.4716 112.354 42.9676C113.11 42.4635 113.694 41.7761 114.106 40.9054C114.541 40.0347 114.759 39.061 114.759 37.9841C114.759 36.8843 114.541 35.899 114.106 35.0284C113.694 34.1577 113.11 33.4703 112.354 32.9662C111.598 32.4622 110.716 32.2101 109.708 32.2101C108.723 32.2101 107.853 32.4622 107.097 32.9662C106.341 33.4703 105.746 34.1577 105.311 35.0284C104.898 35.899 104.692 36.8843 104.692 37.9841C104.692 39.061 104.898 40.0347 105.311 40.9054C105.746 41.7761 106.341 42.4635 107.097 42.9676C107.853 43.4716 108.723 43.7237 109.708 43.7237Z"/>
<path d="M132.691 28.4295C134.294 28.4295 135.726 28.842 136.986 29.6668C138.268 30.4688 139.276 31.58 140.009 33.0006C140.765 34.4212 141.143 36.0709 141.143 37.9497C141.143 39.8285 140.765 41.4897 140.009 42.9332C139.276 44.3538 138.28 45.4765 137.02 46.3013C135.783 47.1033 134.386 47.5042 132.829 47.5042C131.912 47.5042 131.053 47.3553 130.252 47.0574C129.45 46.7596 128.74 46.3815 128.122 45.9233C127.526 45.465 127.056 45.0068 126.713 44.5485C126.392 44.0674 126.232 43.6664 126.232 43.3456L127.297 42.8988V51.9378C127.297 52.5335 127.102 53.0262 126.713 53.4157C126.324 53.8281 125.831 54.0343 125.236 54.0343C124.64 54.0343 124.148 53.8396 123.758 53.45C123.369 53.0605 123.174 52.5565 123.174 51.9378V30.8697C123.174 30.274 123.369 29.7814 123.758 29.3919C124.148 28.9794 124.64 28.7732 125.236 28.7732C125.831 28.7732 126.324 28.9794 126.713 29.3919C127.102 29.7814 127.297 30.274 127.297 30.8697V32.5538L126.713 32.2445C126.713 31.9466 126.873 31.5915 127.194 31.1791C127.515 30.7437 127.95 30.3198 128.499 29.9074C129.049 29.4721 129.679 29.1169 130.389 28.842C131.122 28.567 131.889 28.4295 132.691 28.4295ZM132.176 32.2101C131.168 32.2101 130.286 32.4622 129.53 32.9662C128.774 33.4703 128.179 34.1577 127.744 35.0284C127.331 35.8761 127.125 36.8499 127.125 37.9497C127.125 39.0266 127.331 40.0118 127.744 40.9054C128.179 41.7761 128.774 42.4635 129.53 42.9676C130.286 43.4716 131.168 43.7237 132.176 43.7237C133.184 43.7237 134.054 43.4716 134.787 42.9676C135.543 42.4635 136.127 41.7761 136.539 40.9054C136.974 40.0118 137.192 39.0266 137.192 37.9497C137.192 36.8499 136.974 35.8761 136.539 35.0284C136.127 34.1577 135.543 33.4703 134.787 32.9662C134.054 32.4622 133.184 32.2101 132.176 32.2101Z"/>
<path d="M154.265 28.4295C155.868 28.4295 157.3 28.842 158.56 29.6668C159.842 30.4688 160.85 31.58 161.583 33.0006C162.339 34.4212 162.717 36.0709 162.717 37.9497C162.717 39.8285 162.339 41.4897 161.583 42.9332C160.85 44.3538 159.854 45.4765 158.594 46.3013C157.357 47.1033 155.96 47.5042 154.403 47.5042C153.486 47.5042 152.627 47.3553 151.826 47.0574C151.024 46.7596 150.314 46.3815 149.696 45.9233C149.1 45.465 148.63 45.0068 148.287 44.5485C147.966 44.0674 147.806 43.6664 147.806 43.3456L148.871 42.8988V51.9378C148.871 52.5335 148.676 53.0262 148.287 53.4157C147.898 53.8281 147.405 54.0343 146.81 54.0343C146.214 54.0343 145.722 53.8396 145.332 53.45C144.943 53.0605 144.748 52.5565 144.748 51.9378V30.8697C144.748 30.274 144.943 29.7814 145.332 29.3919C145.722 28.9794 146.214 28.7732 146.81 28.7732C147.405 28.7732 147.898 28.9794 148.287 29.3919C148.676 29.7814 148.871 30.274 148.871 30.8697V32.5538L148.287 32.2445C148.287 31.9466 148.447 31.5915 148.768 31.1791C149.089 30.7437 149.524 30.3198 150.074 29.9074C150.623 29.4721 151.253 29.1169 151.963 28.842C152.696 28.567 153.463 28.4295 154.265 28.4295ZM153.75 32.2101C152.742 32.2101 151.86 32.4622 151.104 32.9662C150.348 33.4703 149.753 34.1577 149.318 35.0284C148.905 35.8761 148.699 36.8499 148.699 37.9497C148.699 39.0266 148.905 40.0118 149.318 40.9054C149.753 41.7761 150.348 42.4635 151.104 42.9676C151.86 43.4716 152.742 43.7237 153.75 43.7237C154.758 43.7237 155.628 43.4716 156.361 42.9676C157.117 42.4635 157.701 41.7761 158.113 40.9054C158.548 40.0118 158.766 39.0266 158.766 37.9497C158.766 36.8499 158.548 35.8761 158.113 35.0284C157.701 34.1577 157.117 33.4703 156.361 32.9662C155.628 32.4622 154.758 32.2101 153.75 32.2101Z"/>
<path d="M179.962 28.7732C180.558 28.7732 181.05 28.9794 181.439 29.3919C181.829 29.7814 182.023 30.274 182.023 30.8697V45.4765C182.023 47.5844 181.623 49.257 180.821 50.4943C180.042 51.7545 178.989 52.6596 177.66 53.2095C176.332 53.7594 174.843 54.0343 173.194 54.0343C172.461 54.0343 171.682 53.977 170.857 53.8625C170.033 53.7479 169.357 53.5761 168.83 53.3469C168.143 53.0491 167.662 52.671 167.387 52.2128C167.135 51.7774 167.089 51.3077 167.25 50.8036C167.456 50.1392 167.788 49.6809 168.246 49.4289C168.704 49.1998 169.185 49.1769 169.689 49.3602C170.056 49.4747 170.537 49.6466 171.132 49.8757C171.728 50.1277 172.415 50.2537 173.194 50.2537C174.247 50.2537 175.118 50.1048 175.805 49.807C176.515 49.532 177.042 49.0508 177.385 48.3635C177.752 47.699 177.935 46.7825 177.935 45.614V43.3112L178.656 44.1361C178.267 44.8922 177.775 45.5223 177.179 46.0264C176.606 46.5075 175.919 46.8741 175.118 47.1262C174.316 47.3782 173.4 47.5042 172.369 47.5042C171.155 47.5042 170.09 47.2293 169.174 46.6794C168.281 46.1066 167.582 45.3275 167.078 44.3423C166.574 43.3342 166.322 42.1885 166.322 40.9054V30.8697C166.322 30.274 166.517 29.7814 166.906 29.3919C167.296 28.9794 167.788 28.7732 168.384 28.7732C168.979 28.7732 169.472 28.9794 169.861 29.3919C170.25 29.7814 170.445 30.274 170.445 30.8697V39.6681C170.445 41.1575 170.766 42.2114 171.407 42.8301C172.071 43.4258 172.987 43.7237 174.156 43.7237C174.957 43.7237 175.633 43.5747 176.183 43.2769C176.732 42.9561 177.156 42.4978 177.454 41.9021C177.752 41.2835 177.901 40.5388 177.901 39.6681V30.8697C177.901 30.274 178.095 29.7814 178.485 29.3919C178.874 28.9794 179.367 28.7732 179.962 28.7732Z"/>
<path d="M201.545 28.4295C202.851 28.4295 203.984 28.567 204.946 28.842C205.931 29.1169 206.687 29.5064 207.214 30.0105C207.764 30.4917 208.038 31.0759 208.038 31.7633C208.038 32.2216 207.901 32.6569 207.626 33.0693C207.351 33.4589 206.95 33.6536 206.424 33.6536C206.057 33.6536 205.748 33.6078 205.496 33.5161C205.267 33.4016 205.061 33.2641 204.878 33.1037C204.694 32.9433 204.477 32.7944 204.225 32.6569C203.996 32.5194 203.641 32.4163 203.16 32.3476C202.702 32.2559 202.358 32.2101 202.129 32.2101C200.961 32.2101 199.964 32.4622 199.14 32.9662C198.338 33.4703 197.72 34.1577 197.285 35.0284C196.849 35.8761 196.632 36.8614 196.632 37.9841C196.632 39.0839 196.849 40.0691 197.285 40.9398C197.743 41.7876 198.361 42.4635 199.14 42.9676C199.942 43.4716 200.858 43.7237 201.888 43.7237C202.461 43.7237 202.954 43.6893 203.366 43.6206C203.778 43.5518 204.122 43.4487 204.397 43.3112C204.717 43.1279 205.004 42.9332 205.256 42.727C205.507 42.5208 205.885 42.4177 206.389 42.4177C206.985 42.4177 207.443 42.6124 207.764 43.0019C208.084 43.3685 208.245 43.8268 208.245 44.3767C208.245 44.9495 207.924 45.4765 207.283 45.9576C206.641 46.4159 205.794 46.794 204.74 47.0918C203.709 47.3668 202.587 47.5042 201.373 47.5042C199.564 47.5042 197.995 47.0918 196.666 46.267C195.338 45.4192 194.307 44.2736 193.574 42.8301C192.864 41.3866 192.509 39.7713 192.509 37.9841C192.509 36.1052 192.887 34.4555 193.643 33.035C194.421 31.5915 195.487 30.4688 196.838 29.6668C198.212 28.842 199.781 28.4295 201.545 28.4295Z"/>
<path d="M229.049 37.9841C229.049 39.8629 228.625 41.5241 227.778 42.9676C226.953 44.3881 225.831 45.4994 224.411 46.3013C223.014 47.1033 221.445 47.5042 219.704 47.5042C217.963 47.5042 216.383 47.1033 214.963 46.3013C213.565 45.4994 212.443 44.3881 211.596 42.9676C210.771 41.5241 210.359 39.8629 210.359 37.9841C210.359 36.1052 210.771 34.4555 211.596 33.035C212.443 31.5915 213.565 30.4688 214.963 29.6668C216.383 28.842 217.963 28.4295 219.704 28.4295C221.445 28.4295 223.014 28.842 224.411 29.6668C225.831 30.4688 226.953 31.5915 227.778 33.035C228.625 34.4555 229.049 36.1052 229.049 37.9841ZM224.926 37.9841C224.926 36.8155 224.686 35.8074 224.205 34.9596C223.747 34.0889 223.117 33.413 222.315 32.9319C221.536 32.4507 220.666 32.2101 219.704 32.2101C218.742 32.2101 217.86 32.4507 217.058 32.9319C216.28 33.413 215.65 34.0889 215.169 34.9596C214.711 35.8074 214.482 36.8155 214.482 37.9841C214.482 39.1297 214.711 40.1379 215.169 41.0085C215.65 41.8563 216.28 42.5208 217.058 43.0019C217.86 43.4831 218.742 43.7237 219.704 43.7237C220.666 43.7237 221.536 43.4831 222.315 43.0019C223.117 42.5208 223.747 41.8563 224.205 41.0085C224.686 40.1379 224.926 39.1297 224.926 37.9841Z"/>
<path d="M237.124 45.0641C237.124 45.6598 236.918 46.1639 236.505 46.5763C236.116 46.9658 235.624 47.1606 235.028 47.1606C234.455 47.1606 233.974 46.9658 233.585 46.5763C233.196 46.1639 233.001 45.6598 233.001 45.0641V23.8241C233.001 23.2284 233.196 22.7358 233.585 22.3463C233.997 21.9338 234.501 21.7276 235.097 21.7276C235.692 21.7276 236.173 21.9338 236.54 22.3463C236.929 22.7358 237.124 23.2284 237.124 23.8241V45.0641Z"/>
<path d="M259.414 37.9841C259.414 39.8629 258.99 41.5241 258.143 42.9676C257.318 44.3881 256.196 45.4994 254.776 46.3013C253.378 47.1033 251.809 47.5042 250.069 47.5042C248.328 47.5042 246.747 47.1033 245.327 46.3013C243.93 45.4994 242.808 44.3881 241.96 42.9676C241.136 41.5241 240.723 39.8629 240.723 37.9841C240.723 36.1052 241.136 34.4555 241.96 33.035C242.808 31.5915 243.93 30.4688 245.327 29.6668C246.747 28.842 248.328 28.4295 250.069 28.4295C251.809 28.4295 253.378 28.842 254.776 29.6668C256.196 30.4688 257.318 31.5915 258.143 33.035C258.99 34.4555 259.414 36.1052 259.414 37.9841ZM255.291 37.9841C255.291 36.8155 255.05 35.8074 254.569 34.9596C254.111 34.0889 253.481 33.413 252.68 32.9319C251.901 32.4507 251.031 32.2101 250.069 32.2101C249.107 32.2101 248.225 32.4507 247.423 32.9319C246.644 33.413 246.014 34.0889 245.533 34.9596C245.075 35.8074 244.846 36.8155 244.846 37.9841C244.846 39.1297 245.075 40.1379 245.533 41.0085C246.014 41.8563 246.644 42.5208 247.423 43.0019C248.225 43.4831 249.107 43.7237 250.069 43.7237C251.031 43.7237 251.901 43.4831 252.68 43.0019C253.481 42.5208 254.111 41.8563 254.569 41.0085C255.05 40.1379 255.291 39.1297 255.291 37.9841Z"/>
<path d="M265.084 47.1606C264.488 47.1606 263.996 46.9658 263.606 46.5763C263.217 46.1639 263.022 45.6598 263.022 45.0641V30.8697C263.022 30.274 263.217 29.7814 263.606 29.3919C263.996 28.9794 264.488 28.7732 265.084 28.7732C265.679 28.7732 266.172 28.9794 266.561 29.3919C266.95 29.7814 267.145 30.274 267.145 30.8697V34.1004L266.905 31.7977C267.156 31.2478 267.477 30.7666 267.867 30.3542C268.279 29.9189 268.737 29.5637 269.241 29.2888C269.745 28.9909 270.283 28.7732 270.856 28.6358C271.428 28.4983 272.001 28.4295 272.573 28.4295C273.261 28.4295 273.833 28.6243 274.291 29.0138C274.772 29.4033 275.013 29.8616 275.013 30.3886C275.013 31.1447 274.818 31.6946 274.429 32.0383C274.039 32.359 273.616 32.5194 273.158 32.5194C272.722 32.5194 272.322 32.4392 271.955 32.2789C271.611 32.1185 271.211 32.0383 270.753 32.0383C270.34 32.0383 269.917 32.1414 269.481 32.3476C269.069 32.5309 268.68 32.8288 268.313 33.2412C267.97 33.6536 267.683 34.1691 267.454 34.7878C267.248 35.3835 267.145 36.0938 267.145 36.9186V45.0641C267.145 45.6598 266.95 46.1639 266.561 46.5763C266.172 46.9658 265.679 47.1606 265.084 47.1606Z"/>
<path d="M276.854 44.3079C276.625 43.9872 276.522 43.5747 276.545 43.0707C276.568 42.5666 276.866 42.1312 277.438 41.7646C277.805 41.5355 278.194 41.4439 278.606 41.4897C279.019 41.5126 279.42 41.7188 279.809 42.1083C280.473 42.7728 281.172 43.2883 281.905 43.6549C282.638 44.0215 283.554 44.2048 284.653 44.2048C284.997 44.1819 285.375 44.1361 285.787 44.0674C286.199 43.9757 286.554 43.7924 286.852 43.5175C287.173 43.2196 287.333 42.7728 287.333 42.1771C287.333 41.673 287.161 41.272 286.818 40.9742C286.474 40.6763 286.016 40.4243 285.444 40.2181C284.894 40.0118 284.275 39.8171 283.588 39.6338C282.878 39.4276 282.145 39.1984 281.389 38.9464C280.656 38.6944 279.981 38.3736 279.362 37.9841C278.744 37.5717 278.24 37.0332 277.851 36.3687C277.461 35.7043 277.266 34.868 277.266 33.8598C277.266 32.7142 277.587 31.7404 278.229 30.9385C278.87 30.1365 279.694 29.5179 280.702 29.0826C281.733 28.6472 282.809 28.4295 283.932 28.4295C284.642 28.4295 285.386 28.5212 286.165 28.7045C286.944 28.8649 287.688 29.1398 288.398 29.5294C289.108 29.896 289.704 30.3886 290.185 31.0072C290.437 31.3509 290.586 31.7633 290.632 32.2445C290.677 32.7256 290.46 33.161 289.979 33.5505C289.635 33.8255 289.234 33.9515 288.776 33.9286C288.318 33.8827 287.94 33.7223 287.642 33.4474C287.253 32.9433 286.726 32.5423 286.062 32.2445C285.421 31.9466 284.676 31.7977 283.829 31.7977C283.485 31.7977 283.107 31.8435 282.695 31.9352C282.306 32.0039 281.962 32.1757 281.664 32.4507C281.366 32.7027 281.218 33.1152 281.218 33.688C281.218 34.215 281.389 34.6388 281.733 34.9596C282.077 35.2575 282.535 35.5095 283.107 35.7157C283.703 35.899 284.333 36.0823 284.997 36.2656C285.684 36.4489 286.383 36.6666 287.093 36.9186C287.803 37.1707 288.456 37.5029 289.051 37.9153C289.647 38.3278 290.128 38.8662 290.494 39.5307C290.861 40.1722 291.044 40.9971 291.044 42.0052C291.044 43.1738 290.7 44.1705 290.013 44.9953C289.326 45.8202 288.467 46.4503 287.436 46.8856C286.406 47.298 285.352 47.5042 284.275 47.5042C282.924 47.5042 281.573 47.2751 280.221 46.8169C278.87 46.3357 277.748 45.4994 276.854 44.3079Z"/>
</mask>
<path d="M91.1232 28.4295C92.7723 28.4295 94.0207 28.7847 94.8681 29.495C95.7385 30.2053 96.3341 31.1561 96.6547 32.3476C96.9754 33.5161 97.1357 34.8221 97.1357 36.2656V45.0641C97.1357 45.6598 96.941 46.1639 96.5517 46.5763C96.1623 46.9658 95.6698 47.1606 95.0743 47.1606C94.4788 47.1606 93.9863 46.9658 93.5969 46.5763C93.2075 46.1639 93.0128 45.6598 93.0128 45.0641V36.2656C93.0128 35.5095 92.9212 34.8336 92.738 34.2379C92.5547 33.6192 92.2226 33.1266 91.7416 32.76C91.2606 32.3934 90.5735 32.2101 89.6802 32.2101C88.8098 32.2101 88.0654 32.3934 87.4469 32.76C86.8285 33.1266 86.359 33.6192 86.0383 34.2379C85.7405 34.8336 85.5916 35.5095 85.5916 36.2656V45.0641C85.5916 45.6598 85.3969 46.1639 85.0076 46.5763C84.6182 46.9658 84.1257 47.1606 83.5302 47.1606C82.9347 47.1606 82.4422 46.9658 82.0528 46.5763C81.6634 46.1639 81.4688 45.6598 81.4688 45.0641V23.8241C81.4688 23.2284 81.6634 22.7358 82.0528 22.3463C82.4422 21.9338 82.9347 21.7276 83.5302 21.7276C84.1257 21.7276 84.6182 21.9338 85.0076 22.3463C85.3969 22.7358 85.5916 23.2284 85.5916 23.8241V32.3476L85.0763 32.2445C85.2824 31.855 85.5687 31.4425 85.9352 31.0072C86.3017 30.549 86.7483 30.1251 87.2752 29.7356C87.802 29.346 88.386 29.0367 89.0274 28.8076C89.6687 28.5556 90.3673 28.4295 91.1232 28.4295Z" fill="url(#paint1_linear_98_22)"/>
<path d="M116.649 28.4295C117.244 28.4295 117.737 28.6243 118.126 29.0138C118.515 29.4033 118.71 29.9074 118.71 30.526V45.0641C118.71 45.6598 118.515 46.1639 118.126 46.5763C117.737 46.9658 117.244 47.1606 116.649 47.1606C116.053 47.1606 115.561 46.9658 115.171 46.5763C114.782 46.1639 114.587 45.6598 114.587 45.0641V43.38L115.343 43.6893C115.343 43.9872 115.183 44.3538 114.862 44.7891C114.541 45.2015 114.106 45.614 113.556 46.0264C113.007 46.4388 112.354 46.794 111.598 47.0918C110.865 47.3668 110.063 47.5042 109.193 47.5042C107.613 47.5042 106.181 47.1033 104.898 46.3013C103.616 45.4765 102.596 44.3538 101.841 42.9332C101.108 41.4897 100.741 39.84 100.741 37.9841C100.741 36.1052 101.108 34.4555 101.841 33.035C102.596 31.5915 103.604 30.4688 104.864 29.6668C106.124 28.842 107.521 28.4295 109.056 28.4295C110.041 28.4295 110.945 28.5785 111.77 28.8763C112.594 29.1742 113.304 29.5523 113.9 30.0105C114.518 30.4688 114.988 30.9385 115.309 31.4196C115.652 31.8779 115.824 32.2674 115.824 32.5882L114.587 33.035V30.526C114.587 29.9303 114.782 29.4377 115.171 29.0482C115.561 28.6358 116.053 28.4295 116.649 28.4295ZM109.708 43.7237C110.716 43.7237 111.598 43.4716 112.354 42.9676C113.11 42.4635 113.694 41.7761 114.106 40.9054C114.541 40.0347 114.759 39.061 114.759 37.9841C114.759 36.8843 114.541 35.899 114.106 35.0284C113.694 34.1577 113.11 33.4703 112.354 32.9662C111.598 32.4622 110.716 32.2101 109.708 32.2101C108.723 32.2101 107.853 32.4622 107.097 32.9662C106.341 33.4703 105.746 34.1577 105.311 35.0284C104.898 35.899 104.692 36.8843 104.692 37.9841C104.692 39.061 104.898 40.0347 105.311 40.9054C105.746 41.7761 106.341 42.4635 107.097 42.9676C107.853 43.4716 108.723 43.7237 109.708 43.7237Z" fill="url(#paint2_linear_98_22)"/>
<path d="M132.691 28.4295C134.294 28.4295 135.726 28.842 136.986 29.6668C138.268 30.4688 139.276 31.58 140.009 33.0006C140.765 34.4212 141.143 36.0709 141.143 37.9497C141.143 39.8285 140.765 41.4897 140.009 42.9332C139.276 44.3538 138.28 45.4765 137.02 46.3013C135.783 47.1033 134.386 47.5042 132.829 47.5042C131.912 47.5042 131.053 47.3553 130.252 47.0574C129.45 46.7596 128.74 46.3815 128.122 45.9233C127.526 45.465 127.056 45.0068 126.713 44.5485C126.392 44.0674 126.232 43.6664 126.232 43.3456L127.297 42.8988V51.9378C127.297 52.5335 127.102 53.0262 126.713 53.4157C126.324 53.8281 125.831 54.0343 125.236 54.0343C124.64 54.0343 124.148 53.8396 123.758 53.45C123.369 53.0605 123.174 52.5565 123.174 51.9378V30.8697C123.174 30.274 123.369 29.7814 123.758 29.3919C124.148 28.9794 124.64 28.7732 125.236 28.7732C125.831 28.7732 126.324 28.9794 126.713 29.3919C127.102 29.7814 127.297 30.274 127.297 30.8697V32.5538L126.713 32.2445C126.713 31.9466 126.873 31.5915 127.194 31.1791C127.515 30.7437 127.95 30.3198 128.499 29.9074C129.049 29.4721 129.679 29.1169 130.389 28.842C131.122 28.567 131.889 28.4295 132.691 28.4295ZM132.176 32.2101C131.168 32.2101 130.286 32.4622 129.53 32.9662C128.774 33.4703 128.179 34.1577 127.744 35.0284C127.331 35.8761 127.125 36.8499 127.125 37.9497C127.125 39.0266 127.331 40.0118 127.744 40.9054C128.179 41.7761 128.774 42.4635 129.53 42.9676C130.286 43.4716 131.168 43.7237 132.176 43.7237C133.184 43.7237 134.054 43.4716 134.787 42.9676C135.543 42.4635 136.127 41.7761 136.539 40.9054C136.974 40.0118 137.192 39.0266 137.192 37.9497C137.192 36.8499 136.974 35.8761 136.539 35.0284C136.127 34.1577 135.543 33.4703 134.787 32.9662C134.054 32.4622 133.184 32.2101 132.176 32.2101Z" fill="url(#paint3_linear_98_22)"/>
<path d="M154.265 28.4295C155.868 28.4295 157.3 28.842 158.56 29.6668C159.842 30.4688 160.85 31.58 161.583 33.0006C162.339 34.4212 162.717 36.0709 162.717 37.9497C162.717 39.8285 162.339 41.4897 161.583 42.9332C160.85 44.3538 159.854 45.4765 158.594 46.3013C157.357 47.1033 155.96 47.5042 154.403 47.5042C153.486 47.5042 152.627 47.3553 151.826 47.0574C151.024 46.7596 150.314 46.3815 149.696 45.9233C149.1 45.465 148.63 45.0068 148.287 44.5485C147.966 44.0674 147.806 43.6664 147.806 43.3456L148.871 42.8988V51.9378C148.871 52.5335 148.676 53.0262 148.287 53.4157C147.898 53.8281 147.405 54.0343 146.81 54.0343C146.214 54.0343 145.722 53.8396 145.332 53.45C144.943 53.0605 144.748 52.5565 144.748 51.9378V30.8697C144.748 30.274 144.943 29.7814 145.332 29.3919C145.722 28.9794 146.214 28.7732 146.81 28.7732C147.405 28.7732 147.898 28.9794 148.287 29.3919C148.676 29.7814 148.871 30.274 148.871 30.8697V32.5538L148.287 32.2445C148.287 31.9466 148.447 31.5915 148.768 31.1791C149.089 30.7437 149.524 30.3198 150.074 29.9074C150.623 29.4721 151.253 29.1169 151.963 28.842C152.696 28.567 153.463 28.4295 154.265 28.4295ZM153.75 32.2101C152.742 32.2101 151.86 32.4622 151.104 32.9662C150.348 33.4703 149.753 34.1577 149.318 35.0284C148.905 35.8761 148.699 36.8499 148.699 37.9497C148.699 39.0266 148.905 40.0118 149.318 40.9054C149.753 41.7761 150.348 42.4635 151.104 42.9676C151.86 43.4716 152.742 43.7237 153.75 43.7237C154.758 43.7237 155.628 43.4716 156.361 42.9676C157.117 42.4635 157.701 41.7761 158.113 40.9054C158.548 40.0118 158.766 39.0266 158.766 37.9497C158.766 36.8499 158.548 35.8761 158.113 35.0284C157.701 34.1577 157.117 33.4703 156.361 32.9662C155.628 32.4622 154.758 32.2101 153.75 32.2101Z" fill="url(#paint4_linear_98_22)"/>
<path d="M179.962 28.7732C180.558 28.7732 181.05 28.9794 181.439 29.3919C181.829 29.7814 182.023 30.274 182.023 30.8697V45.4765C182.023 47.5844 181.623 49.257 180.821 50.4943C180.042 51.7545 178.989 52.6596 177.66 53.2095C176.332 53.7594 174.843 54.0343 173.194 54.0343C172.461 54.0343 171.682 53.977 170.857 53.8625C170.033 53.7479 169.357 53.5761 168.83 53.3469C168.143 53.0491 167.662 52.671 167.387 52.2128C167.135 51.7774 167.089 51.3077 167.25 50.8036C167.456 50.1392 167.788 49.6809 168.246 49.4289C168.704 49.1998 169.185 49.1769 169.689 49.3602C170.056 49.4747 170.537 49.6466 171.132 49.8757C171.728 50.1277 172.415 50.2537 173.194 50.2537C174.247 50.2537 175.118 50.1048 175.805 49.807C176.515 49.532 177.042 49.0508 177.385 48.3635C177.752 47.699 177.935 46.7825 177.935 45.614V43.3112L178.656 44.1361C178.267 44.8922 177.775 45.5223 177.179 46.0264C176.606 46.5075 175.919 46.8741 175.118 47.1262C174.316 47.3782 173.4 47.5042 172.369 47.5042C171.155 47.5042 170.09 47.2293 169.174 46.6794C168.281 46.1066 167.582 45.3275 167.078 44.3423C166.574 43.3342 166.322 42.1885 166.322 40.9054V30.8697C166.322 30.274 166.517 29.7814 166.906 29.3919C167.296 28.9794 167.788 28.7732 168.384 28.7732C168.979 28.7732 169.472 28.9794 169.861 29.3919C170.25 29.7814 170.445 30.274 170.445 30.8697V39.6681C170.445 41.1575 170.766 42.2114 171.407 42.8301C172.071 43.4258 172.987 43.7237 174.156 43.7237C174.957 43.7237 175.633 43.5747 176.183 43.2769C176.732 42.9561 177.156 42.4978 177.454 41.9021C177.752 41.2835 177.901 40.5388 177.901 39.6681V30.8697C177.901 30.274 178.095 29.7814 178.485 29.3919C178.874 28.9794 179.367 28.7732 179.962 28.7732Z" fill="url(#paint5_linear_98_22)"/>
<path d="M201.545 28.4295C202.851 28.4295 203.984 28.567 204.946 28.842C205.931 29.1169 206.687 29.5064 207.214 30.0105C207.764 30.4917 208.038 31.0759 208.038 31.7633C208.038 32.2216 207.901 32.6569 207.626 33.0693C207.351 33.4589 206.95 33.6536 206.424 33.6536C206.057 33.6536 205.748 33.6078 205.496 33.5161C205.267 33.4016 205.061 33.2641 204.878 33.1037C204.694 32.9433 204.477 32.7944 204.225 32.6569C203.996 32.5194 203.641 32.4163 203.16 32.3476C202.702 32.2559 202.358 32.2101 202.129 32.2101C200.961 32.2101 199.964 32.4622 199.14 32.9662C198.338 33.4703 197.72 34.1577 197.285 35.0284C196.849 35.8761 196.632 36.8614 196.632 37.9841C196.632 39.0839 196.849 40.0691 197.285 40.9398C197.743 41.7876 198.361 42.4635 199.14 42.9676C199.942 43.4716 200.858 43.7237 201.888 43.7237C202.461 43.7237 202.954 43.6893 203.366 43.6206C203.778 43.5518 204.122 43.4487 204.397 43.3112C204.717 43.1279 205.004 42.9332 205.256 42.727C205.507 42.5208 205.885 42.4177 206.389 42.4177C206.985 42.4177 207.443 42.6124 207.764 43.0019C208.084 43.3685 208.245 43.8268 208.245 44.3767C208.245 44.9495 207.924 45.4765 207.283 45.9576C206.641 46.4159 205.794 46.794 204.74 47.0918C203.709 47.3668 202.587 47.5042 201.373 47.5042C199.564 47.5042 197.995 47.0918 196.666 46.267C195.338 45.4192 194.307 44.2736 193.574 42.8301C192.864 41.3866 192.509 39.7713 192.509 37.9841C192.509 36.1052 192.887 34.4555 193.643 33.035C194.421 31.5915 195.487 30.4688 196.838 29.6668C198.212 28.842 199.781 28.4295 201.545 28.4295Z" fill="url(#paint6_linear_98_22)"/>
<path d="M229.049 37.9841C229.049 39.8629 228.625 41.5241 227.778 42.9676C226.953 44.3881 225.831 45.4994 224.411 46.3013C223.014 47.1033 221.445 47.5042 219.704 47.5042C217.963 47.5042 216.383 47.1033 214.963 46.3013C213.565 45.4994 212.443 44.3881 211.596 42.9676C210.771 41.5241 210.359 39.8629 210.359 37.9841C210.359 36.1052 210.771 34.4555 211.596 33.035C212.443 31.5915 213.565 30.4688 214.963 29.6668C216.383 28.842 217.963 28.4295 219.704 28.4295C221.445 28.4295 223.014 28.842 224.411 29.6668C225.831 30.4688 226.953 31.5915 227.778 33.035C228.625 34.4555 229.049 36.1052 229.049 37.9841ZM224.926 37.9841C224.926 36.8155 224.686 35.8074 224.205 34.9596C223.747 34.0889 223.117 33.413 222.315 32.9319C221.536 32.4507 220.666 32.2101 219.704 32.2101C218.742 32.2101 217.86 32.4507 217.058 32.9319C216.28 33.413 215.65 34.0889 215.169 34.9596C214.711 35.8074 214.482 36.8155 214.482 37.9841C214.482 39.1297 214.711 40.1379 215.169 41.0085C215.65 41.8563 216.28 42.5208 217.058 43.0019C217.86 43.4831 218.742 43.7237 219.704 43.7237C220.666 43.7237 221.536 43.4831 222.315 43.0019C223.117 42.5208 223.747 41.8563 224.205 41.0085C224.686 40.1379 224.926 39.1297 224.926 37.9841Z" fill="url(#paint7_linear_98_22)"/>
<path d="M237.124 45.0641C237.124 45.6598 236.918 46.1639 236.505 46.5763C236.116 46.9658 235.624 47.1606 235.028 47.1606C234.455 47.1606 233.974 46.9658 233.585 46.5763C233.196 46.1639 233.001 45.6598 233.001 45.0641V23.8241C233.001 23.2284 233.196 22.7358 233.585 22.3463C233.997 21.9338 234.501 21.7276 235.097 21.7276C235.692 21.7276 236.173 21.9338 236.54 22.3463C236.929 22.7358 237.124 23.2284 237.124 23.8241V45.0641Z" fill="url(#paint8_linear_98_22)"/>
<path d="M259.414 37.9841C259.414 39.8629 258.99 41.5241 258.143 42.9676C257.318 44.3881 256.196 45.4994 254.776 46.3013C253.378 47.1033 251.809 47.5042 250.069 47.5042C248.328 47.5042 246.747 47.1033 245.327 46.3013C243.93 45.4994 242.808 44.3881 241.96 42.9676C241.136 41.5241 240.723 39.8629 240.723 37.9841C240.723 36.1052 241.136 34.4555 241.96 33.035C242.808 31.5915 243.93 30.4688 245.327 29.6668C246.747 28.842 248.328 28.4295 250.069 28.4295C251.809 28.4295 253.378 28.842 254.776 29.6668C256.196 30.4688 257.318 31.5915 258.143 33.035C258.99 34.4555 259.414 36.1052 259.414 37.9841ZM255.291 37.9841C255.291 36.8155 255.05 35.8074 254.569 34.9596C254.111 34.0889 253.481 33.413 252.68 32.9319C251.901 32.4507 251.031 32.2101 250.069 32.2101C249.107 32.2101 248.225 32.4507 247.423 32.9319C246.644 33.413 246.014 34.0889 245.533 34.9596C245.075 35.8074 244.846 36.8155 244.846 37.9841C244.846 39.1297 245.075 40.1379 245.533 41.0085C246.014 41.8563 246.644 42.5208 247.423 43.0019C248.225 43.4831 249.107 43.7237 250.069 43.7237C251.031 43.7237 251.901 43.4831 252.68 43.0019C253.481 42.5208 254.111 41.8563 254.569 41.0085C255.05 40.1379 255.291 39.1297 255.291 37.9841Z" fill="url(#paint9_linear_98_22)"/>
<path d="M265.084 47.1606C264.488 47.1606 263.996 46.9658 263.606 46.5763C263.217 46.1639 263.022 45.6598 263.022 45.0641V30.8697C263.022 30.274 263.217 29.7814 263.606 29.3919C263.996 28.9794 264.488 28.7732 265.084 28.7732C265.679 28.7732 266.172 28.9794 266.561 29.3919C266.95 29.7814 267.145 30.274 267.145 30.8697V34.1004L266.905 31.7977C267.156 31.2478 267.477 30.7666 267.867 30.3542C268.279 29.9189 268.737 29.5637 269.241 29.2888C269.745 28.9909 270.283 28.7732 270.856 28.6358C271.428 28.4983 272.001 28.4295 272.573 28.4295C273.261 28.4295 273.833 28.6243 274.291 29.0138C274.772 29.4033 275.013 29.8616 275.013 30.3886C275.013 31.1447 274.818 31.6946 274.429 32.0383C274.039 32.359 273.616 32.5194 273.158 32.5194C272.722 32.5194 272.322 32.4392 271.955 32.2789C271.611 32.1185 271.211 32.0383 270.753 32.0383C270.34 32.0383 269.917 32.1414 269.481 32.3476C269.069 32.5309 268.68 32.8288 268.313 33.2412C267.97 33.6536 267.683 34.1691 267.454 34.7878C267.248 35.3835 267.145 36.0938 267.145 36.9186V45.0641C267.145 45.6598 266.95 46.1639 266.561 46.5763C266.172 46.9658 265.679 47.1606 265.084 47.1606Z" fill="url(#paint10_linear_98_22)"/>
<path d="M276.854 44.3079C276.625 43.9872 276.522 43.5747 276.545 43.0707C276.568 42.5666 276.866 42.1312 277.438 41.7646C277.805 41.5355 278.194 41.4439 278.606 41.4897C279.019 41.5126 279.42 41.7188 279.809 42.1083C280.473 42.7728 281.172 43.2883 281.905 43.6549C282.638 44.0215 283.554 44.2048 284.653 44.2048C284.997 44.1819 285.375 44.1361 285.787 44.0674C286.199 43.9757 286.554 43.7924 286.852 43.5175C287.173 43.2196 287.333 42.7728 287.333 42.1771C287.333 41.673 287.161 41.272 286.818 40.9742C286.474 40.6763 286.016 40.4243 285.444 40.2181C284.894 40.0118 284.275 39.8171 283.588 39.6338C282.878 39.4276 282.145 39.1984 281.389 38.9464C280.656 38.6944 279.981 38.3736 279.362 37.9841C278.744 37.5717 278.24 37.0332 277.851 36.3687C277.461 35.7043 277.266 34.868 277.266 33.8598C277.266 32.7142 277.587 31.7404 278.229 30.9385C278.87 30.1365 279.694 29.5179 280.702 29.0826C281.733 28.6472 282.809 28.4295 283.932 28.4295C284.642 28.4295 285.386 28.5212 286.165 28.7045C286.944 28.8649 287.688 29.1398 288.398 29.5294C289.108 29.896 289.704 30.3886 290.185 31.0072C290.437 31.3509 290.586 31.7633 290.632 32.2445C290.677 32.7256 290.46 33.161 289.979 33.5505C289.635 33.8255 289.234 33.9515 288.776 33.9286C288.318 33.8827 287.94 33.7223 287.642 33.4474C287.253 32.9433 286.726 32.5423 286.062 32.2445C285.421 31.9466 284.676 31.7977 283.829 31.7977C283.485 31.7977 283.107 31.8435 282.695 31.9352C282.306 32.0039 281.962 32.1757 281.664 32.4507C281.366 32.7027 281.218 33.1152 281.218 33.688C281.218 34.215 281.389 34.6388 281.733 34.9596C282.077 35.2575 282.535 35.5095 283.107 35.7157C283.703 35.899 284.333 36.0823 284.997 36.2656C285.684 36.4489 286.383 36.6666 287.093 36.9186C287.803 37.1707 288.456 37.5029 289.051 37.9153C289.647 38.3278 290.128 38.8662 290.494 39.5307C290.861 40.1722 291.044 40.9971 291.044 42.0052C291.044 43.1738 290.7 44.1705 290.013 44.9953C289.326 45.8202 288.467 46.4503 287.436 46.8856C286.406 47.298 285.352 47.5042 284.275 47.5042C282.924 47.5042 281.573 47.2751 280.221 46.8169C278.87 46.3357 277.748 45.4994 276.854 44.3079Z" fill="url(#paint11_linear_98_22)"/>
<path d="M91.1232 28.4295C92.7723 28.4295 94.0207 28.7847 94.8681 29.495C95.7385 30.2053 96.3341 31.1561 96.6547 32.3476C96.9754 33.5161 97.1357 34.8221 97.1357 36.2656V45.0641C97.1357 45.6598 96.941 46.1639 96.5517 46.5763C96.1623 46.9658 95.6698 47.1606 95.0743 47.1606C94.4788 47.1606 93.9863 46.9658 93.5969 46.5763C93.2075 46.1639 93.0128 45.6598 93.0128 45.0641V36.2656C93.0128 35.5095 92.9212 34.8336 92.738 34.2379C92.5547 33.6192 92.2226 33.1266 91.7416 32.76C91.2606 32.3934 90.5735 32.2101 89.6802 32.2101C88.8098 32.2101 88.0654 32.3934 87.4469 32.76C86.8285 33.1266 86.359 33.6192 86.0383 34.2379C85.7405 34.8336 85.5916 35.5095 85.5916 36.2656V45.0641C85.5916 45.6598 85.3969 46.1639 85.0076 46.5763C84.6182 46.9658 84.1257 47.1606 83.5302 47.1606C82.9347 47.1606 82.4422 46.9658 82.0528 46.5763C81.6634 46.1639 81.4688 45.6598 81.4688 45.0641V23.8241C81.4688 23.2284 81.6634 22.7358 82.0528 22.3463C82.4422 21.9338 82.9347 21.7276 83.5302 21.7276C84.1257 21.7276 84.6182 21.9338 85.0076 22.3463C85.3969 22.7358 85.5916 23.2284 85.5916 23.8241V32.3476L85.0763 32.2445C85.2824 31.855 85.5687 31.4425 85.9352 31.0072C86.3017 30.549 86.7483 30.1251 87.2752 29.7356C87.802 29.346 88.386 29.0367 89.0274 28.8076C89.6687 28.5556 90.3673 28.4295 91.1232 28.4295Z" stroke="black" mask="url(#path-3-outside-1_98_22)"/>
<path d="M116.649 28.4295C117.244 28.4295 117.737 28.6243 118.126 29.0138C118.515 29.4033 118.71 29.9074 118.71 30.526V45.0641C118.71 45.6598 118.515 46.1639 118.126 46.5763C117.737 46.9658 117.244 47.1606 116.649 47.1606C116.053 47.1606 115.561 46.9658 115.171 46.5763C114.782 46.1639 114.587 45.6598 114.587 45.0641V43.38L115.343 43.6893C115.343 43.9872 115.183 44.3538 114.862 44.7891C114.541 45.2015 114.106 45.614 113.556 46.0264C113.007 46.4388 112.354 46.794 111.598 47.0918C110.865 47.3668 110.063 47.5042 109.193 47.5042C107.613 47.5042 106.181 47.1033 104.898 46.3013C103.616 45.4765 102.596 44.3538 101.841 42.9332C101.108 41.4897 100.741 39.84 100.741 37.9841C100.741 36.1052 101.108 34.4555 101.841 33.035C102.596 31.5915 103.604 30.4688 104.864 29.6668C106.124 28.842 107.521 28.4295 109.056 28.4295C110.041 28.4295 110.945 28.5785 111.77 28.8763C112.594 29.1742 113.304 29.5523 113.9 30.0105C114.518 30.4688 114.988 30.9385 115.309 31.4196C115.652 31.8779 115.824 32.2674 115.824 32.5882L114.587 33.035V30.526C114.587 29.9303 114.782 29.4377 115.171 29.0482C115.561 28.6358 116.053 28.4295 116.649 28.4295ZM109.708 43.7237C110.716 43.7237 111.598 43.4716 112.354 42.9676C113.11 42.4635 113.694 41.7761 114.106 40.9054C114.541 40.0347 114.759 39.061 114.759 37.9841C114.759 36.8843 114.541 35.899 114.106 35.0284C113.694 34.1577 113.11 33.4703 112.354 32.9662C111.598 32.4622 110.716 32.2101 109.708 32.2101C108.723 32.2101 107.853 32.4622 107.097 32.9662C106.341 33.4703 105.746 34.1577 105.311 35.0284C104.898 35.899 104.692 36.8843 104.692 37.9841C104.692 39.061 104.898 40.0347 105.311 40.9054C105.746 41.7761 106.341 42.4635 107.097 42.9676C107.853 43.4716 108.723 43.7237 109.708 43.7237Z" stroke="black" mask="url(#path-3-outside-1_98_22)"/>
<path d="M132.691 28.4295C134.294 28.4295 135.726 28.842 136.986 29.6668C138.268 30.4688 139.276 31.58 140.009 33.0006C140.765 34.4212 141.143 36.0709 141.143 37.9497C141.143 39.8285 140.765 41.4897 140.009 42.9332C139.276 44.3538 138.28 45.4765 137.02 46.3013C135.783 47.1033 134.386 47.5042 132.829 47.5042C131.912 47.5042 131.053 47.3553 130.252 47.0574C129.45 46.7596 128.74 46.3815 128.122 45.9233C127.526 45.465 127.056 45.0068 126.713 44.5485C126.392 44.0674 126.232 43.6664 126.232 43.3456L127.297 42.8988V51.9378C127.297 52.5335 127.102 53.0262 126.713 53.4157C126.324 53.8281 125.831 54.0343 125.236 54.0343C124.64 54.0343 124.148 53.8396 123.758 53.45C123.369 53.0605 123.174 52.5565 123.174 51.9378V30.8697C123.174 30.274 123.369 29.7814 123.758 29.3919C124.148 28.9794 124.64 28.7732 125.236 28.7732C125.831 28.7732 126.324 28.9794 126.713 29.3919C127.102 29.7814 127.297 30.274 127.297 30.8697V32.5538L126.713 32.2445C126.713 31.9466 126.873 31.5915 127.194 31.1791C127.515 30.7437 127.95 30.3198 128.499 29.9074C129.049 29.4721 129.679 29.1169 130.389 28.842C131.122 28.567 131.889 28.4295 132.691 28.4295ZM132.176 32.2101C131.168 32.2101 130.286 32.4622 129.53 32.9662C128.774 33.4703 128.179 34.1577 127.744 35.0284C127.331 35.8761 127.125 36.8499 127.125 37.9497C127.125 39.0266 127.331 40.0118 127.744 40.9054C128.179 41.7761 128.774 42.4635 129.53 42.9676C130.286 43.4716 131.168 43.7237 132.176 43.7237C133.184 43.7237 134.054 43.4716 134.787 42.9676C135.543 42.4635 136.127 41.7761 136.539 40.9054C136.974 40.0118 137.192 39.0266 137.192 37.9497C137.192 36.8499 136.974 35.8761 136.539 35.0284C136.127 34.1577 135.543 33.4703 134.787 32.9662C134.054 32.4622 133.184 32.2101 132.176 32.2101Z" stroke="black" mask="url(#path-3-outside-1_98_22)"/>
<path d="M154.265 28.4295C155.868 28.4295 157.3 28.842 158.56 29.6668C159.842 30.4688 160.85 31.58 161.583 33.0006C162.339 34.4212 162.717 36.0709 162.717 37.9497C162.717 39.8285 162.339 41.4897 161.583 42.9332C160.85 44.3538 159.854 45.4765 158.594 46.3013C157.357 47.1033 155.96 47.5042 154.403 47.5042C153.486 47.5042 152.627 47.3553 151.826 47.0574C151.024 46.7596 150.314 46.3815 149.696 45.9233C149.1 45.465 148.63 45.0068 148.287 44.5485C147.966 44.0674 147.806 43.6664 147.806 43.3456L148.871 42.8988V51.9378C148.871 52.5335 148.676 53.0262 148.287 53.4157C147.898 53.8281 147.405 54.0343 146.81 54.0343C146.214 54.0343 145.722 53.8396 145.332 53.45C144.943 53.0605 144.748 52.5565 144.748 51.9378V30.8697C144.748 30.274 144.943 29.7814 145.332 29.3919C145.722 28.9794 146.214 28.7732 146.81 28.7732C147.405 28.7732 147.898 28.9794 148.287 29.3919C148.676 29.7814 148.871 30.274 148.871 30.8697V32.5538L148.287 32.2445C148.287 31.9466 148.447 31.5915 148.768 31.1791C149.089 30.7437 149.524 30.3198 150.074 29.9074C150.623 29.4721 151.253 29.1169 151.963 28.842C152.696 28.567 153.463 28.4295 154.265 28.4295ZM153.75 32.2101C152.742 32.2101 151.86 32.4622 151.104 32.9662C150.348 33.4703 149.753 34.1577 149.318 35.0284C148.905 35.8761 148.699 36.8499 148.699 37.9497C148.699 39.0266 148.905 40.0118 149.318 40.9054C149.753 41.7761 150.348 42.4635 151.104 42.9676C151.86 43.4716 152.742 43.7237 153.75 43.7237C154.758 43.7237 155.628 43.4716 156.361 42.9676C157.117 42.4635 157.701 41.7761 158.113 40.9054C158.548 40.0118 158.766 39.0266 158.766 37.9497C158.766 36.8499 158.548 35.8761 158.113 35.0284C157.701 34.1577 157.117 33.4703 156.361 32.9662C155.628 32.4622 154.758 32.2101 153.75 32.2101Z" stroke="black" mask="url(#path-3-outside-1_98_22)"/>
<path d="M179.962 28.7732C180.558 28.7732 181.05 28.9794 181.439 29.3919C181.829 29.7814 182.023 30.274 182.023 30.8697V45.4765C182.023 47.5844 181.623 49.257 180.821 50.4943C180.042 51.7545 178.989 52.6596 177.66 53.2095C176.332 53.7594 174.843 54.0343 173.194 54.0343C172.461 54.0343 171.682 53.977 170.857 53.8625C170.033 53.7479 169.357 53.5761 168.83 53.3469C168.143 53.0491 167.662 52.671 167.387 52.2128C167.135 51.7774 167.089 51.3077 167.25 50.8036C167.456 50.1392 167.788 49.6809 168.246 49.4289C168.704 49.1998 169.185 49.1769 169.689 49.3602C170.056 49.4747 170.537 49.6466 171.132 49.8757C171.728 50.1277 172.415 50.2537 173.194 50.2537C174.247 50.2537 175.118 50.1048 175.805 49.807C176.515 49.532 177.042 49.0508 177.385 48.3635C177.752 47.699 177.935 46.7825 177.935 45.614V43.3112L178.656 44.1361C178.267 44.8922 177.775 45.5223 177.179 46.0264C176.606 46.5075 175.919 46.8741 175.118 47.1262C174.316 47.3782 173.4 47.5042 172.369 47.5042C171.155 47.5042 170.09 47.2293 169.174 46.6794C168.281 46.1066 167.582 45.3275 167.078 44.3423C166.574 43.3342 166.322 42.1885 166.322 40.9054V30.8697C166.322 30.274 166.517 29.7814 166.906 29.3919C167.296 28.9794 167.788 28.7732 168.384 28.7732C168.979 28.7732 169.472 28.9794 169.861 29.3919C170.25 29.7814 170.445 30.274 170.445 30.8697V39.6681C170.445 41.1575 170.766 42.2114 171.407 42.8301C172.071 43.4258 172.987 43.7237 174.156 43.7237C174.957 43.7237 175.633 43.5747 176.183 43.2769C176.732 42.9561 177.156 42.4978 177.454 41.9021C177.752 41.2835 177.901 40.5388 177.901 39.6681V30.8697C177.901 30.274 178.095 29.7814 178.485 29.3919C178.874 28.9794 179.367 28.7732 179.962 28.7732Z" stroke="black" mask="url(#path-3-outside-1_98_22)"/>
<path d="M201.545 28.4295C202.851 28.4295 203.984 28.567 204.946 28.842C205.931 29.1169 206.687 29.5064 207.214 30.0105C207.764 30.4917 208.038 31.0759 208.038 31.7633C208.038 32.2216 207.901 32.6569 207.626 33.0693C207.351 33.4589 206.95 33.6536 206.424 33.6536C206.057 33.6536 205.748 33.6078 205.496 33.5161C205.267 33.4016 205.061 33.2641 204.878 33.1037C204.694 32.9433 204.477 32.7944 204.225 32.6569C203.996 32.5194 203.641 32.4163 203.16 32.3476C202.702 32.2559 202.358 32.2101 202.129 32.2101C200.961 32.2101 199.964 32.4622 199.14 32.9662C198.338 33.4703 197.72 34.1577 197.285 35.0284C196.849 35.8761 196.632 36.8614 196.632 37.9841C196.632 39.0839 196.849 40.0691 197.285 40.9398C197.743 41.7876 198.361 42.4635 199.14 42.9676C199.942 43.4716 200.858 43.7237 201.888 43.7237C202.461 43.7237 202.954 43.6893 203.366 43.6206C203.778 43.5518 204.122 43.4487 204.397 43.3112C204.717 43.1279 205.004 42.9332 205.256 42.727C205.507 42.5208 205.885 42.4177 206.389 42.4177C206.985 42.4177 207.443 42.6124 207.764 43.0019C208.084 43.3685 208.245 43.8268 208.245 44.3767C208.245 44.9495 207.924 45.4765 207.283 45.9576C206.641 46.4159 205.794 46.794 204.74 47.0918C203.709 47.3668 202.587 47.5042 201.373 47.5042C199.564 47.5042 197.995 47.0918 196.666 46.267C195.338 45.4192 194.307 44.2736 193.574 42.8301C192.864 41.3866 192.509 39.7713 192.509 37.9841C192.509 36.1052 192.887 34.4555 193.643 33.035C194.421 31.5915 195.487 30.4688 196.838 29.6668C198.212 28.842 199.781 28.4295 201.545 28.4295Z" stroke="black" mask="url(#path-3-outside-1_98_22)"/>
<path d="M229.049 37.9841C229.049 39.8629 228.625 41.5241 227.778 42.9676C226.953 44.3881 225.831 45.4994 224.411 46.3013C223.014 47.1033 221.445 47.5042 219.704 47.5042C217.963 47.5042 216.383 47.1033 214.963 46.3013C213.565 45.4994 212.443 44.3881 211.596 42.9676C210.771 41.5241 210.359 39.8629 210.359 37.9841C210.359 36.1052 210.771 34.4555 211.596 33.035C212.443 31.5915 213.565 30.4688 214.963 29.6668C216.383 28.842 217.963 28.4295 219.704 28.4295C221.445 28.4295 223.014 28.842 224.411 29.6668C225.831 30.4688 226.953 31.5915 227.778 33.035C228.625 34.4555 229.049 36.1052 229.049 37.9841ZM224.926 37.9841C224.926 36.8155 224.686 35.8074 224.205 34.9596C223.747 34.0889 223.117 33.413 222.315 32.9319C221.536 32.4507 220.666 32.2101 219.704 32.2101C218.742 32.2101 217.86 32.4507 217.058 32.9319C216.28 33.413 215.65 34.0889 215.169 34.9596C214.711 35.8074 214.482 36.8155 214.482 37.9841C214.482 39.1297 214.711 40.1379 215.169 41.0085C215.65 41.8563 216.28 42.5208 217.058 43.0019C217.86 43.4831 218.742 43.7237 219.704 43.7237C220.666 43.7237 221.536 43.4831 222.315 43.0019C223.117 42.5208 223.747 41.8563 224.205 41.0085C224.686 40.1379 224.926 39.1297 224.926 37.9841Z" stroke="black" mask="url(#path-3-outside-1_98_22)"/>
<path d="M237.124 45.0641C237.124 45.6598 236.918 46.1639 236.505 46.5763C236.116 46.9658 235.624 47.1606 235.028 47.1606C234.455 47.1606 233.974 46.9658 233.585 46.5763C233.196 46.1639 233.001 45.6598 233.001 45.0641V23.8241C233.001 23.2284 233.196 22.7358 233.585 22.3463C233.997 21.9338 234.501 21.7276 235.097 21.7276C235.692 21.7276 236.173 21.9338 236.54 22.3463C236.929 22.7358 237.124 23.2284 237.124 23.8241V45.0641Z" stroke="black" mask="url(#path-3-outside-1_98_22)"/>
<path d="M259.414 37.9841C259.414 39.8629 258.99 41.5241 258.143 42.9676C257.318 44.3881 256.196 45.4994 254.776 46.3013C253.378 47.1033 251.809 47.5042 250.069 47.5042C248.328 47.5042 246.747 47.1033 245.327 46.3013C243.93 45.4994 242.808 44.3881 241.96 42.9676C241.136 41.5241 240.723 39.8629 240.723 37.9841C240.723 36.1052 241.136 34.4555 241.96 33.035C242.808 31.5915 243.93 30.4688 245.327 29.6668C246.747 28.842 248.328 28.4295 250.069 28.4295C251.809 28.4295 253.378 28.842 254.776 29.6668C256.196 30.4688 257.318 31.5915 258.143 33.035C258.99 34.4555 259.414 36.1052 259.414 37.9841ZM255.291 37.9841C255.291 36.8155 255.05 35.8074 254.569 34.9596C254.111 34.0889 253.481 33.413 252.68 32.9319C251.901 32.4507 251.031 32.2101 250.069 32.2101C249.107 32.2101 248.225 32.4507 247.423 32.9319C246.644 33.413 246.014 34.0889 245.533 34.9596C245.075 35.8074 244.846 36.8155 244.846 37.9841C244.846 39.1297 245.075 40.1379 245.533 41.0085C246.014 41.8563 246.644 42.5208 247.423 43.0019C248.225 43.4831 249.107 43.7237 250.069 43.7237C251.031 43.7237 251.901 43.4831 252.68 43.0019C253.481 42.5208 254.111 41.8563 254.569 41.0085C255.05 40.1379 255.291 39.1297 255.291 37.9841Z" stroke="black" mask="url(#path-3-outside-1_98_22)"/>
<path d="M265.084 47.1606C264.488 47.1606 263.996 46.9658 263.606 46.5763C263.217 46.1639 263.022 45.6598 263.022 45.0641V30.8697C263.022 30.274 263.217 29.7814 263.606 29.3919C263.996 28.9794 264.488 28.7732 265.084 28.7732C265.679 28.7732 266.172 28.9794 266.561 29.3919C266.95 29.7814 267.145 30.274 267.145 30.8697V34.1004L266.905 31.7977C267.156 31.2478 267.477 30.7666 267.867 30.3542C268.279 29.9189 268.737 29.5637 269.241 29.2888C269.745 28.9909 270.283 28.7732 270.856 28.6358C271.428 28.4983 272.001 28.4295 272.573 28.4295C273.261 28.4295 273.833 28.6243 274.291 29.0138C274.772 29.4033 275.013 29.8616 275.013 30.3886C275.013 31.1447 274.818 31.6946 274.429 32.0383C274.039 32.359 273.616 32.5194 273.158 32.5194C272.722 32.5194 272.322 32.4392 271.955 32.2789C271.611 32.1185 271.211 32.0383 270.753 32.0383C270.34 32.0383 269.917 32.1414 269.481 32.3476C269.069 32.5309 268.68 32.8288 268.313 33.2412C267.97 33.6536 267.683 34.1691 267.454 34.7878C267.248 35.3835 267.145 36.0938 267.145 36.9186V45.0641C267.145 45.6598 266.95 46.1639 266.561 46.5763C266.172 46.9658 265.679 47.1606 265.084 47.1606Z" stroke="black" mask="url(#path-3-outside-1_98_22)"/>
<path d="M276.854 44.3079C276.625 43.9872 276.522 43.5747 276.545 43.0707C276.568 42.5666 276.866 42.1312 277.438 41.7646C277.805 41.5355 278.194 41.4439 278.606 41.4897C279.019 41.5126 279.42 41.7188 279.809 42.1083C280.473 42.7728 281.172 43.2883 281.905 43.6549C282.638 44.0215 283.554 44.2048 284.653 44.2048C284.997 44.1819 285.375 44.1361 285.787 44.0674C286.199 43.9757 286.554 43.7924 286.852 43.5175C287.173 43.2196 287.333 42.7728 287.333 42.1771C287.333 41.673 287.161 41.272 286.818 40.9742C286.474 40.6763 286.016 40.4243 285.444 40.2181C284.894 40.0118 284.275 39.8171 283.588 39.6338C282.878 39.4276 282.145 39.1984 281.389 38.9464C280.656 38.6944 279.981 38.3736 279.362 37.9841C278.744 37.5717 278.24 37.0332 277.851 36.3687C277.461 35.7043 277.266 34.868 277.266 33.8598C277.266 32.7142 277.587 31.7404 278.229 30.9385C278.87 30.1365 279.694 29.5179 280.702 29.0826C281.733 28.6472 282.809 28.4295 283.932 28.4295C284.642 28.4295 285.386 28.5212 286.165 28.7045C286.944 28.8649 287.688 29.1398 288.398 29.5294C289.108 29.896 289.704 30.3886 290.185 31.0072C290.437 31.3509 290.586 31.7633 290.632 32.2445C290.677 32.7256 290.46 33.161 289.979 33.5505C289.635 33.8255 289.234 33.9515 288.776 33.9286C288.318 33.8827 287.94 33.7223 287.642 33.4474C287.253 32.9433 286.726 32.5423 286.062 32.2445C285.421 31.9466 284.676 31.7977 283.829 31.7977C283.485 31.7977 283.107 31.8435 282.695 31.9352C282.306 32.0039 281.962 32.1757 281.664 32.4507C281.366 32.7027 281.218 33.1152 281.218 33.688C281.218 34.215 281.389 34.6388 281.733 34.9596C282.077 35.2575 282.535 35.5095 283.107 35.7157C283.703 35.899 284.333 36.0823 284.997 36.2656C285.684 36.4489 286.383 36.6666 287.093 36.9186C287.803 37.1707 288.456 37.5029 289.051 37.9153C289.647 38.3278 290.128 38.8662 290.494 39.5307C290.861 40.1722 291.044 40.9971 291.044 42.0052C291.044 43.1738 290.7 44.1705 290.013 44.9953C289.326 45.8202 288.467 46.4503 287.436 46.8856C286.406 47.298 285.352 47.5042 284.275 47.5042C282.924 47.5042 281.573 47.2751 280.221 46.8169C278.87 46.3357 277.748 45.4994 276.854 44.3079Z" stroke="black" mask="url(#path-3-outside-1_98_22)"/>
<defs>
<linearGradient id="paint0_linear_98_22" x1="79.2355" y1="50.7349" x2="295" y2="50.7349" gradientUnits="userSpaceOnUse">
<stop stop-color="#0ED3A8"/>
<stop offset="0.435" stop-color="#934BFD"/>
<stop offset="0.569872" stop-color="#FCD34C"/>
<stop offset="1" stop-color="#FE4411"/>
</linearGradient>
<linearGradient id="paint1_linear_98_22" x1="79.2355" y1="34.7878" x2="293.626" y2="34.7878" gradientUnits="userSpaceOnUse">
<stop offset="0.0432718" stop-color="#06DBA4"/>
<stop offset="0.447388" stop-color="#9747FF"/>
<stop offset="0.569217" stop-color="#FCD34C"/>
<stop offset="0.970362" stop-color="#FF360B"/>
</linearGradient>
<linearGradient id="paint2_linear_98_22" x1="79.2355" y1="34.7878" x2="293.626" y2="34.7878" gradientUnits="userSpaceOnUse">
<stop offset="0.0432718" stop-color="#06DBA4"/>
<stop offset="0.447388" stop-color="#9747FF"/>
<stop offset="0.569217" stop-color="#FCD34C"/>
<stop offset="0.970362" stop-color="#FF360B"/>
</linearGradient>
<linearGradient id="paint3_linear_98_22" x1="79.2355" y1="34.7878" x2="293.626" y2="34.7878" gradientUnits="userSpaceOnUse">
<stop offset="0.0432718" stop-color="#06DBA4"/>
<stop offset="0.447388" stop-color="#9747FF"/>
<stop offset="0.569217" stop-color="#FCD34C"/>
<stop offset="0.970362" stop-color="#FF360B"/>
</linearGradient>
<linearGradient id="paint4_linear_98_22" x1="79.2355" y1="34.7878" x2="293.626" y2="34.7878" gradientUnits="userSpaceOnUse">
<stop offset="0.0432718" stop-color="#06DBA4"/>
<stop offset="0.447388" stop-color="#9747FF"/>
<stop offset="0.569217" stop-color="#FCD34C"/>
<stop offset="0.970362" stop-color="#FF360B"/>
</linearGradient>
<linearGradient id="paint5_linear_98_22" x1="79.2355" y1="34.7878" x2="293.626" y2="34.7878" gradientUnits="userSpaceOnUse">
<stop offset="0.0432718" stop-color="#06DBA4"/>
<stop offset="0.447388" stop-color="#9747FF"/>
<stop offset="0.569217" stop-color="#FCD34C"/>
<stop offset="0.970362" stop-color="#FF360B"/>
</linearGradient>
<linearGradient id="paint6_linear_98_22" x1="79.2355" y1="34.7878" x2="293.626" y2="34.7878" gradientUnits="userSpaceOnUse">
<stop offset="0.0432718" stop-color="#06DBA4"/>
<stop offset="0.447388" stop-color="#9747FF"/>
<stop offset="0.569217" stop-color="#FCD34C"/>
<stop offset="0.970362" stop-color="#FF360B"/>
</linearGradient>
<linearGradient id="paint7_linear_98_22" x1="79.2355" y1="34.7878" x2="293.626" y2="34.7878" gradientUnits="userSpaceOnUse">
<stop offset="0.0432718" stop-color="#06DBA4"/>
<stop offset="0.447388" stop-color="#9747FF"/>
<stop offset="0.569217" stop-color="#FCD34C"/>
<stop offset="0.970362" stop-color="#FF360B"/>
</linearGradient>
<linearGradient id="paint8_linear_98_22" x1="79.2355" y1="34.7878" x2="293.626" y2="34.7878" gradientUnits="userSpaceOnUse">
<stop offset="0.0432718" stop-color="#06DBA4"/>
<stop offset="0.447388" stop-color="#9747FF"/>
<stop offset="0.569217" stop-color="#FCD34C"/>
<stop offset="0.970362" stop-color="#FF360B"/>
</linearGradient>
<linearGradient id="paint9_linear_98_22" x1="79.2355" y1="34.7878" x2="293.626" y2="34.7878" gradientUnits="userSpaceOnUse">
<stop offset="0.0432718" stop-color="#06DBA4"/>
<stop offset="0.447388" stop-color="#9747FF"/>
<stop offset="0.569217" stop-color="#FCD34C"/>
<stop offset="0.970362" stop-color="#FF360B"/>
</linearGradient>
<linearGradient id="paint10_linear_98_22" x1="79.2355" y1="34.7878" x2="293.626" y2="34.7878" gradientUnits="userSpaceOnUse">
<stop offset="0.0432718" stop-color="#06DBA4"/>
<stop offset="0.447388" stop-color="#9747FF"/>
<stop offset="0.569217" stop-color="#FCD34C"/>
<stop offset="0.970362" stop-color="#FF360B"/>
</linearGradient>
<linearGradient id="paint11_linear_98_22" x1="79.2355" y1="34.7878" x2="293.626" y2="34.7878" gradientUnits="userSpaceOnUse">
<stop offset="0.0432718" stop-color="#06DBA4"/>
<stop offset="0.447388" stop-color="#9747FF"/>
<stop offset="0.569217" stop-color="#FCD34C"/>
<stop offset="0.970362" stop-color="#FF360B"/>
</linearGradient>
</defs>
</svg>
